<svg width="512" height="512" viewBox="0 0 512 512" fill="none" xmlns="http://www.w3.org/2000/svg">
<path d="M136 144H120V160H136V144Z" fill="#0055CC"/>
<path d="M200 144H184V160H200V144Z" fill="#0055CC"/>
<path d="M160 212C173.458 212 184 203.215 184 192H168C168 193.41 164.963 196 160 196C155.037 196 152 193.41 152 192H136C136 203.215 146.542 212 160 212Z" fill="#0055CC"/>
<path d="M448 368H424V384H448V368Z" fill="#0055CC"/>
<path d="M478 232H322C317.228 232.006 312.653 233.904 309.278 237.278C305.904 240.653 304.006 245.228 304 250V286C304.006 290.426 305.639 294.695 308.59 297.994C311.541 301.293 315.602 303.392 320 303.889V320.667C313.117 319.508 306.065 319.863 299.333 321.707C292.602 323.552 286.353 326.841 281.023 331.347C275.692 335.852 271.408 341.465 268.468 347.795C265.528 354.126 264.003 361.021 264 368V428.669C256.377 425.577 248.227 423.991 240 424H196.944L223.155 371.578C223.625 370.638 223.905 369.615 223.98 368.567C224.055 367.519 223.922 366.467 223.59 365.47L217.783 348.053L243.583 335.153C244.662 334.614 245.605 333.837 246.342 332.882C247.078 331.926 247.589 330.816 247.836 329.636C248.083 328.455 248.06 327.233 247.768 326.063C247.476 324.892 246.923 323.803 246.151 322.876L223.025 295.126L275.225 319.218L281.925 304.69L204.562 268.984L203.2 264H238C242.772 263.995 247.347 262.096 250.722 258.722C254.096 255.347 255.994 250.772 256 246V172.96C258.46 171.316 260.478 169.091 261.873 166.482C263.268 163.872 263.999 160.959 264 158V138C263.999 135.041 263.268 132.128 261.873 129.518C260.478 126.909 258.46 124.684 256 123.04V84.0001C255.98 65.9716 248.809 48.6874 236.061 35.9393C223.313 23.1912 206.028 16.0204 188 16.0001H132C114.85 15.978 98.3294 22.458 85.768 34.1341L96.648 45.8651C105.244 37.8751 116.298 33.0406 128 32.1531V68.0001C128.008 77.7374 130.106 87.3595 134.153 96.2161C133.354 96.4059 132.588 96.7175 131.884 97.1401L93.784 120H80V84.0001C79.9997 75.5463 82.0565 67.2194 85.993 59.7381L71.847 52.2621C66.6956 62.0483 64.0025 72.9408 64 84.0001V123.04C61.5396 124.684 59.5224 126.909 58.1271 129.518C56.7317 132.128 56.0011 135.041 56 138V158C56.0011 160.959 56.7317 163.872 58.1271 166.482C59.5224 169.091 61.5396 171.316 64 172.96V246C64.0056 250.772 65.9038 255.347 69.2782 258.722C72.6527 262.096 77.2278 263.995 82 264H116.8L115.44 268.986L38.076 304.692C31.4929 307.746 25.9183 312.615 22.0076 318.728C18.0969 324.841 16.0127 331.943 16 339.2V368H32V339.2C32.007 334.998 33.2135 330.886 35.4776 327.347C37.7418 323.807 40.9694 320.988 44.781 319.22L96.981 295.128L73.855 322.878C73.0827 323.805 72.53 324.894 72.2382 326.065C71.9464 327.235 71.9232 328.457 72.1702 329.638C72.4172 330.818 72.928 331.928 73.6645 332.884C74.401 333.839 75.344 334.616 76.423 335.155L102.223 348.055L96.41 365.47C96.0779 366.467 95.9453 367.519 96.02 368.567C96.0946 369.615 96.375 370.638 96.845 371.578L123.056 424H88V384H72V432C72 434.122 72.8429 436.157 74.3431 437.657C75.8434 439.157 77.8783 440 80 440H192V480H44C40.8185 479.997 37.7682 478.731 35.5185 476.482C33.2688 474.232 32.0034 471.182 32 468V384H16V468C16.0085 475.424 18.9612 482.541 24.2104 487.79C29.4595 493.039 36.5765 495.992 44 496H472C474.122 496 476.157 495.157 477.657 493.657C479.157 492.157 480 490.122 480 488V368H464V400H424V416H464V448H392V336H464V352H480V303.889C484.398 303.392 488.459 301.293 491.41 297.994C494.361 294.695 495.994 290.426 496 286V250C495.994 245.228 494.096 240.653 490.722 237.278C487.347 233.904 482.772 232.006 478 232ZM240 246C240 246.53 239.789 247.039 239.414 247.414C239.039 247.789 238.53 248 238 248H198.837L194.356 231.57L211.167 223.057C217.447 219.9 222.723 215.056 226.403 209.068C230.082 203.08 232.021 196.185 232 189.156V176H240V246ZM248 138V158C248 158.53 247.789 159.039 247.414 159.414C247.039 159.789 246.53 160 246 160H232V136H246C246.53 136 247.039 136.211 247.414 136.586C247.789 136.961 248 137.47 248 138ZM144 32.0001H188C201.786 32.0157 215.004 37.4992 224.752 47.2478C234.501 56.9963 239.984 70.2136 240 84.0001V120H196C182.209 120 168.982 114.521 159.23 104.77C149.479 95.0177 144 81.7913 144 68.0001V32.0001ZM104 132.529L138.216 112H144V111.809C150.378 119.39 158.338 125.484 167.321 129.663C176.304 133.842 186.093 136.005 196 136H216V189.156C216.012 193.225 214.89 197.217 212.759 200.684C210.629 204.151 207.574 206.956 203.938 208.783L160.875 230.589C160.596 230.73 160.288 230.803 159.975 230.803C159.662 230.803 159.354 230.73 159.075 230.589L116.16 209.132C112.498 207.316 109.418 204.511 107.268 201.033C105.119 197.556 103.987 193.547 104 189.459V132.529ZM191.406 281.558L184.169 311.953L160 320.513L135.831 311.953L128.594 281.558L140.194 239.039L151.925 244.905C154.44 246.156 157.212 246.803 160.021 246.796C162.83 246.789 165.599 246.127 168.108 244.864L179.789 238.948L191.406 281.558ZM72 158V138C72 137.47 72.2107 136.961 72.5858 136.586C72.9609 136.211 73.4696 136 74 136H88V160H74C73.4696 160 72.9609 159.789 72.5858 159.414C72.2107 159.039 72 158.53 72 158ZM82 248C81.4696 248 80.9609 247.789 80.5858 247.414C80.2107 247.039 80 246.53 80 246V176H88V189.459C87.976 196.521 89.9313 203.449 93.6441 209.456C97.3569 215.463 102.679 220.31 109.006 223.447L125.597 231.747L121.163 248H82ZM140.944 424L112.638 367.386L119.59 346.53C120.199 344.703 120.128 342.718 119.391 340.939C118.654 339.16 117.3 337.706 115.578 336.845L92.612 325.362L115.918 297.4L146.062 424H140.944ZM140.244 330.49L157.328 336.541C159.056 337.153 160.942 337.153 162.67 336.541L179.754 330.49L160 413.462L140.244 330.49ZM179.056 424H173.938L204.082 297.4L227.388 325.367L204.422 336.85C202.7 337.711 201.346 339.165 200.609 340.944C199.872 342.723 199.801 344.708 200.41 346.535L207.362 367.391L179.056 424ZM208 480V440H240C251.34 440.015 262.31 444.037 270.971 451.356C279.632 458.676 285.428 468.821 287.333 480H208ZM344 448C343.994 452.94 342.846 457.811 340.646 462.234C338.445 466.656 335.252 470.51 331.316 473.494C327.379 476.478 322.806 478.511 317.953 479.435C313.101 480.359 308.101 480.148 303.343 478.819C301.004 462.771 292.661 448.209 280 438.074V416H344V448ZM344 400H280V368C280 359.513 283.371 351.374 289.373 345.373C295.374 339.371 303.513 336 312 336C320.487 336 328.626 339.371 334.627 345.373C340.629 351.374 344 359.513 344 368V400ZM464 320H384C381.878 320 379.843 320.843 378.343 322.343C376.843 323.843 376 325.878 376 328V456C376 458.122 376.843 460.157 378.343 461.657C379.843 463.157 381.878 464 384 464H464V480H347.747C355.645 471.214 360.01 459.814 360 448V368C359.995 359.577 357.775 351.303 353.562 344.009C349.35 336.715 343.293 330.657 336 326.443V304H464V320ZM480 286C480 286.53 479.789 287.039 479.414 287.414C479.039 287.789 478.53 288 478 288H322C321.47 288 320.961 287.789 320.586 287.414C320.211 287.039 320 286.53 320 286V250C320 249.47 320.211 248.961 320.586 248.586C320.961 248.211 321.47 248 322 248H478C478.53 248 479.039 248.211 479.414 248.586C479.789 248.961 480 249.47 480 250V286Z" fill="#0055CC"/>
</svg>
