<svg width="512" height="512" viewBox="0 0 512 512" fill="none" xmlns="http://www.w3.org/2000/svg">
<path d="M276.152 223.396C276.152 210.885 271.3 199.153 262.502 190.371C253.709 181.561 241.977 176.71 229.466 176.71C216.955 176.71 205.222 181.562 196.435 190.366L189.868 196.933C187.926 172.955 167.805 154.033 143.335 154.033C117.568 154.033 96.606 174.982 96.606 200.733C96.606 225.257 115.6 245.415 139.648 247.303C123.523 265.63 124.2 293.665 141.698 311.163C150.804 320.269 162.766 324.823 174.729 324.823C186.692 324.823 198.653 320.269 207.76 311.163L235.143 283.78L262.492 256.431C271.302 247.638 276.153 235.906 276.153 223.395L276.152 223.396ZM174.02 200.732C174.02 207.288 171.95 213.366 168.44 218.359L160.92 225.879C158.048 227.898 154.817 229.437 151.342 230.378V171.114C164.39 174.645 174.019 186.582 174.019 200.732H174.02ZM112.622 200.732C112.622 186.58 122.264 174.641 135.328 171.112V230.38C122.264 226.848 112.622 214.897 112.622 200.732ZM196.435 299.839C184.466 311.807 164.991 311.808 153.022 299.839C141.053 287.87 141.053 268.396 153.022 256.426L171.368 238.081C172.645 237.119 173.868 236.089 175.039 235.003L218.155 278.119L196.435 299.84V299.839ZM251.171 245.102L229.479 266.794L186.067 223.382L207.765 201.685C213.532 195.907 221.238 192.725 229.466 192.725C237.694 192.725 245.4 195.907 251.177 201.696C256.955 207.463 260.137 215.169 260.137 223.396C260.137 231.623 256.954 239.33 251.171 245.102ZM100.758 347.667H253.347C257.77 347.667 261.355 351.252 261.355 355.675C261.355 360.098 257.77 363.683 253.347 363.683H100.758C96.335 363.683 92.75 360.098 92.75 355.675C92.75 351.252 96.335 347.667 100.758 347.667ZM176.628 398.732C176.628 403.155 173.043 406.74 168.62 406.74H100.758C96.335 406.74 92.75 403.155 92.75 398.732C92.75 394.309 96.335 390.724 100.758 390.724H168.62C173.043 390.724 176.628 394.309 176.628 398.732ZM472.182 215.969H364.621V90.154C364.621 70.967 349.012 55.358 329.826 55.358H279.1V49.165C279.1 44.742 275.515 41.157 271.092 41.157H246.898V26.176C246.898 21.753 243.313 18.168 238.89 18.168H133.867C129.444 18.168 125.859 21.753 125.859 26.176V41.157H101.665C97.242 41.157 93.657 44.742 93.657 49.165V55.358H42.931C23.745 55.358 8.13599 70.967 8.13599 90.154V458.884C8.13599 478.07 23.745 493.679 42.931 493.679H329.826C349.013 493.679 364.621 478.07 364.621 458.884V380.18H472.182C489.821 380.18 504.171 365.842 504.171 348.219V247.93C504.171 230.307 489.821 215.969 472.182 215.969ZM329.826 71.373C340.181 71.373 348.606 79.798 348.606 90.153V215.968H331.952C329.44 215.968 326.999 216.268 324.653 216.818V103.334C324.653 98.911 321.068 95.326 316.645 95.326H279.1V71.373H329.826ZM249.342 305.009L299.963 334.246V348.219C299.963 356.664 303.264 364.348 308.637 370.068V437.695H64.121V111.342H93.658V122.468C93.658 126.891 97.243 130.476 101.666 130.476H271.093C275.516 130.476 279.101 126.891 279.101 122.468V111.342H308.638V226.081C303.265 231.801 299.964 239.486 299.964 247.93V261.903L249.343 291.14C246.866 292.571 245.341 295.214 245.341 298.075C245.341 300.936 246.867 303.579 249.343 305.01L249.342 305.009ZM109.673 57.172H133.867C138.29 57.172 141.875 53.587 141.875 49.164V34.183H230.883V49.164C230.883 53.587 234.468 57.172 238.891 57.172H263.085V114.46H109.673V57.172ZM348.606 458.884C348.606 469.238 340.181 477.663 329.826 477.663H42.932C32.577 477.663 24.153 469.238 24.153 458.884V90.153C24.153 79.798 32.577 71.373 42.932 71.373H93.658V95.326H56.113C51.69 95.326 48.105 98.911 48.105 103.334V445.703C48.105 450.126 51.69 453.711 56.113 453.711H316.645C321.068 453.711 324.653 450.126 324.653 445.703V379.33C326.999 379.88 329.441 380.18 331.952 380.18H348.606V458.884ZM488.155 348.219C488.155 357.011 480.989 364.164 472.182 364.164H331.952C328.176 364.164 324.707 362.842 321.97 360.647C321.838 360.529 321.703 360.414 321.563 360.305C318.151 357.378 315.979 353.05 315.979 348.218V329.623C315.979 326.763 314.453 324.119 311.977 322.688L269.359 298.073L311.977 273.458C314.454 272.027 315.979 269.384 315.979 266.523V247.928C315.979 243.096 318.151 238.768 321.563 235.841C321.703 235.732 321.838 235.617 321.97 235.499C324.707 233.304 328.176 231.982 331.952 231.982H472.182C480.99 231.982 488.155 239.135 488.155 247.927V348.216V348.219ZM438.341 248.121H438.314C431.588 248.128 425.272 250.754 420.542 255.505L386.41 289.637L372.299 275.505C362.477 265.726 346.497 265.727 336.653 275.529C326.86 285.363 326.865 301.336 336.665 311.134L364.473 338.942C370.318 344.788 378.107 348.006 386.407 348.006C394.707 348.006 402.496 344.787 408.341 338.942L456.149 291.134C460.911 286.392 463.538 280.076 463.545 273.352C463.552 266.612 460.93 260.274 456.161 255.503C451.399 250.741 445.072 248.12 438.343 248.12L438.341 248.121ZM444.834 279.798L397.014 327.618C394.194 330.437 390.427 331.991 386.406 331.991C382.385 331.991 378.617 330.437 375.798 327.618L347.99 299.809C344.422 296.242 344.428 290.419 347.978 286.854C349.775 285.064 352.136 284.17 354.494 284.17C356.852 284.17 359.198 285.06 360.982 286.837L380.739 306.623C382.24 308.127 384.278 308.972 386.403 308.973H386.406C388.53 308.973 390.567 308.129 392.069 306.627L431.879 266.816C433.598 265.089 435.889 264.137 438.331 264.135H438.341C440.793 264.135 443.099 265.091 444.836 266.827C446.576 268.567 447.532 270.877 447.529 273.333C447.527 275.773 446.574 278.064 444.836 279.796L444.834 279.798Z" fill="#0055CC"/>
</svg>
