<svg width="512" height="512" viewBox="0 0 512 512" fill="none" xmlns="http://www.w3.org/2000/svg">
<g clip-path="url(#clip0_17_547)">
<path fill-rule="evenodd" clip-rule="evenodd" d="M303.463 264.592C301.342 264.592 299.302 263.752 297.808 262.246L243.769 208.207C240.643 205.084 240.643 200.02 243.769 196.897L354.958 85.7074L420.308 151.057L309.118 262.246C307.618 263.749 305.578 264.595 303.46 264.595L303.463 264.592ZM396.847 161.71C394.801 161.71 392.755 160.927 391.192 159.367L377.8 145.975C370.351 138.526 381.664 127.213 389.11 134.659L402.502 148.051C407.548 153.094 403.921 161.71 396.844 161.71H396.847ZM357.34 201.223C355.294 201.223 353.248 200.44 351.688 198.88L338.296 185.488C330.85 178.039 342.16 166.726 349.606 174.172L362.998 187.564C368.05 192.616 364.402 201.223 357.34 201.223ZM377.095 181.465C372.112 181.465 367.576 175.255 362.65 170.332C355.201 162.883 366.514 151.573 373.96 159.016C379.84 164.89 389.86 172.012 382.753 179.125C381.19 180.688 379.141 181.468 377.095 181.468V181.465ZM337.588 220.978C332.608 220.978 328.069 214.768 323.143 209.845C315.694 202.396 327.007 191.086 334.453 198.529C340.309 204.382 350.365 211.537 343.246 218.638C341.68 220.195 339.634 220.981 337.588 220.981V220.978ZM366.277 74.3943L392.941 47.7302C395.935 44.7302 401.257 44.7302 404.251 47.7302L458.291 101.769C461.417 104.895 461.417 109.956 458.291 113.079L431.627 139.744L366.277 74.3943Z" fill="#0055CC"/>
<path fill-rule="evenodd" clip-rule="evenodd" d="M197.056 316.954C190 316.954 186.342 308.353 191.398 303.298L254.779 239.917C262.228 232.474 273.541 243.784 266.089 251.233L202.711 314.611C201.151 316.171 199.105 316.957 197.053 316.957L197.056 316.954Z" fill="#0055CC"/>
<path fill-rule="evenodd" clip-rule="evenodd" d="M467.924 130.726C465.878 130.726 463.835 129.943 462.272 128.38L377.635 43.7432C370.186 36.2942 381.499 24.9811 388.945 32.4272L473.582 117.064C478.637 122.119 474.983 130.726 467.924 130.726Z" fill="#0055CC"/>
<path fill-rule="evenodd" clip-rule="evenodd" d="M408.052 105.958C400.993 105.958 397.348 97.3505 402.4 92.2985L457.111 37.5902C464.56 30.1472 475.874 41.4573 468.422 48.9063L413.71 103.615C412.147 105.178 410.098 105.958 408.052 105.958Z" fill="#0055CC"/>
<path fill-rule="evenodd" clip-rule="evenodd" d="M498.008 86.4934C495.965 86.4934 493.919 85.7104 492.356 84.1534L421.868 13.6651C414.422 6.21912 425.735 -5.09093 433.178 2.3551L503.666 72.8434C508.721 77.8984 505.067 86.4964 498.008 86.4964V86.4934Z" fill="#0055CC"/>
<path fill-rule="evenodd" clip-rule="evenodd" d="M270.913 264.046C268.867 264.046 266.821 263.263 265.258 261.7C234.901 231.331 235.024 238.78 260.311 213.442C263.305 210.436 268.621 210.436 271.621 213.442C301.894 243.739 301.927 236.365 276.568 261.703C275.008 263.263 272.956 264.043 270.91 264.043L270.913 264.046Z" fill="#0055CC"/>
<path fill-rule="evenodd" clip-rule="evenodd" d="M153.585 300.019C138.555 300.019 126.327 287.791 126.327 272.761C126.327 257.734 138.558 245.503 153.585 245.503C168.612 245.503 180.843 257.734 180.843 272.761C180.843 287.788 168.615 300.019 153.585 300.019Z" fill="#0055CC"/>
<path fill-rule="evenodd" clip-rule="evenodd" d="M269.983 346.135C242.848 346.135 242.848 304.906 269.983 304.906C297.106 304.906 297.118 346.135 269.983 346.135ZM269.983 320.902C263.914 320.902 263.911 330.133 269.983 330.133C276.049 330.133 276.058 320.902 269.983 320.902Z" fill="#0055CC"/>
<path fill-rule="evenodd" clip-rule="evenodd" d="M152.817 398.192C138.756 398.192 127.317 386.753 127.317 372.692C127.317 358.627 138.759 347.191 152.817 347.191C166.882 347.191 178.321 358.627 178.321 372.692C178.321 386.753 166.882 398.192 152.817 398.192Z" fill="#0055CC"/>
<path fill-rule="evenodd" clip-rule="evenodd" d="M235.651 398.003C220.621 398.003 208.393 385.769 208.393 370.742C208.393 355.711 220.624 343.483 235.651 343.483C250.678 343.483 262.909 355.714 262.909 370.742C262.909 385.769 250.681 398.003 235.651 398.003Z" fill="#0055CC"/>
<path fill-rule="evenodd" clip-rule="evenodd" d="M236.683 511.991H200.008C168.942 511.991 165.348 466.4 195.874 461.399V446.624C171.969 443.666 149.391 434.792 129.843 420.671L122.805 427.709C127.557 458.831 89.4451 478.379 66.984 455.927C44.5649 433.514 63.96 395.306 95.2021 400.109L101.568 393.74C87.0061 375.527 77.1751 354.217 72.8101 331.387H56.58C51.576 361.912 5.98779 358.312 5.98779 327.259L5.99079 290.584C5.99079 259.519 51.579 255.928 56.58 286.45H71.349C74.3101 262.546 83.1811 239.971 97.3112 220.423L90.2701 213.382C59.091 218.122 39.6269 179.989 62.052 157.564C84.4501 135.166 122.658 154.501 117.873 185.785L124.242 192.154C142.455 177.595 163.767 167.764 186.591 163.396V147.157C156.057 142.156 159.657 96.5645 190.72 96.5645L227.395 96.5675C258.454 96.5675 262.057 142.156 231.529 147.157V161.932C240.751 163.072 249.778 165.094 258.541 167.977L245.656 180.862C211.474 172.051 215.527 187.882 215.527 139.489C215.527 131.473 222.949 131.488 227.395 131.488C239.851 131.485 239.845 112.564 227.395 112.564H190.72C178.263 112.564 178.269 131.494 190.72 131.491C195.151 131.491 202.591 131.461 202.591 139.489V170.176C202.591 174.163 199.657 177.538 195.712 178.096C170.931 181.597 147.891 192.28 129.093 208.984C125.925 211.798 121.119 211.657 118.122 208.66L103.434 193.972C96.8732 187.405 107.934 179.524 97.2842 168.874C81.6271 153.217 57.468 176.89 73.3681 192.796C84.0031 203.431 91.9081 192.397 98.4632 198.946L113.568 214.051C116.451 216.934 116.706 221.527 114.156 224.71C97.9682 244.927 88.4341 269.242 86.5861 295.03C86.2861 299.212 82.8031 302.455 78.6061 302.455L48.918 302.452C40.9019 302.452 40.9169 295.03 40.9169 290.59C40.9169 278.134 21.9929 278.14 21.9929 290.59V327.268C21.9929 339.724 40.9169 339.721 40.9169 327.268C40.9169 322.828 40.8959 315.397 48.918 315.397L79.5961 315.4C83.5831 315.4 86.9641 318.334 87.5191 322.279C91.0201 347.056 101.703 370.1 118.41 388.898C121.221 392.066 121.086 396.872 118.089 399.869L103.407 414.551C96.8372 421.133 88.9561 410.036 78.3091 420.701C62.655 436.379 86.3281 460.511 102.225 444.623C112.887 433.967 101.808 426.095 108.375 419.525L123.474 404.426C126.363 401.543 130.944 401.285 134.13 403.835C154.347 420.023 178.662 429.551 204.451 431.396C208.633 431.696 211.882 435.179 211.882 439.376V469.07C211.882 477.086 204.46 477.071 200.014 477.071C187.558 477.074 187.564 495.995 200.014 495.995H236.686C249.142 495.995 249.136 477.065 236.686 477.068C232.252 477.068 224.821 477.095 224.821 469.07V438.392C224.821 434.405 227.755 431.024 231.7 430.472C256.477 426.971 279.517 416.294 298.318 399.581C301.48 396.77 306.289 396.905 309.289 399.905L323.971 414.587C330.535 421.145 319.48 429.053 330.124 439.691C345.874 455.429 369.781 431.507 354.046 415.772C343.381 405.107 335.521 416.198 328.948 409.616L313.843 394.517C310.96 391.64 310.705 387.047 313.252 383.858C329.434 363.641 338.968 339.325 340.819 313.534C341.119 309.352 344.602 306.109 348.796 306.109H378.49C386.512 306.109 386.491 313.537 386.491 317.977C386.491 330.433 405.415 330.427 405.415 317.977V281.302C405.415 268.849 386.491 268.852 386.491 281.302C386.491 285.742 386.512 293.17 378.49 293.17C324.235 293.17 349.6 297.973 331.054 254.458L343.138 242.374C348.445 253.414 352.276 265.054 354.589 277.174H370.822C375.832 246.646 421.411 250.249 421.411 281.308V317.983C421.411 349.051 375.82 352.639 370.822 322.117H356.047C353.086 346.021 344.209 368.599 330.088 388.148L337.129 395.189C368.191 390.401 387.823 428.537 365.35 451.01C342.886 473.477 304.765 453.899 309.526 422.789L303.154 416.423C284.947 430.985 263.632 440.816 240.805 445.181V461.414C271.345 466.424 267.736 512.006 236.677 512.006L236.683 511.991Z" fill="#0055CC"/>
<path fill-rule="evenodd" clip-rule="evenodd" d="M269.983 346.135C242.848 346.135 242.845 304.906 269.983 304.906C297.109 304.906 297.118 346.135 269.983 346.135Z" fill="#0055CC"/>
</g>
<defs>
<clipPath id="clip0_17_547">
<rect width="512" height="512" fill="white"/>
</clipPath>
</defs>
</svg>
