<svg width="512" height="512" viewBox="0 0 512 512" fill="none" xmlns="http://www.w3.org/2000/svg">
<path d="M142.848 101.888C142.848 93.1841 135.68 86.0161 126.976 86.0161H107.52V118.272H126.464C135.68 118.272 142.848 111.104 142.848 101.888Z" fill="#0055CC"/>
<path d="M479.744 84.992C470.528 71.168 452.608 64 427.52 64H327.168C312.832 64 304.128 69.12 298.496 75.776C291.84 68.096 282.112 64 269.312 64H205.312C186.88 40.96 158.72 26.624 127.488 26.624C71.1681 26.624 25.6001 72.704 25.6001 128.512C25.6001 145.92 30.2081 162.816 37.8881 177.152C29.6961 198.144 25.6001 219.648 25.6001 242.176V350.208C25.6001 399.36 50.6881 411.648 60.9281 414.72C64.5121 415.744 68.6081 416.256 72.1921 416.256C90.6241 416.256 110.08 404.48 121.856 385.024C124.928 379.392 128 374.272 131.072 369.664C150.528 335.872 161.28 316.928 209.92 322.56L271.36 395.776V477.184C271.36 481.28 274.944 484.864 279.04 484.864H321.024C325.12 484.864 328.704 481.28 328.704 477.184V396.8C370.176 364.032 391.168 314.368 391.68 248.832C435.2 221.696 462.848 177.152 479.744 137.216C488.448 115.712 488.448 98.304 479.744 84.992ZM353.792 171.52C357.888 171.52 361.472 175.104 361.472 179.2C361.472 183.296 357.888 186.88 353.792 186.88C349.696 186.88 346.112 183.296 346.112 179.2C346.112 175.104 349.696 171.52 353.792 171.52ZM303.616 274.432C313.856 274.432 324.096 272.896 333.312 271.36C330.24 302.08 320 326.144 302.592 343.552L273.92 308.736C289.792 297.984 298.496 283.136 303.616 274.432ZM92.1601 78.336C92.1601 74.24 95.7441 70.656 99.8401 70.656H126.464C143.872 70.656 157.696 84.992 157.696 101.888C157.696 109.568 155.136 116.736 150.528 121.856C160.256 127.488 166.4 137.728 166.4 148.992C166.4 166.4 152.064 180.224 135.168 180.224H99.8401C95.7441 180.224 92.1601 176.64 92.1601 172.544V78.336ZM212.992 307.2C153.6 300.544 137.728 327.68 118.272 361.984C115.712 367.104 112.64 371.712 109.568 377.344C98.8161 394.752 80.3841 404.48 65.5361 399.872C50.1761 395.776 40.9601 377.344 40.9601 350.208V242.176C40.9601 225.28 43.5201 208.896 48.6401 193.024C67.0721 215.552 95.7441 230.4 127.488 230.4C183.808 230.4 229.376 184.832 229.376 128.512C229.376 110.592 224.768 93.696 216.576 78.848H270.336C282.112 78.848 288.768 83.456 292.352 93.696C299.52 115.712 292.864 142.336 286.208 168.448C277.504 203.264 268.288 238.592 290.304 267.776C281.088 282.624 262.144 312.832 212.992 307.2ZM316.416 386.56C314.368 388.096 313.344 390.144 313.344 392.704V469.504H286.72V392.704C286.72 391.168 286.208 389.12 285.184 387.584L230.912 323.072C242.176 322.56 251.904 320 260.096 316.416L295.936 359.424C297.472 360.96 299.008 361.984 301.056 361.984H301.568C303.616 361.984 305.152 361.472 306.688 359.936C331.264 338.432 345.6 307.2 348.672 266.752C358.4 264.192 367.616 260.608 375.808 256.512C374.272 314.88 354.304 358.4 316.416 386.56ZM376.32 154.112C364.032 154.112 353.792 143.872 353.792 131.584C353.792 119.296 364.032 109.056 376.32 109.056C388.608 109.056 398.848 119.296 398.848 131.584C398.848 143.872 388.608 154.112 376.32 154.112Z" fill="#0055CC"/>
<path d="M151.552 149.504C151.552 140.8 144.384 133.632 135.68 133.632H126.976H107.52V165.888H135.168C143.872 165.376 151.552 158.208 151.552 149.504Z" fill="#0055CC"/>
<path d="M149.504 260.608C145.408 260.608 141.824 264.192 141.824 268.288C141.824 272.384 145.408 275.968 149.504 275.968C153.6 275.968 157.184 272.384 157.184 268.288C157.184 263.68 153.6 260.608 149.504 260.608Z" fill="#0055CC"/>
<path d="M235.008 231.424C230.912 231.424 227.328 235.008 227.328 239.104C227.328 243.2 230.912 246.784 235.008 246.784C239.104 246.784 242.688 243.2 242.688 239.104C242.688 235.008 239.616 231.424 235.008 231.424Z" fill="#0055CC"/>
<path d="M214.528 264.704C210.432 264.704 206.848 268.288 206.848 272.384C206.848 276.48 210.432 280.064 214.528 280.064C218.624 280.064 222.208 276.48 222.208 272.384C222.208 268.288 219.136 264.704 214.528 264.704Z" fill="#0055CC"/>
<path d="M92.6719 265.728C76.2879 265.728 62.4639 279.04 62.4639 295.936C62.4639 312.832 75.7759 326.144 92.6719 326.144C109.568 326.144 122.88 312.832 122.88 295.936C122.88 279.04 109.056 265.728 92.6719 265.728ZM92.6719 310.784C84.4799 310.784 77.8239 304.128 77.8239 295.936C77.8239 287.744 84.4799 281.088 92.6719 281.088C100.864 281.088 107.52 287.744 107.52 295.936C107.52 304.128 100.864 310.784 92.6719 310.784Z" fill="#0055CC"/>
</svg>
