<svg width="512" height="512" viewBox="0 0 512 512" fill="none" xmlns="http://www.w3.org/2000/svg">
<path d="M127.488 94.72L113.664 126.976H140.8L127.488 94.72Z" fill="#0055CC"/>
<path d="M479.744 84.992C470.528 71.168 452.608 64 427.52 64H327.168C312.832 64 304.128 69.12 298.496 75.776C291.84 68.096 282.112 64 269.312 64H205.312C186.88 40.96 158.72 26.624 127.488 26.624C71.1676 26.624 25.5996 72.704 25.5996 128.512C25.5996 145.92 30.2076 162.816 37.8876 177.152C29.6956 198.144 25.5996 219.648 25.5996 242.176V350.208C25.5996 399.36 50.6876 411.648 60.9276 414.72C64.5116 415.744 68.6076 416.256 72.1916 416.256C90.6236 416.256 110.08 404.48 121.856 385.024C124.928 379.392 128 374.272 131.072 369.664C150.528 335.872 161.28 316.928 209.92 322.56L271.36 395.776V477.184C271.36 481.28 274.944 484.864 279.04 484.864H321.024C325.12 484.864 328.704 481.28 328.704 477.184V396.8C370.176 364.032 391.168 314.368 391.68 248.832C435.2 221.696 462.848 177.152 479.744 137.216C488.448 115.712 488.448 98.304 479.744 84.992ZM353.792 171.52C357.888 171.52 361.472 175.104 361.472 179.2C361.472 183.296 357.888 186.88 353.792 186.88C349.696 186.88 346.112 183.296 346.112 179.2C346.112 174.592 349.696 171.52 353.792 171.52ZM303.616 274.432C313.856 274.432 324.096 272.896 333.312 271.36C330.24 302.08 320 326.144 302.592 343.552L273.92 308.736C289.792 297.984 298.496 283.136 303.616 274.432ZM81.9196 161.792L120.32 72.704C121.344 70.144 124.416 68.096 127.488 68.096C130.56 68.096 133.12 70.144 134.656 72.704L173.056 161.792C174.592 165.888 173.056 169.984 168.96 172.032C167.936 172.544 166.912 172.544 165.888 172.544C162.816 172.544 160.256 171.008 158.72 167.936L147.456 142.336H107.008L95.7436 167.936C94.2076 172.032 89.5996 173.568 85.5036 172.032C81.9196 169.984 80.3836 165.376 81.9196 161.792ZM212.992 307.2C153.6 300.544 137.728 327.68 118.272 361.984C115.712 367.104 112.64 371.712 109.568 377.344C98.8156 394.752 80.3836 404.48 65.5356 399.872C50.1756 395.776 40.9596 377.344 40.9596 350.208V242.176C40.9596 225.28 43.5196 208.896 48.6396 193.024C67.0716 215.552 95.7436 230.4 127.488 230.4C183.808 230.4 229.376 184.832 229.376 128.512C229.376 110.592 224.768 93.696 216.576 78.848H270.336C282.112 78.848 288.768 83.456 292.352 93.696C299.52 115.712 292.864 142.336 286.208 168.448C277.504 203.264 268.288 238.592 290.304 267.776C281.088 282.624 262.144 312.832 212.992 307.2ZM316.416 386.56C314.368 388.096 313.344 390.144 313.344 392.704V469.504H286.72V392.704C286.72 391.168 286.208 389.12 285.184 387.584L230.912 323.072C242.176 322.56 251.904 320 260.096 316.416L295.936 359.424C297.472 360.96 299.008 361.984 301.056 361.984H301.568C303.616 361.984 305.152 361.472 306.688 359.936C331.264 338.432 345.6 307.2 348.672 266.752C358.4 264.192 367.616 260.608 375.808 256.512C374.272 314.88 354.304 358.4 316.416 386.56ZM376.32 154.112C364.032 154.112 353.792 143.872 353.792 131.584C353.792 119.296 364.032 109.056 376.32 109.056C388.608 109.056 398.848 119.296 398.848 131.584C398.848 143.872 388.608 154.112 376.32 154.112Z" fill="#0055CC"/>
<path d="M149.503 260.608C145.407 260.608 141.823 264.192 141.823 268.288C141.823 272.384 145.407 275.968 149.503 275.968C153.599 275.968 157.183 272.384 157.183 268.288C157.183 263.68 153.599 260.608 149.503 260.608Z" fill="#0055CC"/>
<path d="M235.007 231.424C230.911 231.424 227.327 235.008 227.327 239.104C227.327 243.2 230.911 246.784 235.007 246.784C239.103 246.784 242.687 243.2 242.687 239.104C242.687 235.008 239.615 231.424 235.007 231.424Z" fill="#0055CC"/>
<path d="M214.528 264.704C210.432 264.704 206.848 268.288 206.848 272.384C206.848 276.48 210.432 280.064 214.528 280.064C218.624 280.064 222.208 276.48 222.208 272.384C222.208 268.288 219.136 264.704 214.528 264.704Z" fill="#0055CC"/>
<path d="M92.6719 265.728C76.2879 265.728 62.4639 279.04 62.4639 295.936C62.4639 312.832 75.7759 326.144 92.6719 326.144C109.568 326.144 122.88 312.832 122.88 295.936C122.88 279.04 109.056 265.728 92.6719 265.728ZM92.6719 310.784C84.4799 310.784 77.8239 304.128 77.8239 295.936C77.8239 287.744 84.4799 281.088 92.6719 281.088C100.864 281.088 107.52 287.744 107.52 295.936C107.52 304.128 100.864 310.784 92.6719 310.784Z" fill="#0055CC"/>
</svg>
