<svg width="512" height="512" viewBox="0 0 512 512" fill="none" xmlns="http://www.w3.org/2000/svg">
<g clip-path="url(#clip0_20_571)">
<path fill-rule="evenodd" clip-rule="evenodd" d="M292.004 6.25398C291.236 3.95198 289.585 2.04998 287.414 0.965977C285.243 -0.118023 282.73 -0.294023 280.429 0.475977C262.38 7.39598 246.881 19.673 236.013 35.658C234.221 38.009 231.435 39.389 228.479 39.389C225.523 39.389 222.737 38.009 220.945 35.658C210.065 19.685 194.56 7.42198 176.511 0.512977C175.582 0.187977 174.606 0.0149766 173.622 0.000976562C169.727 0.00697656 166.273 2.50898 165.055 6.20898C163.458 10.986 165.996 16.16 170.751 17.82C200.825 29.684 220.249 59.112 219.336 91.429V173.715C219.336 178.764 223.429 182.858 228.479 182.858C233.528 182.858 237.622 178.765 237.622 173.715V91.429C236.808 59.153 256.185 29.786 286.18 17.838C290.979 16.238 293.585 11.062 292.013 6.25398H292.004Z" fill="#0055CC"/>
<path fill-rule="evenodd" clip-rule="evenodd" d="M261.731 116.818L255.907 122.642V173.714C255.859 185.296 248.541 195.6 237.621 199.46V262.546C268.784 223.746 315.856 201.165 365.621 201.143C366.042 201.143 366.444 201.198 366.855 201.207L407.166 168.028C413.693 162.642 416.769 154.128 415.191 145.814C413.613 137.5 407.633 130.704 399.586 128.083C357.675 114.14 301.218 110.776 278.9 109.98C272.475 109.766 266.252 112.245 261.731 116.818Z" fill="#0055CC"/>
<path fill-rule="evenodd" clip-rule="evenodd" d="M367.249 365.87C366.832 365.846 366.416 365.794 366.006 365.715C359.243 365.675 352.979 369.271 349.604 375.132C345.98 381.729 346.752 389.869 351.551 395.667C351.835 396.032 352.14 396.381 352.465 396.709C356.033 400.383 360.988 402.376 366.106 402.195C367.334 391.351 372.848 381.448 381.42 374.693C378.385 369.649 373.115 366.367 367.249 365.87Z" fill="#0055CC"/>
<path fill-rule="evenodd" clip-rule="evenodd" d="M331.071 372.169C326.875 368.037 321.225 365.719 315.336 365.714C313.439 365.697 311.549 365.949 309.722 366.464C301.046 368.556 294.382 375.506 292.655 384.262C290.928 393.018 294.456 401.978 301.687 407.207C308.918 412.436 318.533 412.978 326.306 408.595C329.246 406.919 331.766 404.596 333.675 401.802C330.617 396.369 329.022 390.235 329.049 384.001C329.072 379.972 329.754 375.976 331.071 372.169Z" fill="#0055CC"/>
<path fill-rule="evenodd" clip-rule="evenodd" d="M365.623 420.571C358.923 420.51 352.367 418.612 346.67 415.085C344.56 417.617 342.146 419.88 339.484 421.823C338.666 423.858 338.238 426.029 338.222 428.223C338.237 438.568 346.62 446.951 356.965 446.966C358.851 446.989 360.727 446.679 362.506 446.052C365.03 445.312 367.356 444.019 369.317 442.267C372.171 439.764 374.188 436.445 375.095 432.758C372.069 429.088 369.708 424.917 368.119 420.433C367.305 420.571 366.473 420.571 365.623 420.571Z" fill="#0055CC"/>
<path d="M406.765 429.714C419.389 429.714 429.622 419.481 429.622 406.857C429.622 394.233 419.389 384 406.765 384C394.142 384 383.908 394.233 383.908 406.857C383.908 419.481 394.142 429.714 406.765 429.714Z" fill="#0055CC"/>
<path fill-rule="evenodd" clip-rule="evenodd" d="M315.337 347.429C324.831 347.431 334.027 350.745 341.339 356.8C345.799 352.825 351.163 350.001 356.964 348.571C356.696 346.677 356.535 344.769 356.479 342.857C356.469 335.965 357.901 329.148 360.685 322.843C357.091 317.55 351.767 313.671 345.627 311.872C343.209 311.187 340.707 310.846 338.194 310.857C323.046 310.857 310.765 323.137 310.765 338.286C310.776 341.473 311.348 344.633 312.456 347.621C313.417 347.547 314.359 347.429 315.337 347.429Z" fill="#0055CC"/>
<path d="M19.1072 345.234C24.5032 357.266 34.7832 366.418 47.3582 370.386C59.7942 374.298 73.3092 372.697 84.4872 365.988L147.573 329.298L123.518 308.653C115.552 301.815 109.025 293.461 104.318 284.077L96.0892 267.693C88.9032 253.298 76.2932 242.347 61.0332 237.249C45.7732 232.151 29.1132 233.325 14.7182 240.511L0.473229 247.633C-1.60077 281.216 4.80723 314.779 19.1072 345.234ZM100.479 310.857C105.528 310.857 109.622 314.95 109.622 320C109.622 325.049 105.529 329.143 100.479 329.143C95.4302 329.143 91.3362 325.05 91.3362 320C91.3362 314.951 95.4292 310.857 100.479 310.857ZM73.0502 356.571C68.0012 356.571 63.9072 352.478 63.9072 347.428C63.9072 342.378 68.0002 338.285 73.0502 338.285C78.0992 338.285 82.1932 342.378 82.1932 347.428C82.1932 352.478 78.1002 356.571 73.0502 356.571ZM73.6082 283.429C78.6422 283.745 82.4692 288.078 82.1612 293.113C81.8532 298.147 77.5252 301.981 72.4902 301.681C67.4552 301.38 63.6152 297.059 63.9072 292.024C64.0482 289.596 65.1512 287.324 66.9712 285.711C68.7922 284.097 71.1812 283.276 73.6082 283.429ZM54.7652 256C59.8142 256 63.9082 260.093 63.9082 265.143C63.9082 270.192 59.8152 274.286 54.7652 274.286C49.7152 274.286 45.6222 270.193 45.6222 265.143C45.6222 260.093 49.7152 256 54.7652 256ZM45.6222 320C50.6712 320 54.7652 324.093 54.7652 329.143C54.7652 334.192 50.6722 338.286 45.6222 338.286C40.5722 338.286 36.4792 334.193 36.4792 329.143C36.4792 324.093 40.5722 320 45.6222 320ZM36.4792 301.714C36.4792 306.763 32.3862 310.857 27.3362 310.857C22.2862 310.857 18.1932 306.764 18.1932 301.714C18.1932 296.665 22.2862 292.571 27.3362 292.571C32.3862 292.571 36.4792 296.665 36.4792 301.714ZM18.1932 256C23.2422 256 27.3362 260.093 27.3362 265.143C27.3362 270.192 23.2432 274.286 18.1932 274.286C13.1432 274.286 9.05023 270.193 9.05023 265.143C9.05023 260.093 13.1442 256 18.1932 256Z" fill="#0055CC"/>
<path fill-rule="evenodd" clip-rule="evenodd" d="M383.706 298.304C383.706 297.902 383.907 297.536 383.907 297.143C383.611 289.895 377.722 284.132 370.47 283.991C363.218 283.85 357.11 289.382 356.534 296.612C362.176 299.108 367.262 302.708 371.492 307.199C375.09 303.635 379.209 300.635 383.706 298.304Z" fill="#0055CC"/>
<path fill-rule="evenodd" clip-rule="evenodd" d="M406.765 310.857C402.778 310.853 398.827 311.6 395.117 313.06C389.023 315.444 383.797 319.624 380.132 325.046C379.799 325.55 379.494 326.072 379.218 326.609C376.273 331.514 374.733 337.135 374.765 342.856C374.776 344.862 374.969 346.864 375.341 348.835C384.952 351.517 393.065 357.984 397.823 366.755C400.757 366.082 403.755 365.732 406.765 365.713C412.779 365.744 418.711 367.105 424.136 369.699C433.328 363.885 438.861 353.732 438.765 342.856C438.765 325.184 424.438 310.857 406.765 310.857Z" fill="#0055CC"/>
<path d="M17.7094 181.943C11.2194 195.916 6.41639 210.611 3.40039 225.719L6.51839 224.165C25.2524 214.809 46.9354 213.28 66.7964 219.914C86.6574 226.548 103.069 240.802 112.419 259.538L120.648 275.867C124.273 283.095 129.302 289.529 135.441 294.793L164.369 319.588L208.255 294.089C215.143 289.866 219.341 282.365 219.336 274.286V199.461C208.416 195.6 201.098 185.297 201.05 173.715V104.604C191.377 96.098 178.932 91.413 166.051 91.429C102.307 91.429 42.7144 127.799 17.7094 181.943ZM166.051 109.714C171.1 109.714 175.194 113.807 175.194 118.857C175.194 123.907 171.101 128 166.051 128C122.761 127.75 82.1764 149.024 57.7544 184.768C56.0714 187.399 53.1614 188.988 50.0374 188.983C48.2964 188.988 46.5914 188.489 45.1274 187.548C40.8864 184.817 39.6594 179.166 42.3844 174.922C69.9654 133.712 116.468 109.192 166.051 109.714Z" fill="#0055CC"/>
<path d="M365.622 219.429C284.831 219.429 219.336 284.923 219.336 365.715C219.336 446.507 284.83 512 365.622 512C446.414 512 511.908 446.506 511.908 365.714C511.812 284.963 446.373 219.524 365.622 219.429ZM484.479 374.857H445.485C443.492 377.256 441.279 379.462 438.875 381.449C448.664 393.451 450.674 410.014 444.041 424.009L451.145 429.714H466.194C471.243 429.714 475.337 433.807 475.337 438.857C475.337 443.906 471.244 448 466.194 448H457.051V457.143C457.051 462.192 452.958 466.286 447.908 466.286C442.859 466.286 438.765 462.193 438.765 457.143V443.237L432.786 438.446C420.936 448.474 404.387 450.82 390.217 444.48C388.085 448.849 385.104 452.749 381.449 455.954C379.402 457.773 377.15 459.347 374.738 460.644V484.571C374.738 489.62 370.645 493.714 365.595 493.714C360.546 493.714 356.452 489.621 356.452 484.571V465.234C336.692 464.946 320.65 449.174 320.027 429.421C318.471 429.609 316.904 429.707 315.337 429.714C313.566 429.649 311.801 429.472 310.052 429.184L292.479 443.246V457.143C292.479 462.192 288.386 466.286 283.336 466.286C278.287 466.286 274.193 462.193 274.193 457.143V448H265.05C260.001 448 255.907 443.907 255.907 438.857C255.907 433.808 260 429.714 265.05 429.714H280.127L290.66 421.284C276.253 410.599 270.532 391.746 276.571 374.857H246.765C241.716 374.857 237.622 370.764 237.622 365.714C237.622 360.665 241.715 356.571 246.765 356.571H289.736C291.403 355.236 293.173 354.034 295.03 352.978C290.727 340.856 291.949 327.458 298.376 316.315L280.127 301.714H265.05C260.001 301.714 255.907 297.621 255.907 292.571C255.907 287.521 260 283.428 265.05 283.428H274.193V274.285C274.193 269.236 278.286 265.142 283.336 265.142C288.385 265.142 292.479 269.235 292.479 274.285V288.182L310.216 302.399C318.174 296.075 328.029 292.613 338.193 292.57H338.65C340.18 282.028 346.867 272.944 356.479 268.351V246.856C356.479 241.807 360.572 237.713 365.622 237.713C370.671 237.713 374.765 241.806 374.765 246.856V265.608C388.901 267.661 399.943 278.871 401.782 293.037C403.437 292.872 405.083 292.571 406.765 292.571C413.956 292.577 421.06 294.136 427.592 297.142L438.765 288.182V274.285C438.765 269.236 442.858 265.142 447.908 265.142C452.957 265.142 457.051 269.235 457.051 274.285V283.428H466.194C471.243 283.428 475.337 287.521 475.337 292.571C475.337 297.621 471.244 301.714 466.194 301.714H451.145L443.081 308.169C455.452 320.994 460.036 339.448 455.104 356.571H484.48C489.529 356.571 493.623 360.664 493.623 365.714C493.622 370.764 489.528 374.857 484.479 374.857Z" fill="#0055CC"/>
</g>
<defs>
<clipPath id="clip0_20_571">
<rect width="512" height="512" fill="white"/>
</clipPath>
</defs>
</svg>
