<svg width="512" height="512" viewBox="0 0 512 512" fill="none" xmlns="http://www.w3.org/2000/svg">
<path d="M330.667 298.667C334.973 298.667 338.857 296.078 340.514 292.103L367.18 228.103C369.446 222.665 366.874 216.419 361.436 214.154C355.998 211.888 349.753 214.46 347.488 219.898L330.667 260.267L313.847 219.898C311.581 214.46 305.336 211.888 299.898 214.154C294.46 216.419 291.889 222.665 294.154 228.103L320.821 292.103C322.477 296.078 326.361 298.667 330.667 298.667Z" fill="#0055CC"/>
<path d="M170.667 224C170.667 218.109 165.892 213.333 160.001 213.333C154.109 213.333 149.334 218.109 149.334 224V288C149.334 293.891 154.109 298.667 160.001 298.667C165.892 298.667 170.667 293.891 170.667 288V266.667H192.001V288C192.001 293.891 196.776 298.667 202.667 298.667C208.559 298.667 213.334 293.891 213.334 288V224C213.334 218.109 208.559 213.333 202.667 213.333C196.776 213.333 192.001 218.109 192.001 224V245.333H170.667V224Z" fill="#0055CC"/>
<path fill-rule="evenodd" clip-rule="evenodd" d="M234.667 213.333C228.775 213.333 224 218.109 224 224V288C224 293.891 228.775 298.667 234.667 298.667C240.558 298.667 245.333 293.891 245.333 288V266.667H261.333C276.061 266.667 288 254.728 288 240C288 225.273 276.061 213.333 261.333 213.333H234.667ZM266.667 240C266.667 242.945 264.278 245.333 261.333 245.333H245.333V234.667H261.333C264.278 234.667 266.667 237.055 266.667 240Z" fill="#0055CC"/>
<path fill-rule="evenodd" clip-rule="evenodd" d="M224 53.3334C224 47.4424 228.776 42.6667 234.667 42.6667H277.334C283.225 42.6667 288 47.4424 288 53.3334C288 59.2244 283.225 64.0001 277.334 64.0001H266.667V96.3499C302.824 98.7299 335.701 113.12 361.343 135.57L384.222 112.692L376.68 105.149C372.513 100.984 372.513 94.2301 376.68 90.0644C380.845 85.8989 387.598 85.8989 391.765 90.0644L421.934 120.235C426.1 124.4 426.1 131.153 421.934 135.32C417.769 139.485 411.015 139.485 406.849 135.32L399.307 127.777L376.429 150.655C398.879 176.299 413.271 209.177 415.65 245.336H448V234.669C448 228.779 452.776 224.002 458.667 224.002C464.558 224.002 469.334 228.779 469.334 234.669V277.336C469.334 283.227 464.558 288.002 458.667 288.002C452.776 288.002 448 283.227 448 277.336V266.669H415.65C413.27 302.826 398.879 335.701 376.429 361.345L399.307 384.223L406.849 376.681C411.016 372.514 417.769 372.514 421.934 376.681C426.101 380.846 426.101 387.6 421.934 391.765L391.765 421.935C387.599 426.1 380.845 426.1 376.68 421.935C372.514 417.77 372.514 411.016 376.68 406.85L384.222 399.308L361.344 376.43C335.701 398.879 302.824 413.271 266.667 415.65V448H277.334C283.225 448 288 452.776 288 458.667C288 464.558 283.225 469.333 277.334 469.333H234.667C228.776 469.333 224 464.558 224 458.667C224 452.776 228.776 448 234.667 448H245.334V415.65C209.176 413.271 176.299 398.879 150.655 376.429L127.777 399.306L135.32 406.848C139.486 411.013 139.486 417.768 135.32 421.933C131.154 426.099 124.4 426.099 120.235 421.933L90.0653 391.763C85.8997 387.598 85.8997 380.844 90.0653 376.678C94.2309 372.513 100.985 372.513 105.15 376.678L112.693 384.221L135.57 361.343C113.121 335.7 98.7308 302.826 96.3504 266.669H64.0003V277.336C64.0003 283.227 59.2246 288.002 53.3337 288.002C47.4427 288.002 42.667 283.227 42.667 277.336V234.669C42.667 228.779 47.4427 224.002 53.3337 224.002C59.2246 224.002 64.0003 228.779 64.0003 234.669V245.336H96.3501C98.7294 209.178 113.12 176.3 135.57 150.656L112.694 127.778L105.151 135.322C100.985 139.487 94.2315 139.487 90.0659 135.322C85.9004 131.155 85.9004 124.402 90.0659 120.236L120.236 90.0663C124.401 85.9008 131.156 85.9008 135.321 90.0663C139.486 94.232 139.486 100.986 135.321 105.151L127.778 112.693L150.655 135.571C176.299 113.121 209.176 98.7299 245.334 96.3499V64.0001H234.667C228.776 64.0001 224 59.2244 224 53.3334ZM361.305 165.778C379.936 187.504 391.961 215.061 394.263 245.336H384C378.109 245.336 373.334 250.112 373.334 256.002C373.334 261.893 378.109 266.669 384 266.669H394.263C391.959 296.942 379.935 324.497 361.306 346.221L354.053 338.968C349.887 334.802 343.133 334.802 338.968 338.968C334.801 343.134 334.801 349.887 338.968 354.053L346.221 361.307C324.496 379.936 296.94 391.96 266.667 394.263V384C266.667 378.109 261.892 373.333 256 373.333C250.109 373.333 245.334 378.109 245.334 384V394.263C215.06 391.96 187.503 379.936 165.778 361.305L173.033 354.051C177.198 349.885 177.198 343.132 173.033 338.966C168.866 334.8 162.113 334.8 157.948 338.966L150.694 346.22C132.064 324.496 120.042 296.941 117.738 266.669H128C133.892 266.669 138.667 261.893 138.667 256.002C138.667 250.112 133.892 245.336 128 245.336H117.738C120.04 215.061 132.063 187.505 150.694 165.779L157.948 173.034C162.113 177.199 168.868 177.199 173.033 173.034C177.198 168.868 177.198 162.114 173.033 157.949L165.78 150.694C187.504 132.064 215.061 120.041 245.334 117.738V128C245.334 133.891 250.109 138.667 256 138.667C261.892 138.667 266.667 133.891 266.667 128V117.738C296.94 120.041 324.495 132.064 346.22 150.693L338.967 157.947C334.801 162.112 334.801 168.866 338.967 173.032C343.132 177.197 349.886 177.197 354.052 173.032L361.305 165.778Z" fill="#0055CC"/>
</svg>
