<svg width="512" height="512" viewBox="0 0 512 512" fill="none" xmlns="http://www.w3.org/2000/svg">
<path d="M31.8396 382.72C31.1068 389.019 31.8803 395.402 34.0964 401.344C36.3126 407.285 39.9081 412.616 44.5869 416.896C49.2658 421.177 54.8943 424.285 61.0092 425.965C67.1241 427.645 73.5505 427.849 79.7596 426.56L130 416.08C149.755 411.876 167.475 401.034 180.211 385.358C192.946 369.682 199.93 350.117 200 329.92V260.96C196.986 262.436 193.675 263.202 190.32 263.2C186.163 263.201 182.089 262.037 178.56 259.84C174.204 257.07 170.929 252.891 169.28 248H160V271.84L176.08 272C178.201 272.011 180.232 272.864 181.725 274.371C183.218 275.879 184.05 277.918 184.04 280.04C184.029 282.162 183.176 284.192 181.668 285.685C180.16 287.178 178.121 288.011 176 288H175.92L160 287.84V305.44C165.337 307.327 169.836 311.041 172.701 315.924C175.565 320.807 176.611 326.546 175.654 332.126C174.697 337.706 171.797 342.768 167.469 346.417C163.14 350.066 157.661 352.067 152 352.067C146.338 352.067 140.859 350.066 136.53 346.417C132.202 342.768 129.303 337.706 128.345 332.126C127.388 326.546 128.434 320.807 131.299 315.924C134.163 311.041 138.662 307.327 144 305.44V264L99.9996 322.72C102.586 326.668 103.975 331.28 104 336C104 340.747 102.592 345.387 99.9549 349.334C97.3177 353.28 93.5694 356.357 89.184 358.173C84.7986 359.99 79.973 360.465 75.3174 359.539C70.6619 358.613 66.3855 356.327 63.029 352.971C59.6726 349.614 57.3868 345.338 56.4608 340.682C55.5347 336.027 56.01 331.201 57.8265 326.816C59.643 322.43 62.7191 318.682 66.6659 316.045C70.6127 313.408 75.2529 312 79.9996 312C82.4209 312.028 84.823 312.433 87.1196 313.2L99.9996 296H79.9996C77.8779 296 75.843 295.157 74.3428 293.657C72.8425 292.157 71.9996 290.122 71.9996 288C71.9996 285.878 72.8425 283.843 74.3428 282.343C75.843 280.843 77.8779 280 79.9996 280H112L136 248H112C111.532 247.97 111.072 247.862 110.64 247.68C108.819 253.071 105.141 257.64 100.264 260.571C95.3859 263.503 89.6254 264.605 84.0101 263.682C78.3948 262.76 73.2901 259.872 69.6068 255.534C65.9236 251.196 63.9016 245.691 63.9016 240C63.9016 234.309 65.9236 228.804 69.6068 224.466C73.2901 220.128 78.3948 217.24 84.0101 216.318C89.6254 215.395 95.3859 216.497 100.264 219.429C105.141 222.36 108.819 226.929 110.64 232.32C111.072 232.138 111.532 232.03 112 232H136.48L118.56 206.96C116.438 207.635 114.226 207.986 112 208C107.253 208 102.613 206.592 98.6659 203.955C94.7191 201.318 91.643 197.57 89.8265 193.184C88.01 188.799 87.5347 183.973 88.4608 179.318C89.3868 174.662 91.6726 170.386 95.029 167.029C98.3855 163.673 102.662 161.387 107.317 160.461C111.973 159.535 116.799 160.01 121.184 161.827C125.569 163.643 129.318 166.72 131.955 170.666C134.592 174.613 136 179.253 136 184C136.014 188.935 134.474 193.749 131.6 197.76L139.84 209.2L163.6 193.36C165.356 192.418 167.401 192.165 169.334 192.652C171.267 193.138 172.949 194.329 174.05 195.991C175.151 197.652 175.592 199.665 175.287 201.635C174.982 203.605 173.952 205.39 172.4 206.64L149.12 222.24L156.08 232H170.08C172.046 227.184 175.681 223.236 180.32 220.88L200 211.04V144C199.981 137.641 197.446 131.547 192.949 127.05C188.452 122.554 182.359 120.019 176 120H169.68C140.309 120.025 111.965 130.807 90.002 150.308C68.0395 169.809 53.9798 196.679 50.4796 225.84L31.8396 382.72ZM144 368C144 365.878 144.842 363.843 146.343 362.343C147.843 360.843 149.878 360 152 360C154.121 360 156.156 360.843 157.656 362.343C159.157 363.843 160 365.878 160 368V376C160 378.122 159.157 380.157 157.656 381.657C156.156 383.157 154.121 384 152 384C149.878 384 147.843 383.157 146.343 381.657C144.842 380.157 144 378.122 144 376V368ZM104 376C104 373.878 104.842 371.843 106.343 370.343C107.843 368.843 109.878 368 112 368C114.121 368 116.156 368.843 117.656 370.343C119.157 371.843 120 373.878 120 376V384C120 386.122 119.157 388.157 117.656 389.657C116.156 391.157 114.121 392 112 392C109.878 392 107.843 391.157 106.343 389.657C104.842 388.157 104 386.122 104 384V376ZM160 160C160 157.878 160.842 155.843 162.343 154.343C163.843 152.843 165.878 152 168 152C170.121 152 172.156 152.843 173.656 154.343C175.157 155.843 176 157.878 176 160V168C176 170.122 175.157 172.157 173.656 173.657C172.156 175.157 170.121 176 168 176C165.878 176 163.843 175.157 162.343 173.657C160.842 172.157 160 170.122 160 168V160ZM63.9996 376H71.9996C74.1213 376 76.1562 376.843 77.6565 378.343C79.1568 379.843 79.9996 381.878 79.9996 384C79.9996 386.122 79.1568 388.157 77.6565 389.657C76.1562 391.157 74.1213 392 71.9996 392H63.9996C61.8779 392 59.843 391.157 58.3428 389.657C56.8425 388.157 55.9996 386.122 55.9996 384C55.9996 381.878 56.8425 379.843 58.3428 378.343C59.843 376.843 61.8779 376 63.9996 376Z" fill="#0055CC"/>
<path d="M152 336C156.418 336 160 332.418 160 328C160 323.582 156.418 320 152 320C147.582 320 144 323.582 144 328C144 332.418 147.582 336 152 336Z" fill="#0055CC"/>
<path d="M112 192C116.418 192 120 188.418 120 184C120 179.582 116.418 176 112 176C107.582 176 104 179.582 104 184C104 188.418 107.582 192 112 192Z" fill="#0055CC"/>
<path d="M468.24 416.16C472.693 411.899 476.09 406.657 478.159 400.852C480.229 395.046 480.914 388.837 480.16 382.72L461.52 225.84C458.019 196.679 443.96 169.809 421.997 150.308C400.035 130.807 371.69 120.025 342.32 120H336C329.64 120.019 323.547 122.554 319.05 127.05C314.553 131.547 312.019 137.641 312 144V211.04L331.68 220.88C336.322 223.256 339.976 227.194 342 232H355.92L362.88 222.24L339.6 206.64C338.047 205.39 337.018 203.605 336.712 201.635C336.407 199.665 336.848 197.652 337.949 195.991C339.05 194.329 340.732 193.138 342.665 192.652C344.598 192.165 346.643 192.418 348.4 193.36L372.16 209.2L380.4 197.76C377.525 193.749 375.985 188.935 376 184C376 179.253 377.407 174.613 380.044 170.666C382.681 166.72 386.43 163.643 390.815 161.827C395.201 160.01 400.026 159.535 404.682 160.461C409.337 161.387 413.614 163.673 416.97 167.029C420.327 170.386 422.612 174.662 423.538 179.318C424.464 183.973 423.989 188.799 422.173 193.184C420.356 197.57 417.28 201.318 413.333 203.955C409.386 206.592 404.746 208 400 208C397.773 207.986 395.561 207.635 393.44 206.96L375.52 232H400C400.459 232.041 400.914 232.121 401.359 232.24C403.197 226.862 406.884 222.311 411.763 219.396C416.642 216.482 422.397 215.393 428.004 216.324C433.61 217.256 438.704 220.147 442.379 224.482C446.053 228.818 448.07 234.317 448.07 240C448.07 245.683 446.053 251.182 442.379 255.518C438.704 259.853 433.61 262.744 428.004 263.676C422.397 264.607 416.642 263.518 411.763 260.604C406.884 257.689 403.197 253.138 401.359 247.76C400.914 247.879 400.459 247.959 400 248H376L400 280H432C434.121 280 436.156 280.843 437.656 282.343C439.157 283.843 440 285.878 440 288C440 290.122 439.157 292.157 437.656 293.657C436.156 295.157 434.121 296 432 296H412L424.88 313.2C427.176 312.433 429.578 312.028 432 312C437.776 311.991 443.361 314.07 447.725 317.854C452.089 321.638 454.938 326.872 455.746 332.592C456.555 338.311 455.269 344.13 452.125 348.976C448.981 353.822 444.192 357.367 438.64 358.96C448.883 380.24 450.795 404.582 444 427.2C453.119 426.455 461.692 422.551 468.24 416.16ZM352 168C352 170.122 351.157 172.157 349.656 173.657C348.156 175.157 346.121 176 344 176C341.878 176 339.843 175.157 338.343 173.657C336.842 172.157 336 170.122 336 168V160C336 157.878 336.842 155.843 338.343 154.343C339.843 152.843 341.878 152 344 152C346.121 152 348.156 152.843 349.656 154.343C351.157 155.843 352 157.878 352 160V168Z" fill="#0055CC"/>
<path d="M352 416C360.836 416 368 408.837 368 400C368 391.163 360.836 384 352 384C343.163 384 336 391.163 336 400C336 408.837 343.163 416 352 416Z" fill="#0055CC"/>
<path d="M352 320C336.178 320 320.71 324.692 307.554 333.482C294.398 342.273 284.145 354.767 278.09 369.385C272.035 384.003 270.45 400.089 273.537 415.607C276.624 431.126 284.243 445.38 295.432 456.569C306.62 467.757 320.874 475.376 336.393 478.463C351.911 481.55 367.997 479.965 382.615 473.91C397.233 467.855 409.727 457.602 418.518 444.446C427.308 431.29 432 415.823 432 400C431.966 378.793 423.527 358.464 408.531 343.469C393.536 328.473 373.207 320.034 352 320ZM408 416C405.204 415.992 402.459 415.248 400.041 413.844C397.623 412.44 395.617 410.424 394.224 408H382.864C382.122 410.864 380.977 413.609 379.464 416.152L387.512 424.2C390.218 423.483 393.066 423.491 395.768 424.222C398.471 424.954 400.933 426.383 402.909 428.367C404.884 430.351 406.303 432.82 407.023 435.525C407.742 438.231 407.737 441.078 407.009 443.782C406.28 446.485 404.853 448.949 402.871 450.926C400.889 452.904 398.422 454.325 395.717 455.047C393.012 455.77 390.165 455.768 387.461 455.042C384.757 454.316 382.292 452.892 380.312 450.912C378.35 448.926 376.942 446.461 376.228 443.762C375.513 441.063 375.518 438.225 376.24 435.528L368.192 427.472C365.636 428.985 362.878 430.128 360 430.864V442.224C363.05 443.985 365.434 446.703 366.782 449.957C368.13 453.211 368.366 456.819 367.455 460.221C366.543 463.624 364.535 466.63 361.74 468.774C358.946 470.918 355.522 472.08 352 472.08C348.478 472.08 345.054 470.918 342.26 468.774C339.466 466.63 337.457 463.624 336.545 460.221C335.634 456.819 335.87 453.211 337.218 449.957C338.566 446.703 340.95 443.985 344 442.224V430.864C341.136 430.121 338.391 428.977 335.848 427.464L327.792 435.52C328.701 438.923 328.462 442.531 327.111 445.785C325.76 449.038 323.374 451.754 320.321 453.513C317.269 455.271 313.722 455.973 310.23 455.51C306.738 455.047 303.497 453.444 301.008 450.951C298.52 448.457 296.924 445.213 296.469 441.72C296.013 438.227 296.722 434.681 298.487 431.632C300.252 428.584 302.974 426.203 306.23 424.859C309.486 423.515 313.095 423.284 316.496 424.2L324.536 416.152C323.023 413.609 321.879 410.864 321.136 408H309.776C308.015 411.05 305.297 413.434 302.043 414.782C298.789 416.13 295.181 416.366 291.779 415.455C288.376 414.543 285.37 412.534 283.226 409.74C281.082 406.946 279.92 403.522 279.92 400C279.92 396.478 281.082 393.054 283.226 390.26C285.37 387.466 288.376 385.457 291.779 384.545C295.181 383.634 298.789 383.87 302.043 385.218C305.297 386.566 308.015 388.95 309.776 392H321.136C321.879 389.136 323.023 386.391 324.536 383.848L316.488 375.8C315.156 376.171 313.782 376.37 312.4 376.392C309.768 376.393 307.177 375.744 304.855 374.503C302.534 373.263 300.555 371.469 299.093 369.28C297.631 367.092 296.731 364.577 296.473 361.957C296.216 359.338 296.609 356.696 297.617 354.264C298.625 351.833 300.217 349.688 302.252 348.019C304.287 346.35 306.703 345.21 309.284 344.698C311.866 344.186 314.534 344.318 317.052 345.084C319.57 345.85 321.861 347.225 323.72 349.088C325.682 351.074 327.09 353.539 327.804 356.238C328.519 358.937 328.514 361.775 327.792 364.472L335.84 372.528C338.386 371.017 341.133 369.875 344 369.136V357.776C340.95 356.015 338.566 353.297 337.218 350.043C335.87 346.789 335.634 343.181 336.545 339.779C337.457 336.376 339.466 333.37 342.26 331.226C345.054 329.082 348.478 327.92 352 327.92C355.522 327.92 358.946 329.082 361.74 331.226C364.535 333.37 366.543 336.376 367.455 339.779C368.366 343.181 368.13 346.789 366.782 350.043C365.434 353.297 363.05 356.015 360 357.776V369.136C362.864 369.879 365.609 371.023 368.152 372.536L376.208 364.48C375.251 361.021 375.466 357.342 376.82 354.018C378.173 350.694 380.59 347.912 383.691 346.106C386.793 344.3 390.405 343.571 393.964 344.034C397.523 344.498 400.829 346.126 403.365 348.666C405.901 351.205 407.525 354.513 407.983 358.073C408.441 361.633 407.707 365.244 405.897 368.343C404.086 371.442 401.301 373.854 397.975 375.203C394.649 376.552 390.97 376.762 387.512 375.8L379.464 383.848C380.977 386.391 382.122 389.136 382.864 392H394.224C395.63 389.565 397.653 387.543 400.089 386.139C402.525 384.734 405.289 383.997 408.101 384C410.913 384.004 413.674 384.748 416.107 386.159C418.539 387.57 420.557 389.596 421.957 392.035C423.357 394.474 424.089 397.239 424.08 400.05C424.071 402.862 423.322 405.622 421.907 408.052C420.491 410.482 418.461 412.496 416.019 413.892C413.578 415.287 410.812 416.014 408 416Z" fill="#0055CC"/>
<path d="M88 248C92.4183 248 96 244.418 96 240C96 235.582 92.4183 232 88 232C83.5817 232 80 235.582 80 240C80 244.418 83.5817 248 88 248Z" fill="#0055CC"/>
<path d="M424 248C428.418 248 432 244.418 432 240C432 235.582 428.418 232 424 232C419.581 232 416 235.582 416 240C416 244.418 419.581 248 424 248Z" fill="#0055CC"/>
<path d="M400 192C404.418 192 408 188.418 408 184C408 179.582 404.418 176 400 176C395.581 176 392 179.582 392 184C392 188.418 395.581 192 400 192Z" fill="#0055CC"/>
<path d="M80 344C84.4183 344 88 340.418 88 336C88 331.582 84.4183 328 80 328C75.5817 328 72 331.582 72 336C72 340.418 75.5817 344 80 344Z" fill="#0055CC"/>
<path d="M440 336C440 333.878 439.157 331.843 437.656 330.343C436.156 328.843 434.121 328 432 328C429.878 328 427.843 328.843 426.343 330.343C424.842 331.843 424 333.878 424 336C424 336.32 424.079 336.56 424.079 336.8C425.999 338.96 427.76 341.2 429.44 343.44C430.247 343.794 431.118 343.985 432 344C434.121 344 436.156 343.157 437.656 341.657C439.157 340.157 440 338.122 440 336Z" fill="#0055CC"/>
<path d="M412 322.72L368 264V304C367.97 304.494 367.862 304.98 367.68 305.44C383.513 308.011 398.433 314.563 411.04 324.48C411.36 323.92 411.68 323.28 412 322.72Z" fill="#0055CC"/>
<path d="M205.359 240.48L252.799 216.8C253.917 216.28 255.136 216.017 256.369 216.03C257.601 216.044 258.814 216.335 259.919 216.88L318.879 246.48C319.85 246.95 320.924 247.167 322.001 247.111C323.077 247.055 324.123 246.728 325.039 246.16C325.985 245.568 326.757 244.736 327.276 243.749C327.795 242.762 328.042 241.654 327.994 240.54C327.945 239.426 327.601 238.344 326.998 237.406C326.395 236.468 325.553 235.707 324.559 235.2L268.399 207.12C267.066 206.472 265.945 205.459 265.166 204.199C264.387 202.938 263.982 201.482 263.999 200V40C263.999 37.8783 263.157 35.8434 261.656 34.3431C260.156 32.8429 258.121 32 255.999 32C253.878 32 251.843 32.8429 250.343 34.3431C248.842 35.8434 247.999 37.8783 247.999 40V200C248.016 201.482 247.612 202.938 246.833 204.199C246.054 205.459 244.932 206.472 243.599 207.12L187.519 235.2C186.46 235.723 185.568 236.532 184.946 237.536C184.324 238.54 183.996 239.699 183.999 240.88C183.987 241.953 184.254 243.011 184.773 243.95C185.291 244.89 186.045 245.679 186.959 246.24C187.876 246.808 188.921 247.135 189.998 247.191C191.075 247.247 192.149 247.03 193.119 246.56L204.159 241.04C204.535 240.806 204.938 240.618 205.359 240.48Z" fill="#0055CC"/>
<path d="M335.92 272L352 271.84V248H342.64C341.673 251.005 340.068 253.766 337.935 256.093C335.801 258.421 333.19 260.259 330.28 261.482C327.37 262.706 324.229 263.285 321.074 263.181C317.918 263.077 314.823 262.292 312 260.88V312.88C324.519 307.02 338.176 303.988 352 304V287.84L336.079 288H336C334.954 288.006 333.917 287.806 332.949 287.412C331.981 287.017 331.1 286.435 330.357 285.699C329.614 284.964 329.023 284.089 328.619 283.124C328.214 282.16 328.004 281.126 328 280.08C327.999 277.964 328.828 275.933 330.309 274.422C331.79 272.912 333.804 272.042 335.92 272Z" fill="#0055CC"/>
<path d="M376 64H385.471C385.741 64.7769 386.053 65.5381 386.408 66.28L379.72 72.976C378.955 73.714 378.346 74.5967 377.927 75.5728C377.507 76.5488 377.287 77.5986 377.277 78.6608C377.268 79.723 377.471 80.7765 377.873 81.7596C378.275 82.7428 378.869 83.636 379.62 84.3872C380.372 85.1383 381.265 85.7323 382.248 86.1346C383.231 86.5368 384.284 86.7392 385.347 86.73C386.409 86.7208 387.459 86.5001 388.435 86.0808C389.411 85.6615 390.294 85.0521 391.032 84.288L397.72 77.592C398.461 77.9464 399.223 78.2589 400 78.528V88C400 90.1217 400.842 92.1566 402.343 93.6569C403.843 95.1571 405.878 96 408 96C410.121 96 412.156 95.1571 413.656 93.6569C415.157 92.1566 416 90.1217 416 88V78.528C416.776 78.2589 417.538 77.9464 418.28 77.592L424.967 84.288C425.705 85.0521 426.588 85.6615 427.564 86.0808C428.54 86.5001 429.59 86.7208 430.652 86.73C431.715 86.7392 432.768 86.5368 433.751 86.1346C434.734 85.7323 435.628 85.1383 436.379 84.3872C437.13 83.636 437.724 82.7428 438.126 81.7596C438.528 80.7765 438.731 79.723 438.722 78.6608C438.712 77.5986 438.492 76.5488 438.072 75.5728C437.653 74.5967 437.044 73.714 436.28 72.976L429.6 66.28C429.951 65.5379 430.261 64.7767 430.528 64H440C442.121 64 444.156 63.1571 445.656 61.6569C447.157 60.1566 448 58.1217 448 56C448 53.8783 447.157 51.8434 445.656 50.3431C444.156 48.8429 442.121 48 440 48H430.528C430.258 47.2231 429.946 46.4619 429.592 45.72L436.28 39.024C437.044 38.286 437.653 37.4033 438.072 36.4272C438.492 35.4512 438.712 34.4014 438.722 33.3392C438.731 32.277 438.528 31.2235 438.126 30.2404C437.724 29.2572 437.13 28.364 436.379 27.6128C435.628 26.8617 434.734 26.2677 433.751 25.8654C432.768 25.4632 431.715 25.2608 430.652 25.27C429.59 25.2792 428.54 25.4999 427.564 25.9192C426.588 26.3385 425.705 26.9479 424.967 27.712L418.28 34.408C417.538 34.0536 416.776 33.7411 416 33.472V24C416 21.8783 415.157 19.8434 413.656 18.3431C412.156 16.8429 410.121 16 408 16C405.878 16 403.843 16.8429 402.343 18.3431C400.842 19.8434 400 21.8783 400 24V33.472C399.223 33.7411 398.461 34.0536 397.72 34.408L391.032 27.712C390.294 26.9479 389.411 26.3385 388.435 25.9192C387.459 25.4999 386.409 25.2792 385.347 25.27C384.284 25.2608 383.231 25.4632 382.248 25.8654C381.265 26.2677 380.372 26.8617 379.62 27.6128C378.869 28.364 378.275 29.2572 377.873 30.2404C377.471 31.2235 377.268 32.277 377.277 33.3392C377.287 34.4014 377.507 35.4512 377.927 36.4272C378.346 37.4033 378.955 38.286 379.72 39.024L386.408 45.72C386.053 46.4619 385.741 47.2231 385.471 48H376C373.878 48 371.843 48.8429 370.343 50.3431C368.842 51.8434 368 53.8783 368 56C368 58.1217 368.842 60.1566 370.343 61.6569C371.843 63.1571 373.878 64 376 64ZM416 56C416 57.5823 415.53 59.129 414.651 60.4446C413.772 61.7602 412.523 62.7855 411.061 63.391C409.599 63.9965 407.991 64.155 406.439 63.8463C404.887 63.5376 403.461 62.7757 402.343 61.6569C401.224 60.538 400.462 59.1126 400.153 57.5607C399.845 56.0089 400.003 54.4003 400.608 52.9385C401.214 51.4767 402.239 50.2273 403.555 49.3482C404.871 48.4692 406.417 48 408 48C410.121 48 412.156 48.8429 413.656 50.3431C415.157 51.8434 416 53.8783 416 56Z" fill="#0055CC"/>
<path d="M72 64H81.472C81.7411 64.7769 82.0536 65.5381 82.408 66.28L75.712 72.976C74.9479 73.714 74.3385 74.5967 73.9192 75.5728C73.4999 76.5488 73.2792 77.5986 73.27 78.6608C73.2608 79.723 73.4632 80.7765 73.8654 81.7596C74.2677 82.7428 74.8617 83.636 75.6128 84.3872C76.364 85.1383 77.2572 85.7323 78.2404 86.1346C79.2235 86.5368 80.277 86.7392 81.3392 86.73C82.4014 86.7208 83.4512 86.5001 84.4272 86.0808C85.4033 85.6615 86.286 85.0521 87.024 84.288L93.72 77.592C94.4619 77.9464 95.2231 78.2589 96 78.528V88C96 90.1217 96.8429 92.1566 98.3431 93.6569C99.8434 95.1571 101.878 96 104 96C106.122 96 108.157 95.1571 109.657 93.6569C111.157 92.1566 112 90.1217 112 88V78.528C112.777 78.2589 113.538 77.9464 114.28 77.592L120.976 84.288C121.714 85.0521 122.597 85.6615 123.573 86.0808C124.549 86.5001 125.599 86.7208 126.661 86.73C127.723 86.7392 128.776 86.5368 129.76 86.1346C130.743 85.7323 131.636 85.1383 132.387 84.3872C133.138 83.636 133.732 82.7428 134.135 81.7596C134.537 80.7765 134.739 79.723 134.73 78.6608C134.721 77.5986 134.5 76.5488 134.081 75.5728C133.662 74.5967 133.052 73.714 132.288 72.976L125.6 66.28C125.952 65.5379 126.262 64.7767 126.528 64H136C138.122 64 140.157 63.1571 141.657 61.6569C143.157 60.1566 144 58.1217 144 56C144 53.8783 143.157 51.8434 141.657 50.3431C140.157 48.8429 138.122 48 136 48H126.528C126.259 47.2231 125.946 46.4619 125.592 45.72L132.288 39.024C133.745 37.5152 134.552 35.4944 134.533 33.3968C134.515 31.2992 133.674 29.2927 132.191 27.8095C130.707 26.3262 128.701 25.4848 126.603 25.4666C124.506 25.4484 122.485 26.2547 120.976 27.712L114.28 34.408C113.538 34.0536 112.777 33.7411 112 33.472V24C112 21.8783 111.157 19.8434 109.657 18.3431C108.157 16.8429 106.122 16 104 16C101.878 16 99.8434 16.8429 98.3431 18.3431C96.8429 19.8434 96 21.8783 96 24V33.472C95.2231 33.7411 94.4619 34.0536 93.72 34.408L87.024 27.712C86.286 26.9479 85.4033 26.3385 84.4272 25.9192C83.4512 25.4999 82.4014 25.2792 81.3392 25.27C80.277 25.2608 79.2235 25.4632 78.2404 25.8654C77.2572 26.2677 76.364 26.8617 75.6128 27.6128C74.8617 28.364 74.2677 29.2572 73.8654 30.2404C73.4632 31.2235 73.2608 32.277 73.27 33.3392C73.2792 34.4014 73.4999 35.4512 73.9192 36.4272C74.3385 37.4033 74.9479 38.286 75.712 39.024L82.408 45.72C82.0536 46.4619 81.7411 47.2231 81.472 48H72C69.8783 48 67.8434 48.8429 66.3431 50.3431C64.8429 51.8434 64 53.8783 64 56C64 58.1217 64.8429 60.1566 66.3431 61.6569C67.8434 63.1571 69.8783 64 72 64ZM112 56C112 57.5823 111.531 59.129 110.652 60.4446C109.773 61.7602 108.523 62.7855 107.061 63.391C105.6 63.9965 103.991 64.155 102.439 63.8463C100.887 63.5376 99.462 62.7757 98.3431 61.6569C97.2243 60.538 96.4624 59.1126 96.1537 57.5607C95.845 56.0089 96.0035 54.4003 96.609 52.9385C97.2145 51.4767 98.2398 50.2273 99.5554 49.3482C100.871 48.4692 102.418 48 104 48C106.122 48 108.157 48.8429 109.657 50.3431C111.157 51.8434 112 53.8783 112 56Z" fill="#0055CC"/>
<path d="M240 448H230.528C230.259 447.223 229.946 446.462 229.592 445.72L236.288 439.024C237.745 437.515 238.552 435.494 238.533 433.397C238.515 431.299 237.674 429.293 236.191 427.809C234.707 426.326 232.701 425.485 230.603 425.467C228.506 425.448 226.485 426.255 224.976 427.712L218.28 434.408C217.538 434.054 216.777 433.741 216 433.472V424C216 421.878 215.157 419.843 213.657 418.343C212.157 416.843 210.122 416 208 416C205.878 416 203.843 416.843 202.343 418.343C200.843 419.843 200 421.878 200 424V433.472C199.223 433.741 198.462 434.054 197.72 434.408L191.024 427.712C189.515 426.255 187.494 425.448 185.397 425.467C183.299 425.485 181.293 426.326 179.809 427.809C178.326 429.293 177.485 431.299 177.467 433.397C177.448 435.494 178.255 437.515 179.712 439.024L186.408 445.72C186.054 446.462 185.741 447.223 185.472 448H176C173.878 448 171.843 448.843 170.343 450.343C168.843 451.843 168 453.878 168 456C168 458.122 168.843 460.157 170.343 461.657C171.843 463.157 173.878 464 176 464H185.472C185.741 464.777 186.054 465.538 186.408 466.28L179.712 472.976C178.948 473.714 178.338 474.597 177.919 475.573C177.5 476.549 177.279 477.599 177.27 478.661C177.261 479.723 177.463 480.776 177.865 481.76C178.268 482.743 178.862 483.636 179.613 484.387C180.364 485.138 181.257 485.732 182.24 486.135C183.224 486.537 184.277 486.739 185.339 486.73C186.401 486.721 187.451 486.5 188.427 486.081C189.403 485.662 190.286 485.052 191.024 484.288L197.72 477.592C198.462 477.946 199.223 478.259 200 478.528V488C200 490.122 200.843 492.157 202.343 493.657C203.843 495.157 205.878 496 208 496C210.122 496 212.157 495.157 213.657 493.657C215.157 492.157 216 490.122 216 488V478.528C216.777 478.259 217.538 477.946 218.28 477.592L224.976 484.288C226.485 485.745 228.506 486.552 230.603 486.533C232.701 486.515 234.707 485.674 236.191 484.191C237.674 482.707 238.515 480.701 238.533 478.603C238.552 476.506 237.745 474.485 236.288 472.976L229.592 466.28C229.946 465.538 230.259 464.777 230.528 464H240C242.122 464 244.157 463.157 245.657 461.657C247.157 460.157 248 458.122 248 456C248 453.878 247.157 451.843 245.657 450.343C244.157 448.843 242.122 448 240 448ZM200 456C200 454.418 200.469 452.871 201.348 451.555C202.227 450.24 203.477 449.214 204.939 448.609C206.4 448.003 208.009 447.845 209.561 448.154C211.113 448.462 212.538 449.224 213.657 450.343C214.776 451.462 215.538 452.887 215.846 454.439C216.155 455.991 215.997 457.6 215.391 459.061C214.786 460.523 213.76 461.773 212.445 462.652C211.129 463.531 209.582 464 208 464C205.878 464 203.843 463.157 202.343 461.657C200.843 460.157 200 458.122 200 456Z" fill="#0055CC"/>
</svg>
