<svg fill="none" height="300" viewBox="0 0 60 60" width="300" xmlns="http://www.w3.org/2000/svg" version="1.1" xmlns:xlink="http://www.w3.org/1999/xlink" xmlns:svgjs="http://svgjs.dev/svgjs"><g width="100%" height="100%" transform="matrix(1,0,0,1,0,0)"><path clip-rule="evenodd" d="m37.3366 6.64521-2.6366-2.19715 1.2804-1.53644 13.146 10.95498-1.2804 1.5365-2.3985-1.9988-4.6122 5.5535 2.0836 1.7364c.6596.5489 1.0813 1.3783 1.0813 2.3057 0 .3506-.0602.6871-.1708 1h7.1708c1.1053 0 2 .8947 2 2v3c0 1.1052-.8947 2-2 2v1.5857l3.1211 3.1211c.5623.5624.8789 1.3256.8789 2.1212v17.172c0 1.663-1.3533 3.0109-3.0194 3h-27.9806v-2h8.1708c-.1106-.3128-.1708-.6494-.1708-1v-17.172c0-.7956.3166-1.5588.8789-2.1212l3.1211-3.1211v-1.5857c-.7334 0-1.3741-.394-1.7222-.9821l-13.2062 15.8985c-.9347 1.1267-2.5203 1.3937-3.7548.7117l-4.0511.3609c-.4062.0358-.8004-.0108-1.1649-.1257l-8.75215 10.5173-1.53733-1.2793 8.68918-10.4417c-.3155-.4738-.5005-1.0435-.5005-1.6596v-3.4007c-1.19853-1.0703-1.3436-2.907-.30795-4.1526l17.50745-21.0426-.1182-.0985c-.6596-.5489-1.0813-1.3783-1.0813-2.3056 0-1.6563 1.3437-3.00005 3-3.00005.7278 0 1.3996.26115 1.9192.69475.0002.0002.0006.0005.0009.0008l1.7993 1.4994zm1.5364 1.28037-4.6169 5.54962 5.0427 4.2023 4.6123-5.5535zm-10.1368 8.75882-2.8972 3.4822 4.4394 3.7001-1.2804 1.5363-4.4382-3.699-1.4234 1.7108 4.029 3.3579-1.2804 1.5363-4.0278-3.3567-1.4234 1.7109 4.7556 3.9635-1.2804 1.5363-4.7544-3.9624-1.4231 1.7105 3.6 3.0006-1.2806 1.5363-3.5985-2.9995-1.4234 1.7108 4.4114 3.6763-1.2804 1.5365-4.4102-3.6753-2.5196 3.0284c-.0001 0 0-.0001 0 0-.3515.423-.2943 1.053.1298 1.4061l6.7643 5.6363c.4234.3535 1.0559.2965 1.4083-.1282l17.487-21.0522zm9.8198 8.1832-2.5558 3.0769v1.0554h15v-3h-10c-.7272 0-1.4009-.2609-1.9207-.6961-.0001-.0001.0002.0001 0 0zm2.4442-.8677c.5517 0 1-.4483 1-1 0-.3086-.1383-.5833-.3607-.7684l-12.0014-10.0012c-.1723-.1439-.3941-.2304-.6379-.2304-.5517 0-1 .4482-1 1 0 .3086.1383.5832.3607.7683l12.0025 10.0021c.1701.1425.3923.2296.6368.2296zm-29 18.2681v1.7319c0 .5861.5038 1.0478 1.0883.9969m0 0 1.9754-.176-3.0637-2.5528m26-11.2681v2.4142l-3.5858 3.5858h13.5858c1.1053 0 2 .8947 2 2v11c0 1.1052-.8947 2-2 2h-14v3c0 .5478.4415.9936.9887 1h17.0034c.5557.0044 1.0079-.4447 1.0079-1v-17.172c0-.2645-.1054-.5193-.2931-.7069l-3.7069-3.7069v-2.4142zm-4 19h14v-11h-14zm-22-46.00006v4h-2v-4zm-6.00001 5h3v1.99996h-3zm10.00001 1.99996h-3v-1.99996h3zm-4 1.0001v4h-2v-4zm33 29v2h-8v-2zm-2 6h-5v-2h5zm-21 11h-2v-2h2z" fill="#0055cc" fill-rule="evenodd" fill-opacity="1" data-original-color="#000000ff" stroke="none" stroke-opacity="1"/></g></svg>