<svg width="512" height="512" viewBox="0 0 512 512" fill="none" xmlns="http://www.w3.org/2000/svg">
<path d="M155.458 270.039H139.675V294.607H155.458C162.225 294.607 167.73 289.097 167.73 282.323C167.73 275.549 162.224 270.039 155.458 270.039Z" fill="#0055CC"/>
<path d="M165.73 228.679C165.73 222.415 160.64 217.32 154.382 217.32H139.674V240.039H154.382C160.64 240.039 165.73 234.943 165.73 228.679Z" fill="#0055CC"/>
<path d="M433.631 149.302C385.938 123.12 322.854 108.701 256 108.701C189.146 108.701 126.062 123.12 78.369 149.302C27.832 177.044 0 214.938 0 256C0 297.063 27.832 334.956 78.369 362.699C126.062 388.88 189.146 403.299 256 403.299C322.854 403.299 385.938 388.88 433.631 362.699C484.168 334.956 512 297.063 512 256C512 214.938 484.168 177.044 433.631 149.302ZM155.458 324.606H124.675C116.391 324.606 109.675 317.89 109.675 309.606V202.268C109.675 193.984 116.391 187.268 124.675 187.268C125.1 187.268 125.52 187.286 125.936 187.32H154.383C177.182 187.32 195.731 205.874 195.731 228.679C195.731 238.274 192.448 247.116 186.946 254.14C193.649 261.625 197.73 271.505 197.73 282.322C197.729 305.638 178.766 324.606 155.458 324.606ZM270.066 309.606C270.066 317.89 263.35 324.606 255.066 324.606C246.782 324.606 240.066 317.89 240.066 309.606V217.267H236.981C228.697 217.267 221.981 210.551 221.981 202.267C221.981 193.983 228.697 187.267 236.981 187.267H255.066C263.35 187.267 270.066 193.983 270.066 202.267V309.606ZM388.325 294.733C396.609 294.733 403.325 301.449 403.325 309.733C403.325 318.017 396.609 324.733 388.325 324.733H323.406C319.363 324.733 315.491 323.101 312.669 320.207C309.846 317.313 308.311 313.402 308.411 309.361C308.94 288.04 318.033 260.837 358.343 252.321C363.901 251.123 373.326 247.456 373.326 236.509C373.326 225.992 364.777 217.436 354.268 217.436H353.982C346.004 217.436 341.56 223.318 340.062 228.823C337.886 236.816 329.64 241.533 321.649 239.356C313.655 237.18 308.94 228.936 311.116 220.943C316.572 200.901 333.799 187.436 353.983 187.436H354.269C381.319 187.436 403.327 209.45 403.327 236.509C403.327 258.866 388.128 276.589 364.606 281.661C354.434 283.81 346.48 287.188 342.112 294.734H388.325V294.733Z" fill="#0055CC"/>
</svg>
