<svg width="512" height="512" viewBox="0 0 512 512" fill="none" xmlns="http://www.w3.org/2000/svg">
<path fill-rule="evenodd" clip-rule="evenodd" d="M126 512C124 512 121 510 120 508C102 470 88.9999 405 85.9999 337C82.9999 264 90.9999 197 110 155C119 135 126 121 132 111C147 82 152 73 152 7C152 3 155 0 159 0C163 0 166 3 166 7C166 76 160 87 144 117C139 128 132 141 123 161C84.9999 246 95.9999 425 133 502C134 505 133 509 129 511C128 512 127 512 126 512Z" fill="#0055CC"/>
<path fill-rule="evenodd" clip-rule="evenodd" d="M386 512C385 512 384 512 383 511C379 509 378 505 379 502C416 425 427 246 389 161C380 141 373 128 368 117C352 87 346 76 346 7C346 3 349 0 353 0C357 0 360 3 360 7C360 73 365 82 380 111C386 121 393 135 402 155C421 197 429 264 426 337C423 405 410 470 392 508C391 510 388 512 386 512Z" fill="#0055CC"/>
<path fill-rule="evenodd" clip-rule="evenodd" d="M256 211C200 211 147 203 106 187C102 185 99.9999 181 102 178C103 174 107 172 111 174C150 189 202 197 256 197C310 197 362 189 401 174C405 172 409 174 410 178C412 181 410 185 406 187C365 203 312 211 256 211Z" fill="#0055CC"/>
<path fill-rule="evenodd" clip-rule="evenodd" d="M256 327C229 327 207 305 207 278C207 250 229 228 256 228C283 228 305 250 305 278C305 305 283 327 256 327ZM256 242C237 242 221 258 221 278C221 297 237 313 256 313C275 313 291 297 291 278C291 258 275 242 256 242Z" fill="#0055CC"/>
<path fill-rule="evenodd" clip-rule="evenodd" d="M256 302C243 302 232 291 232 278C232 264 243 253 256 253C269 253 280 264 280 278C280 291 269 302 256 302ZM256 267C250 267 246 272 246 278C246 283 250 288 256 288C262 288 266 283 266 278C266 272 262 267 256 267Z" fill="#0055CC"/>
<path fill-rule="evenodd" clip-rule="evenodd" d="M237 167C235 167 232 166 231 163L201 113C199 111 199 109 201 106C202 104 204 103 206 103L232 101L208 63C206 60 207 56 210 54C213 52 217 53 220 56L250 104C251 106 251 109 250 111C249 113 247 114 244 115L219 116L243 156C245 159 244 164 241 166C239 166 238 167 237 167Z" fill="#0055CC"/>
<path fill-rule="evenodd" clip-rule="evenodd" d="M195 184C194 184 192 183 191 182L163 161C161 159 160 157 161 154C161 151 164 149 166 149L179 146L164 136C161 133 160 129 162 126C164 123 169 122 172 124L200 144C202 145 204 148 203 151C202 154 200 156 198 156L184 159L200 171C203 174 203 178 201 181C200 183 197 184 195 184Z" fill="#0055CC"/>
<path fill-rule="evenodd" clip-rule="evenodd" d="M337 166C335 166 333 165 331 162L301 112C300 110 300 108 301 105C302 103 304 102 307 102L332 100L308 62C306 59 307 55 310 53C313 51 318 52 320 55L350 103C352 105 352 108 351 110C349 112 347 113 345 114L319 115L343 155C345 158 344 163 341 165C340 165 338 166 337 166Z" fill="#0055CC"/>
<path fill-rule="evenodd" clip-rule="evenodd" d="M296 183C294 183 293 182 291 181L264 160C261 158 260 156 261 153C262 150 264 148 266 148L279 145L264 135C261 132 260 128 262 125C265 122 269 121 272 123L300 143C303 144 304 147 303 150C303 153 301 155 298 155L284 158L300 170C303 173 304 177 301 180C300 182 298 183 296 183Z" fill="#0055CC"/>
<path fill-rule="evenodd" clip-rule="evenodd" d="M256 451C252 451 249 448 249 444C249 362 182 295 100 295H93C89 295 86 291 86 288C86 284 89 281 93 281H100C143 281 184 298 215 329C246 359 263 400 263 444C263 448 260 451 256 451Z" fill="#0055CC"/>
<path fill-rule="evenodd" clip-rule="evenodd" d="M256 451C252 451 249 448 249 444C249 442 249 440 249 438C251 396 268 356 299 327C330 297 370 281 412 281H419C423 281 426 284 426 288C426 291 423 295 419 295H412C333 295 266 359 263 438V444C263 448 260 451 256 451Z" fill="#0055CC"/>
<path fill-rule="evenodd" clip-rule="evenodd" d="M282 365H230C227 365 223 362 223 358C223 354 227 351 230 351H282C285 351 289 354 289 358C289 362 285 365 282 365Z" fill="#0055CC"/>
</svg>
