<svg width="512" height="512" viewBox="0 0 512 512" fill="none" xmlns="http://www.w3.org/2000/svg">
<path d="M291 83.5C299.271 83.5 306 76.771 306 68.5C306 60.229 299.271 53.5 291 53.5C282.728 53.5 276 60.229 276 68.5C276 76.771 282.728 83.5 291 83.5Z" fill="#0055CC"/>
<path d="M453.924 105.135L441.403 79.3589C433.17 66.7919 420.555 58.1489 405.85 55.0069C391.047 51.8439 375.9 54.6349 363.197 62.8649C350.494 71.0949 341.756 83.7789 338.593 98.5819C335.43 113.384 338.221 128.532 346.451 141.235C346.924 141.965 347.39 142.724 347.85 143.502H326.834C294.025 143.502 267.334 170.193 267.334 203.002V353.502C267.334 356.264 269.572 358.502 272.334 358.502C275.096 358.502 277.334 356.264 277.334 353.502V203C277.334 175.706 299.54 153.5 326.834 153.5H367.334C372.848 153.5 377.334 157.986 377.334 163.5C377.334 169.014 372.848 173.5 367.334 173.5H325.584C310.007 173.5 297.334 186.173 297.334 201.75V353.5C297.334 356.262 299.572 358.5 302.334 358.5C305.096 358.5 307.334 356.262 307.334 353.5V201.75C307.334 191.687 315.52 183.5 325.584 183.5H357.33C356.513 195.07 352.795 206.221 346.45 216.014C338.22 228.717 335.429 243.865 338.592 258.667C341.755 273.469 350.493 286.153 363.196 294.384C375.898 302.614 391.049 305.403 405.849 302.242C420.575 299.096 433.203 290.432 441.437 277.836L451.938 257.576C476.515 210.161 477.256 153.173 453.924 105.135ZM438.422 227.323C437.532 229.039 435.786 230.023 433.979 230.023C433.204 230.023 432.418 229.842 431.682 229.461C429.23 228.191 428.273 225.173 429.543 222.721C443.267 196.243 443.681 164.42 430.65 137.593C429.443 135.109 430.478 132.117 432.963 130.911C435.446 129.704 438.44 130.741 439.645 133.224C454.049 162.878 453.592 198.055 438.422 227.323Z" fill="#0055CC"/>
<path d="M438.066 388.564C437.146 379.797 433.791 371.245 427.997 364.007C428.475 363.778 428.987 363.614 429.52 363.579C431.596 363.439 433.745 365.343 435.19 366.959C437.032 369.016 440.192 369.192 442.251 367.352C444.309 365.51 444.484 362.349 442.644 360.291C438.386 355.534 433.751 353.287 428.873 353.601C425.524 353.819 422.807 355.234 420.796 356.757C413.752 351.038 405.302 347.515 396.287 346.528C396.468 346.018 396.722 345.531 397.087 345.124C398.461 343.591 401.31 343.41 403.463 343.531C406.207 343.673 408.579 341.574 408.733 338.816C408.886 336.059 406.775 333.7 404.018 333.546C397.649 333.189 392.777 334.875 389.549 338.552C387.335 341.073 386.414 343.996 386.07 346.494C377.045 347.432 368.58 350.916 361.508 356.591C361.279 356.114 361.114 355.602 361.08 355.07C360.946 353.003 362.844 350.845 364.46 349.4C366.518 347.558 366.693 344.397 364.853 342.339C363.01 340.281 359.85 340.105 357.792 341.946C353.035 346.203 350.784 350.836 351.102 355.718C351.32 359.067 352.735 361.785 354.258 363.795C348.417 371.007 345.021 379.55 344.054 388.314C343.535 388.133 343.038 387.876 342.624 387.504C341.091 386.13 340.912 383.279 341.031 381.129C341.184 378.372 339.073 376.013 336.316 375.859C333.557 375.706 331.199 377.816 331.046 380.574C330.692 386.947 332.376 391.815 336.052 395.042C338.582 397.264 341.52 398.189 344.024 398.53C344.945 407.295 348.3 415.846 354.093 423.083C353.614 423.311 353.102 423.477 352.57 423.511C350.501 423.665 348.345 421.748 346.9 420.131C345.057 418.073 341.897 417.897 339.84 419.738C337.782 421.58 337.607 424.741 339.447 426.798C343.441 431.261 347.765 433.518 352.316 433.518C352.616 433.518 352.917 433.508 353.218 433.489C356.567 433.271 359.284 431.856 361.295 430.333C368.339 436.052 376.789 439.575 385.804 440.562C385.623 441.072 385.369 441.559 385.004 441.966C383.631 443.498 380.782 443.676 378.629 443.559C375.861 443.412 373.512 445.516 373.36 448.274C373.207 451.031 375.318 453.39 378.075 453.544C378.63 453.575 379.172 453.59 379.704 453.59C385.282 453.59 389.598 451.895 392.544 448.538C394.758 446.017 395.679 443.094 396.022 440.596C405.046 439.658 413.512 436.174 420.584 430.499C420.812 430.977 420.978 431.488 421.012 432.021C421.146 434.088 419.248 436.246 417.632 437.691C415.574 439.533 415.399 442.694 417.239 444.752C418.227 445.855 419.594 446.418 420.968 446.418C422.154 446.418 423.346 445.998 424.3 445.145C429.057 440.888 431.308 436.255 430.99 431.374C430.772 428.025 429.357 425.307 427.834 423.297C433.675 416.085 437.071 407.542 438.038 398.779C438.557 398.96 439.054 399.216 439.468 399.588C441.001 400.962 441.18 403.814 441.061 405.964C440.908 408.721 443.019 411.08 445.776 411.234C445.871 411.239 445.965 411.242 446.058 411.242C448.692 411.242 450.898 409.182 451.045 406.519C451.399 400.145 449.715 395.277 446.039 392.049C443.506 389.824 440.571 388.904 438.066 388.564ZM412.356 403.233C410.654 404.775 401.8 412.444 394.168 412.058C391.44 411.915 389.07 410.805 387.318 408.846C386.349 407.764 381.757 410.175 379.384 412.26C378.434 413.094 377.257 413.504 376.085 413.504C374.696 413.504 373.315 412.929 372.327 411.805C370.504 409.731 370.708 406.572 372.782 404.748C379.516 398.831 388.879 395.732 394.68 402.08C396.429 402.341 401.771 399.312 405.64 395.82C407.687 393.973 410.849 394.128 412.7 396.175C414.554 398.223 414.399 401.38 412.356 403.233ZM388.271 377.417C390.57 375.885 393.672 376.506 395.205 378.804C396.737 381.102 396.116 384.206 393.818 385.738C391.467 387.305 389.256 387.805 387.392 387.805C386.266 387.805 385.268 387.622 384.441 387.383C378.327 385.61 375.093 378.943 374.507 377.623C373.386 375.1 374.523 372.146 377.046 371.023C379.563 369.905 382.51 371.034 383.637 373.543C384.436 375.289 386.141 377.47 387.231 377.779C387.317 377.805 387.58 377.878 388.271 377.417Z" fill="#0055CC"/>
<path d="M463.5 333.5C467.642 333.5 471 330.142 471 326C471 321.858 467.642 318.5 463.5 318.5C459.358 318.5 456 321.858 456 326C456 330.142 459.358 333.5 463.5 333.5Z" fill="#0055CC"/>
<path d="M233.5 108.5C237.642 108.5 241 105.142 241 101C241 96.8579 237.642 93.5 233.5 93.5C229.358 93.5 226 96.8579 226 101C226 105.142 229.358 108.5 233.5 108.5Z" fill="#0055CC"/>
<path d="M468.5 58.5C472.642 58.5 476 55.1421 476 51C476 46.8579 472.642 43.5 468.5 43.5C464.358 43.5 461 46.8579 461 51C461 55.1421 464.358 58.5 468.5 58.5Z" fill="#0055CC"/>
<path d="M43.5 68.5C47.6421 68.5 51 65.1421 51 61C51 56.8579 47.6421 53.5 43.5 53.5C39.3579 53.5 36 56.8579 36 61C36 65.1421 39.3579 68.5 43.5 68.5Z" fill="#0055CC"/>
<path d="M187.835 143.5H166.819C167.28 142.721 167.747 141.961 168.219 141.232C176.449 128.53 179.24 113.382 176.076 98.5798C172.913 83.7778 164.175 71.0928 151.472 62.8628C138.769 54.6328 123.622 51.8398 108.819 55.0048C94.1149 58.1468 81.5009 66.7908 73.2659 79.3568L60.7469 105.133C37.4139 153.171 38.1559 210.159 62.7299 257.574L73.2309 277.834C90.2699 303.9 125.316 311.329 151.472 294.382C177.695 277.393 185.208 242.236 168.219 216.012C161.874 206.219 158.156 195.069 157.339 183.498H189.085C199.148 183.498 207.335 191.685 207.335 201.748V463.5C207.335 466.262 209.574 468.5 212.335 468.5C215.096 468.5 217.335 466.262 217.335 463.5V201.75C217.335 186.173 204.662 173.5 189.085 173.5H147.335C141.821 173.5 137.335 169.014 137.335 163.5C137.335 157.986 141.821 153.5 147.335 153.5H187.835C215.129 153.5 237.335 175.706 237.335 203V463.5C237.335 466.262 239.574 468.5 242.335 468.5C245.096 468.5 247.335 466.262 247.335 463.5V203C247.335 170.191 220.644 143.5 187.835 143.5ZM82.9879 229.461C82.2529 229.842 81.4659 230.023 80.6909 230.023C78.8829 230.023 77.1369 229.039 76.2479 227.323C61.0779 198.055 60.6209 162.877 75.0239 133.224C76.2309 130.739 79.2219 129.704 81.7059 130.911C84.1899 132.118 85.2259 135.109 84.0189 137.593C70.9879 164.419 71.4019 196.242 85.1249 222.721C86.3969 225.173 85.4389 228.191 82.9879 229.461Z" fill="#0055CC"/>
<path d="M91 383.5C71.701 383.5 56 399.201 56 418.5C56 437.799 71.701 453.5 91 453.5C110.299 453.5 126 437.799 126 418.5C126 399.201 110.299 383.5 91 383.5Z" fill="#0055CC"/>
<path d="M298.5 428.5C302.642 428.5 306 425.142 306 421C306 416.858 302.642 413.5 298.5 413.5C294.358 413.5 291 416.858 291 421C291 425.142 294.358 428.5 298.5 428.5Z" fill="#0055CC"/>
<path d="M48.5 333.5C52.6421 333.5 56 330.142 56 326C56 321.858 52.6421 318.5 48.5 318.5C44.3579 318.5 41 321.858 41 326C41 330.142 44.3579 333.5 48.5 333.5Z" fill="#0055CC"/>
<path d="M173.5 413.5C177.642 413.5 181 410.142 181 406C181 401.858 177.642 398.5 173.5 398.5C169.358 398.5 166 401.858 166 406C166 410.142 169.358 413.5 173.5 413.5Z" fill="#0055CC"/>
</svg>
