<svg width="512" height="512" viewBox="0 0 512 512" fill="none" xmlns="http://www.w3.org/2000/svg">
<g clip-path="url(#clip0_15_409)">
<path d="M418.762 174.376C402.328 174.376 388.762 186.649 386.711 202.519C378.145 206.256 372.145 214.801 372.145 224.751C372.145 230.155 373.913 235.145 376.903 239.176C375.57 242.176 374.822 245.5 374.822 248.995C374.822 262.39 385.681 273.238 399.065 273.238C404.055 273.238 408.691 271.733 412.549 269.148C416.398 271.733 421.034 273.238 426.024 273.238C435.954 273.238 444.489 267.269 448.237 258.723C461.904 254.955 471.944 242.429 471.944 227.56" stroke="#0055CC" stroke-width="14.9998" stroke-miterlimit="10" stroke-linecap="round" stroke-linejoin="round"/>
<path d="M288.88 192.146C281.51 203.146 276.2 214.386 276.2 224.115C276.2 252.245 282.93 260.455 309.569 303.094C309.989 303.774 310.389 304.454 310.749 305.114" stroke="#0055CC" stroke-width="14.9998" stroke-miterlimit="10" stroke-linecap="round" stroke-linejoin="round"/>
<path d="M245.05 441.932C245.05 415.073 238.22 378.103 211.751 350.154C200.561 340.094 190.341 322.454 202.431 303.094C229.071 260.455 235.8 252.245 235.8 224.116C235.8 197.146 194.991 158.547 182.851 145.887C169.572 132.067 159.202 116.187 159.202 97.0175C159.202 81.3478 165.052 66.358 175.651 54.8082C184.371 45.3284 196.751 39.8984 209.631 39.8984H302.369C315.249 39.8984 327.629 45.3284 336.349 54.8082C346.949 66.358 352.799 81.3478 352.799 97.0175C352.799 116.187 342.429 132.067 329.149 145.887C325.239 149.957 318.359 156.727 310.829 164.926" stroke="#0055CC" stroke-width="14.9998" stroke-miterlimit="10" stroke-linecap="round" stroke-linejoin="round"/>
<path d="M266.95 441.931C266.95 427.951 268.799 411.233 274.304 394.474" stroke="#0055CC" stroke-width="14.9998" stroke-miterlimit="10" stroke-linecap="round" stroke-linejoin="round"/>
<path d="M78.6729 50.8078C89.3627 44.4879 101.662 40.618 114.792 39.988C115.062 39.978 115.342 39.968 115.612 39.958C128.292 39.488 137.232 52.1678 132.802 64.0576C128.912 74.5175 126.872 85.6673 126.872 97.0171C126.872 111.487 130.182 125.547 136.322 138.236C142.462 150.926 151.432 162.256 162.772 171.236C166.761 174.396 170.101 178.246 172.631 182.566C175.171 186.886 176.921 191.666 177.731 196.686L183.851 234.305C186.781 252.365 183.711 271.014 174.501 286.824C168.461 297.184 165.091 308.744 165.091 320.924C165.091 341.223 174.441 359.753 189.881 373.943C202.561 385.613 210.991 401.192 213.761 418.202L217.611 441.932H286.9" stroke="#0055CC" stroke-width="14.9998" stroke-miterlimit="10" stroke-linecap="round" stroke-linejoin="round"/>
<path d="M53.3333 74.6578C45.4534 86.2876 40.5935 100.117 39.9135 114.987C38.8535 138.177 47.8633 159.306 62.9331 174.376H93.2426L40.0535 227.555V197.256C19.7338 176.946 7.24399 148.787 7.50398 117.727C8.02397 57.5081 57.1432 8.24884 117.362 7.57885C128.382 7.45885 139.042 8.94883 149.112 11.8188C161.122 15.2287 173.941 15.0787 185.831 11.2888C193.451 8.85883 201.471 7.56885 209.631 7.56885H302.369C310.529 7.56885 318.549 8.85883 326.169 11.2888C338.059 15.0787 350.879 15.2287 362.888 11.8188C372.958 8.94883 383.618 7.45885 394.638 7.57885C454.857 8.24884 503.976 57.5081 504.496 117.727C504.756 148.787 492.266 176.946 471.947 197.256V227.555L418.758 174.376H449.067C464.137 159.306 473.147 138.177 472.087 114.987C470.227 74.5978 437.607 41.9183 397.208 39.9883C396.938 39.9783 396.658 39.9683 396.388 39.9583C383.708 39.4883 374.768 52.1681 379.198 64.058C381.138 69.2779 382.618 74.6878 383.618 80.1977C384.608 85.7176 385.128 91.3475 385.128 97.0174C385.128 111.487 381.818 125.547 375.678 138.237C369.538 150.927 360.568 162.256 349.229 171.236C342.129 178.336 334.989 192.266 333.379 202.176L328.149 234.305C325.239 252.245 328.249 270.775 337.319 286.515" stroke="#0055CC" stroke-width="14.9998" stroke-miterlimit="10" stroke-linecap="round" stroke-linejoin="round"/>
<path d="M40.0542 227.559C40.0542 242.428 50.095 254.954 63.7618 258.722C67.5098 267.268 76.0446 273.237 85.9745 273.237C90.9644 273.237 95.6013 271.732 99.4493 269.147C103.308 271.732 107.944 273.237 112.934 273.237C126.318 273.237 137.177 262.389 137.177 248.994C137.177 245.499 136.43 242.176 135.096 239.175C138.086 235.145 139.854 230.154 139.854 224.75C139.854 214.8 133.854 206.254 125.288 202.518C123.237 186.649 109.671 174.375 93.2364 174.375" stroke="#0055CC" stroke-width="14.9998" stroke-miterlimit="10" stroke-linecap="round" stroke-linejoin="round"/>
<path d="M483.096 456.132C496.576 437.282 504.496 414.203 504.496 389.273C504.496 325.674 452.937 274.115 389.338 274.115C325.739 274.115 274.18 325.674 274.18 389.273C274.18 452.872 325.739 504.431 389.338 504.431C415.417 504.431 439.477 495.761 458.777 481.142" stroke="#0055CC" stroke-width="14.9998" stroke-miterlimit="10" stroke-linecap="round" stroke-linejoin="round"/>
<path d="M400.306 350.094C394.389 344.177 394.389 334.583 400.306 328.666L413.163 315.809C419.08 309.892 428.674 309.892 434.591 315.809C440.508 321.726 440.508 331.32 434.591 337.237L421.734 350.094C415.817 356.011 406.223 356.011 400.306 350.094Z" stroke="#0055CC" stroke-width="14.9998" stroke-miterlimit="10" stroke-linecap="round" stroke-linejoin="round"/>
<path d="M413.581 456.95C413.581 465.318 406.797 472.102 398.429 472.102H380.246C371.878 472.102 365.094 465.318 365.094 456.95C365.094 448.582 371.878 441.798 380.246 441.798H398.429C406.797 441.798 413.581 448.582 413.581 456.95Z" stroke="#0055CC" stroke-width="14.9998" stroke-miterlimit="10" stroke-linecap="round" stroke-linejoin="round"/>
<path d="M458.026 413.515C449.658 413.515 442.874 406.731 442.874 398.363V380.18C442.874 371.812 449.658 365.028 458.026 365.028C466.394 365.028 473.178 371.812 473.178 380.18V398.363C473.178 406.731 466.395 413.515 458.026 413.515Z" stroke="#0055CC" stroke-width="14.9998" stroke-miterlimit="10" stroke-linecap="round" stroke-linejoin="round"/>
<path d="M307.315 391.973C301.398 386.056 301.398 376.462 307.315 370.545L320.172 357.688C326.089 351.771 335.683 351.771 341.6 357.688C347.517 363.605 347.517 373.199 341.6 379.116L328.743 391.973C322.827 397.89 313.233 397.89 307.315 391.973Z" stroke="#0055CC" stroke-width="14.9998" stroke-miterlimit="10" stroke-linecap="round" stroke-linejoin="round"/>
<path d="M370.827 386.29L379.399 377.718" stroke="#0055CC" stroke-width="14.9998" stroke-miterlimit="10" stroke-linecap="round" stroke-linejoin="round"/>
<path d="M406.874 401.393V389.272" stroke="#0055CC" stroke-width="14.9998" stroke-miterlimit="10" stroke-linecap="round" stroke-linejoin="round"/>
<path d="M342.882 419.173V431.295" stroke="#0055CC" stroke-width="14.9998" stroke-miterlimit="10" stroke-linecap="round" stroke-linejoin="round"/>
<path d="M355.233 324.38L363.805 332.951" stroke="#0055CC" stroke-width="14.9998" stroke-miterlimit="10" stroke-linecap="round" stroke-linejoin="round"/>
<path d="M427.611 428.622L436.182 437.194" stroke="#0055CC" stroke-width="14.9998" stroke-miterlimit="10" stroke-linecap="round" stroke-linejoin="round"/>
</g>
<defs>
<clipPath id="clip0_15_409">
<rect width="512" height="512" fill="white"/>
</clipPath>
</defs>
</svg>
