<svg width="512" height="512" viewBox="0 0 512 512" fill="none" xmlns="http://www.w3.org/2000/svg">
<path d="M167.661 279.053C163.385 286.658 169.007 296.094 177.732 296.094H226.985C235.703 296.094 241.322 286.674 237.064 279.067C230.255 266.904 217.314 258.689 202.347 258.689C187.458 258.689 174.496 266.897 167.661 279.053Z" fill="#0055CC"/>
<path d="M265.336 221.6L250.743 217.032L263.15 206.987C266.555 204.228 267.083 199.231 264.323 195.82C261.569 192.425 256.588 191.888 253.156 194.647L229.241 214.009C226.968 215.849 225.893 218.795 226.441 221.668C226.988 224.541 229.076 226.882 231.867 227.755L260.592 236.751C264.726 238.048 269.216 235.77 270.54 231.548C271.847 227.367 269.522 222.913 265.336 221.6Z" fill="#0055CC"/>
<path d="M168.762 227.755C171.552 226.882 173.64 224.541 174.188 221.668C174.736 218.795 173.661 215.849 171.387 214.009L147.472 194.647C144.051 191.877 139.054 192.42 136.305 195.82C133.546 199.231 134.073 204.228 137.478 206.987L149.885 217.032L135.292 221.6C131.107 222.913 128.782 227.367 130.089 231.548C131.153 234.943 134.285 237.113 137.664 237.113C138.45 237.113 139.246 236.999 140.036 236.751L168.762 227.755Z" fill="#0055CC"/>
<path d="M233.21 185.769H263.993C268.374 185.769 271.93 182.214 271.93 177.832C271.93 173.45 268.374 169.895 263.993 169.895H233.21C228.828 169.895 225.273 173.45 225.273 177.832C225.273 182.214 228.828 185.769 233.21 185.769Z" fill="#0055CC"/>
<path d="M162.437 185.769C166.819 185.769 170.374 182.214 170.374 177.832C170.374 173.45 166.819 169.895 162.437 169.895H131.655C127.273 169.895 123.718 173.45 123.718 177.832C123.718 182.214 127.273 185.769 131.655 185.769H162.437Z" fill="#0055CC"/>
<path d="M334.848 247.283C335.266 251.786 339.309 254.885 343.483 254.45L386.745 250.419C391.111 250.016 394.32 246.146 393.912 241.784C393.504 237.413 389.556 234.157 385.277 234.617L342.015 238.648C337.649 239.051 334.44 242.921 334.848 247.283Z" fill="#0055CC"/>
<path d="M384.822 291.48C386.626 287.48 384.848 282.783 380.849 280.979L341.245 263.116C337.251 261.302 332.549 263.095 330.745 267.084C328.942 271.084 330.719 275.781 334.719 277.584L374.327 295.448C378.215 297.221 382.988 295.549 384.822 291.48Z" fill="#0055CC"/>
<path d="M322.627 287.682C319.408 290.658 319.206 295.681 322.178 298.9L351.647 330.824C354.627 334.05 359.65 334.239 362.866 331.274C366.085 328.298 366.287 323.275 363.315 320.055L333.846 288.131C330.859 284.901 325.841 284.715 322.627 287.682Z" fill="#0055CC"/>
<path d="M62.8556 247.283C63.2639 242.921 60.0549 239.051 55.6884 238.648L12.4267 234.617C8.09639 234.173 4.19506 237.413 3.79196 241.784C3.38375 246.146 6.59271 250.016 10.9592 250.419L54.2209 254.45C58.3956 254.885 62.4375 251.785 62.8556 247.283Z" fill="#0055CC"/>
<path d="M62.9848 277.584C66.9793 275.781 68.7569 271.084 66.9533 267.084C65.1499 263.095 60.4579 261.302 56.4532 263.116L16.8501 280.979C12.8556 282.783 11.078 287.48 12.8816 291.479C14.7003 295.515 19.4438 297.235 23.3817 295.448L62.9848 277.584Z" fill="#0055CC"/>
<path d="M34.3831 320.055C31.4118 323.275 31.6134 328.297 34.8327 331.274C38.097 334.273 43.1059 334.013 46.0512 330.824L75.5211 298.9C78.4924 295.681 78.2908 290.658 75.0715 287.681C71.8573 284.72 66.8345 284.912 63.853 288.131L34.3831 320.055Z" fill="#0055CC"/>
<path d="M500.306 400.669H488.347C486.759 385.746 480.833 372.095 471.838 360.983L480.41 352.516C483.479 349.447 483.479 344.367 480.41 341.298C477.235 338.229 472.261 338.229 469.192 341.298L460.62 349.765C449.614 340.875 435.962 334.949 421.04 333.361V321.403C421.04 316.958 417.442 313.466 413.102 313.466C408.764 313.466 405.165 316.958 405.165 321.403V333.467C390.456 335.055 376.697 340.663 365.479 349.765L357.119 341.298C353.944 338.229 348.97 338.229 345.795 341.298C342.727 344.367 342.727 349.447 345.795 352.516L354.473 361.089C353.839 361.935 353.098 362.676 352.463 363.522C335.001 342.569 309.179 330.398 281.346 330.398H254.042V319.074C283.6 301.535 302.846 270.589 305.581 235.999C321.984 231.66 334.26 217.479 336.165 200.546C336.482 199.805 336.694 198.959 336.694 198.112V137.895C336.694 101.172 322.302 66.4609 296.268 40.3209C270.233 14.2873 235.628 0 198.799 0C122.814 0 61.0102 61.9103 61.0102 137.895C61.0102 155.909 61.0102 200.862 61.0102 198.112C61.0102 212.866 72.8601 230.973 92.1239 235.999C94.7057 268.501 111.906 299.768 143.451 318.968V330.398H116.147C64.8199 330.398 23.0173 372.201 23.0173 423.527V474.325C23.0173 495.068 39.9503 512 60.6924 512H336.906C357.648 512 374.475 495.068 374.475 474.325V473.479C383.788 478.981 394.159 482.474 405.165 483.744V495.703C405.165 500.147 408.764 503.64 413.102 503.64C417.442 503.64 421.04 500.147 421.04 495.703V483.956C431.728 483.427 442.1 479.934 450.883 473.902C454.27 471.997 457.551 469.774 460.62 467.235L469.192 475.807C471.942 478.755 477.138 479.079 480.41 475.807C483.479 472.738 483.479 467.658 480.41 464.589L471.838 456.017C480.939 444.693 486.76 431.041 488.347 416.543H500.306C504.645 416.543 508.243 412.944 508.243 408.606C508.243 404.16 504.645 400.669 500.306 400.669ZM306.004 173.136C314.682 177.263 320.714 186.153 320.714 196.101C320.714 206.155 314.682 214.938 306.004 219.066V173.136ZM91.5942 219.172C83.022 215.15 77.2017 206.578 76.8844 196.842V195.466C77.2016 185.624 83.022 177.052 91.5942 173.137V219.172ZM107.574 227.427V152.5C107.574 149.96 109.585 147.949 112.125 147.949H127.259C145.673 147.949 162.5 138.424 172.131 123.397C181.655 138.424 198.482 147.949 217.108 147.949H285.579C288.118 147.949 290.129 149.96 290.129 152.5C290.12 159.418 290.017 234.068 290.023 229.332C289.022 279.689 247.569 318.651 198.799 318.651C148.697 318.651 107.574 277.944 107.574 227.427ZM352.251 489.776C348.335 493.692 342.938 496.126 336.906 496.126H60.6924C48.6278 496.126 38.8917 486.39 38.8917 474.325V423.527C38.8917 380.984 73.6039 346.272 116.147 346.272H147.26C148.037 347.335 192.758 407.964 193.825 408.606C197.565 412.057 202.661 410.961 205.255 407.441L250.337 346.272H281.346C306.321 346.272 329.392 358.125 343.89 378.233C340.716 385.535 338.811 393.154 337.964 400.668H325.899C321.561 400.668 317.962 404.16 317.962 408.606C317.962 412.944 321.561 416.543 325.899 416.543H337.964C339.375 429.247 344.108 443.427 354.473 456.017L345.795 464.589C342.726 467.658 342.726 472.738 345.795 475.807C348.956 478.967 354.06 478.865 357.119 475.807L358.601 474.325C358.601 480.357 356.166 485.755 352.251 489.776ZM472.896 408.606V408.712C472.79 425.009 466.017 440.566 454.164 451.783C449.402 445.54 441.888 441.624 433.739 441.624C419.452 441.624 407.917 453.265 407.917 467.447V467.764C390.475 466.241 375.456 457.515 365.268 444.27C372.993 439.402 378.073 430.936 378.073 421.305C378.073 407.865 368.125 396.647 355.214 394.53C362.64 365.499 387.058 348.812 413.102 348.812C446.016 348.812 472.79 375.587 472.896 408.394C472.896 408.5 472.896 408.5 472.896 408.606Z" fill="#0055CC"/>
<path d="M444.322 395.165C444.322 409.77 432.469 421.622 417.865 421.622C403.366 421.622 391.514 409.77 391.514 395.165C391.514 380.667 403.366 368.814 417.865 368.814C432.469 368.814 444.322 380.667 444.322 395.165Z" fill="#0055CC"/>
</svg>
