<svg width="512" height="512" viewBox="0 0 512 512" fill="none" xmlns="http://www.w3.org/2000/svg">
<g clip-path="url(#clip0_15_476)">
<path d="M363.355 99.0972C363.355 108.204 370.765 115.613 379.871 115.613H396.387C405.494 115.613 412.903 108.203 412.903 99.0972C422.01 99.0972 429.419 91.6872 429.419 82.5812V66.0652C429.419 56.9582 422.009 49.5492 412.903 49.5492C412.903 40.4422 405.493 33.0332 396.387 33.0332H379.871C370.764 33.0332 363.355 40.4432 363.355 49.5492C354.248 49.5492 346.839 56.9592 346.839 66.0652V82.5812C346.839 91.6872 354.248 99.0972 363.355 99.0972ZM363.355 66.0652H379.871V49.5482H396.387V66.0642H412.903V82.5802H396.387V99.0962H379.871V82.5812H363.355V66.0652Z" fill="#0055CC"/>
<path d="M479.498 166.112L462.341 136.477C458.359 129.598 453.989 122.88 449.337 116.416C457.599 104.441 462.452 89.941 462.452 74.323C462.452 33.341 429.111 0 388.129 0C364.372 0 343.199 11.218 329.583 28.619C305.267 20.591 279.965 16.516 254.275 16.516C208.688 16.516 164.231 29.401 125.71 53.778C87.189 78.155 56.513 112.817 36.998 154.015L31.116 166.432C13.252 170.977 0 187.194 0 206.452V290.916C0 308.031 10.767 323.567 26.792 329.576L34.985 332.648L35.612 335.778C39.699 356.214 47.634 375.369 59.194 392.709L72.936 383.548C63.912 370.011 57.356 355.239 53.395 339.551L70.374 345.918L86.841 357.894C136.322 393.883 194.817 412.904 256 412.904C310.065 412.904 362.024 398.042 407.526 369.756C371.363 417.291 314.622 445.937 253.947 445.937C224.151 445.937 194.314 438.894 167.665 425.57L160.597 422.036L153.21 436.809L160.278 440.343C189.21 454.808 221.6 462.454 253.947 462.454C329.505 462.454 399.454 421.544 436.498 355.689L442.09 345.748L461.548 338.451C427.172 423.077 344.985 478.97 252.65 478.97C228.364 478.97 204.368 475.076 181.328 467.395L167.772 462.877L162.549 478.547L176.105 483.065C200.833 491.307 226.587 495.486 252.65 495.486C356.718 495.486 448.777 429.33 482.007 330.778L485.208 329.577C501.233 323.566 512 308.03 512 290.915V206.451C512 186.7 498.056 170.152 479.498 166.112ZM415.447 344.538C414.604 345.151 413.752 345.748 412.904 346.35V180.751C418.388 181.159 423.894 181.44 429.42 181.576V334.375L415.447 344.538ZM313.849 75.999C314.747 116.208 347.709 148.645 388.129 148.645C395.11 148.645 401.861 147.656 408.271 145.849C412.58 151.874 416.534 158.165 420.12 164.662C383.575 162.642 348 154.316 314.142 139.805L256 114.886L197.857 139.805C162.107 155.127 124.442 163.546 85.742 164.932L89.481 158.701C123.764 101.56 186.458 66.064 253.095 66.064C273.854 66.065 294.261 69.411 313.849 75.999ZM204.363 154.985L247.742 136.394V396.25C200.714 394.848 155.581 381.484 115.613 357.214V179.097C146.086 175.278 175.806 167.225 204.363 154.985ZM264.258 136.394L307.637 154.985C336.194 167.223 365.914 175.278 396.387 179.096V357.214C356.419 381.483 311.285 394.848 264.258 396.25V136.394ZM439.016 165.161C434.612 156.234 429.567 147.62 423.937 139.425C429.078 136.586 433.852 133.162 438.16 129.234C441.659 134.276 444.982 139.459 448.047 144.753L459.863 165.162H445.935H439.016V165.161ZM388.129 16.516C420.003 16.516 445.935 42.448 445.935 74.322C445.935 106.196 420.003 132.128 388.129 132.128C356.255 132.128 330.323 106.196 330.323 74.322C330.323 42.448 356.255 16.516 388.129 16.516ZM254.275 33.032C276.899 33.032 299.199 36.418 320.704 43.107C318.351 48.167 316.542 53.528 315.374 59.124C295.235 52.771 274.332 49.549 253.095 49.549C217.363 49.549 182.042 58.855 150.948 76.459C119.854 94.064 93.702 119.565 75.319 150.204L66.344 165.162H66.065H49.993L51.923 161.088C88.772 83.296 168.199 33.032 254.275 33.032ZM16.516 290.915V206.451C16.516 192.791 27.63 181.677 41.29 181.677H66.064V326.664L32.591 314.112C22.976 310.506 16.516 301.184 16.516 290.915ZM82.581 334.375V181.576C88.107 181.44 93.613 181.16 99.097 180.751V346.349C98.248 345.746 97.397 345.151 96.555 344.537L82.581 334.375ZM495.484 290.915C495.484 301.184 489.024 310.506 479.409 314.112L445.936 326.664V181.677H470.71C484.37 181.677 495.484 192.791 495.484 206.451V290.915Z" fill="#0055CC"/>
<path d="M181.677 363.355C208.998 363.355 231.225 341.128 231.225 313.807C231.225 286.485 208.997 264.259 181.677 264.259C154.357 264.259 132.129 286.486 132.129 313.807C132.129 341.128 154.357 363.355 181.677 363.355ZM161.602 287.601L210.319 330.229C208.132 334.029 205.213 337.356 201.752 340.013L153.034 297.385C155.223 293.583 158.141 290.258 161.602 287.601ZM148.691 315.528L184.341 346.722C183.462 346.792 182.576 346.839 181.678 346.839C164.041 346.839 149.589 332.945 148.691 315.528ZM214.664 312.085L179.015 280.891C179.894 280.821 180.78 280.774 181.677 280.774C199.314 280.774 213.766 294.667 214.664 312.085Z" fill="#0055CC"/>
<path d="M125.271 431.441L137.554 419.158L125.876 407.479L113.593 419.762C109.261 416.889 104.362 414.807 99.098 413.735V396.388H82.581V413.735C77.318 414.808 72.417 416.891 68.086 419.762L55.803 407.479L44.124 419.159L56.407 431.442C53.534 435.774 51.452 440.673 50.38 445.937H33.032V462.453H50.379C51.452 467.716 53.534 472.616 56.406 476.948L44.123 489.229L55.801 500.908L68.084 488.625C72.416 491.498 77.315 493.58 82.579 494.652V512H99.095V494.653C104.358 493.58 109.259 491.497 113.59 488.626L125.873 500.909L137.551 489.23L125.268 476.947C128.141 472.615 130.223 467.716 131.295 462.452H148.644V445.936H131.297C130.226 440.672 128.143 435.773 125.271 431.441ZM113.182 443.498C111.658 445.02 109.58 445.935 107.355 445.935C102.802 445.935 99.097 442.23 99.097 437.677C99.097 435.451 100.013 433.374 101.534 431.85C106.615 434.292 110.741 438.418 113.182 443.498ZM83.656 430.485C82.956 432.784 82.58 435.202 82.58 437.678C82.58 441.502 83.451 445.125 85.005 448.361C81.769 446.807 78.146 445.936 74.322 445.936C71.847 445.936 69.428 446.312 67.129 447.012C69.526 439.117 75.763 432.882 83.656 430.485ZM68.494 464.889C70.019 463.367 72.097 462.452 74.322 462.452C78.875 462.452 82.58 466.157 82.58 470.71C82.58 472.936 81.664 475.012 80.143 476.538C75.063 474.095 70.937 469.97 68.494 464.889ZM98.021 477.902C98.721 475.603 99.097 473.185 99.097 470.709C99.097 466.886 98.226 463.262 96.672 460.026C99.908 461.58 103.531 462.451 107.355 462.451C109.83 462.451 112.249 462.075 114.548 461.375C112.151 469.27 105.915 475.506 98.021 477.902Z" fill="#0055CC"/>
</g>
<defs>
<clipPath id="clip0_15_476">
<rect width="512" height="512" fill="white"/>
</clipPath>
</defs>
</svg>
