<svg width="512" height="512" viewBox="0 0 512 512" fill="none" xmlns="http://www.w3.org/2000/svg">
<g clip-path="url(#clip0_15_498)">
<path d="M384.363 366.39C384.995 363.415 387.802 361.425 390.785 361.731L391.084 361.769L391.09 361.77L391.389 361.825C394.352 362.454 396.376 365.229 396.051 368.248L396.011 368.551L389.856 407.276V407.28C389.383 410.191 386.868 412.269 384.01 412.269C383.703 412.269 383.392 412.245 383.083 412.198L383.074 412.198C379.848 411.682 377.638 408.651 378.153 405.415L384.308 366.691L384.363 366.39Z" fill="#0055CC" stroke="#0055CC" stroke-width="2"/>
<path d="M448.702 409.986C451.462 408.736 454.733 409.77 456.263 412.383L456.41 412.649V412.65L456.544 412.924C457.801 415.681 456.765 418.957 454.148 420.487L453.881 420.635L419.489 438.481L419.49 438.482C418.62 438.941 417.681 439.154 416.763 439.154C414.622 439.154 412.559 437.993 411.499 435.957L411.498 435.956C409.994 433.054 411.125 429.477 414.029 427.971L448.426 410.121L448.428 410.119L448.702 409.986Z" fill="#0055CC" stroke="#0055CC" stroke-width="2"/>
<path d="M468.212 325.893C470.305 323.564 473.876 323.251 476.34 325.243H476.341C478.887 327.298 479.285 331.031 477.222 333.573L477.221 333.572L436.377 384.117L436.376 384.118C435.204 385.562 433.491 386.314 431.769 386.314C430.46 386.314 429.143 385.882 428.05 385.001V385C425.582 383.009 425.132 379.444 426.981 376.912L427.167 376.67L468.012 326.126L468.013 326.125L468.212 325.893Z" fill="#0055CC" stroke="#0055CC" stroke-width="2"/>
<path d="M410.856 396.889C412.951 394.547 416.529 394.248 418.986 396.233L419.218 396.431C421.555 398.52 421.867 402.1 419.875 404.562L419.874 404.562L405.435 422.447C404.263 423.898 402.549 424.65 400.827 424.65C399.518 424.65 398.202 424.217 397.108 423.336H397.107C394.64 421.345 394.19 417.78 396.034 415.248L396.219 415.007L410.659 397.122L410.856 396.889Z" fill="#0055CC" stroke="#0055CC" stroke-width="2"/>
<path d="M331.039 166.582L331.053 166.583L331.358 166.604C334.478 166.905 336.848 169.605 336.699 172.773C331.637 282.828 329.074 351.295 329.074 376.32C329.074 400.553 347.709 420.082 369.604 434.632C391.443 449.144 416.21 458.489 427.845 462.427H427.844C430.001 463.155 432.92 463.831 435.797 464.256C438.692 464.683 441.448 464.841 443.31 464.585L443.316 464.584L443.944 464.494C445.409 464.267 446.892 463.922 448.475 463.557L449.68 463.281C455.812 461.893 463.531 460.477 473.203 464.186H473.204C478.784 466.285 483.543 470.077 486.935 475.13H486.934C490.287 479.97 492.077 485.748 492.077 491.771C492.077 503.474 482.551 513 470.843 513H241.822C219.907 513 208.826 503.562 203.405 495.53V495.531C197.574 486.896 195.606 476.267 195.893 465.824C196.171 455.702 198.567 445.677 201.706 437.645L202.011 436.874C202.779 434.947 203.611 433.001 204.46 430.999L205.958 427.452C209.483 418.99 213.16 409.02 215.379 393.268L215.429 392.968C216.025 389.889 218.964 387.78 222.075 388.228H222.074C225.211 388.671 227.426 391.497 227.147 394.618L227.112 394.921C224.356 414.467 219.364 426.23 215.37 435.631C214.546 437.574 213.753 439.433 213.015 441.286L213.013 441.29C210.248 448.15 208.06 456.773 207.695 465.341C207.33 473.918 208.795 482.34 213.225 488.903L213.483 489.277C218.961 497.087 228.401 501.154 241.827 501.154H470.848C476.026 501.154 480.236 496.944 480.236 491.766C480.236 488.151 479.168 484.706 477.154 481.795L477.15 481.789L477.146 481.782C475.092 478.715 472.288 476.484 469.01 475.256L469.002 475.252C462.077 472.588 456.894 473.768 451.138 475.091L451.139 475.092C449.029 475.577 446.944 476.052 444.879 476.32L444.878 476.319C438.854 477.143 429.664 475.538 424.054 473.646H424.053C411.567 469.418 384.93 459.311 361.396 443.205C337.903 427.127 317.228 404.878 317.228 376.315C317.228 351.081 319.799 282.406 324.865 172.227V172.226L324.887 171.92C325.197 168.78 327.943 166.531 331.025 166.582H331.039Z" fill="#0055CC" stroke="#0055CC" stroke-width="2"/>
<path d="M323.396 -1L323.933 -0.993164C329.451 -0.855568 334.57 1.4067 338.388 5.4043L338.751 5.79492C342.447 9.87 344.338 15.1302 344.083 20.6592V20.6641C343.002 41.6105 341.024 81.6526 338.831 127.871L337.88 148.02C337.725 151.301 334.94 153.771 331.697 153.659L331.685 153.658C328.416 153.504 325.892 150.732 326.046 147.463L326.997 127.307C329.191 81.0713 331.172 41.0204 332.249 20.0791C332.358 17.6561 331.498 15.3494 329.817 13.584L329.494 13.2627C327.846 11.7008 325.703 10.8457 323.396 10.8457H199.828C196.736 10.8457 193.876 12.4543 192.287 15.0596L192.138 15.3145C183.755 30.1945 165.347 71.7418 176.512 134.644L177.14 138.113C183.734 173.819 193.616 205.047 203.203 235.331L205.691 243.203C218.064 282.449 229.185 320.09 229.185 360.615C229.185 362.137 229.172 363.633 229.153 365.097L229.086 369.382C229.029 372.512 226.555 375.04 223.469 375.195L223.168 375.203H223.062C219.793 375.144 217.186 372.448 217.245 369.173L217.312 364.982C217.331 363.554 217.344 362.097 217.344 360.615C217.344 321.854 206.519 285.201 194.364 246.646L191.918 238.908C182.243 208.337 172.228 176.7 165.495 140.258L164.854 136.716C153.033 70.1141 172.752 25.6061 181.824 9.50293C185.468 3.01776 192.37 -1 199.828 -1H323.396Z" fill="#0055CC" stroke="#0055CC" stroke-width="2"/>
<path d="M86.519 31.0894C88.6552 30.2844 91.0898 30.7734 92.7485 32.3862H92.7495L142.03 80.3862H142.029C144.375 82.6673 144.422 86.4222 142.141 88.7622L142.139 88.7642C140.975 89.9521 139.434 90.5503 137.895 90.5503C136.503 90.5502 135.103 90.0607 133.982 89.0728L133.761 88.8687L94.5386 50.6646V83.6919C94.5386 85.9373 93.2653 87.9926 91.2573 88.9937C89.2476 89.9956 86.8431 89.7694 85.0503 88.4204L85.0493 88.4194L50.9321 62.6714C48.3197 60.6987 47.8055 56.9853 49.771 54.3745L49.772 54.3726L49.9624 54.1343C51.9093 51.8146 55.2999 51.3327 57.8188 53.0347L58.0679 53.2114L58.0698 53.2134L82.6919 71.8032V36.6274C82.692 34.2464 84.1199 32.0966 86.312 31.1724L86.313 31.1714L86.519 31.0894Z" fill="#0055CC" stroke="#0055CC" stroke-width="2"/>
<path d="M21.1206 32.7153C23.0872 30.1059 26.8006 29.5782 29.4136 31.5571H29.4126L41.6216 40.7622L41.8608 40.9526C44.2622 42.9645 44.6919 46.5214 42.7827 49.0522L42.7837 49.0532C41.6208 50.6018 39.841 51.4126 38.0503 51.4126C36.8086 51.4125 35.5544 51.0267 34.4858 50.2134V50.2124L22.2808 41.0103L22.2798 41.0093C19.6695 39.038 19.1465 35.3238 21.1206 32.7153Z" fill="#0055CC" stroke="#0055CC" stroke-width="2"/>
<path d="M142.133 135.615L142.438 135.622C145.476 135.764 147.924 138.091 148.136 141.12L148.15 141.425V141.427L148.148 141.732C148.046 144.862 145.508 147.398 142.342 147.461H142.341L124.272 147.806H124.16C120.943 147.806 118.302 145.23 118.237 141.997V141.994C118.178 138.726 120.778 136.025 124.047 135.96H124.048L142.115 135.615H142.133Z" fill="#0055CC" stroke="#0055CC" stroke-width="2"/>
<path d="M103.416 136.31C106.462 136.226 109.396 138.832 109.455 142.126L109.453 142.431C109.354 145.461 106.968 147.933 103.944 148.142L103.639 148.156L86.9426 148.46L109.306 173.272L109.563 173.576C110.788 175.132 111.153 177.202 110.532 179.093V179.096C109.864 181.115 108.17 182.619 106.086 183.045H106.084L27.0198 199.045L27.0081 199.047L26.9973 199.049C26.6111 199.118 26.222 199.154 25.8411 199.154C23.0811 199.153 20.6104 197.218 20.0413 194.405L19.9885 194.105C19.5206 191.007 21.5634 188.052 24.6731 187.426L93.5608 173.487L69.4504 146.738V146.737C67.8987 145.013 67.4956 142.544 68.4133 140.418L68.4143 140.416L68.5042 140.219C69.4682 138.205 71.4941 136.891 73.7395 136.851L103.416 136.311V136.31Z" fill="#0055CC" stroke="#0055CC" stroke-width="2"/>
<path d="M159.66 200.729C162.467 199.607 165.69 200.771 167.107 203.456L167.243 203.729V203.73L167.364 204.009C168.535 206.913 167.24 210.262 164.363 211.594L164.364 211.595L117.301 233.429L141.713 249.633L141.714 249.634L142.018 249.85C143.399 250.9 144.252 252.506 144.351 254.24L144.36 254.613C144.349 256.487 143.447 258.238 141.944 259.342L141.636 259.554L117.022 275.355L117.023 275.356C116.033 275.996 114.922 276.298 113.826 276.298C111.881 276.298 109.972 275.34 108.84 273.574V273.575C107.13 270.912 107.821 267.387 110.371 265.564L110.624 265.393L127.604 254.489L101.931 237.452V237.451C100.147 236.266 99.141 234.205 99.3008 232.068C99.461 229.928 100.771 228.046 102.711 227.141L102.713 227.14L159.377 200.85L159.381 200.849L159.66 200.729Z" fill="#0055CC" stroke="#0055CC" stroke-width="2"/>
<path d="M93.1951 276.569C95.9445 274.803 99.6106 275.604 101.376 278.358C103.141 281.111 102.341 284.773 99.5867 286.538L99.5857 286.537L77.6306 300.617L77.6287 300.618C76.6482 301.244 75.5405 301.554 74.4421 301.554C72.4906 301.554 70.5823 300.589 69.4509 298.83L69.45 298.828C67.6853 296.075 68.4845 292.414 71.239 290.649L93.1951 276.57V276.569Z" fill="#0055CC" stroke="#0055CC" stroke-width="2"/>
<path d="M325.662 284.539C328.931 284.539 331.585 287.192 331.585 290.461C331.585 293.731 328.932 296.384 325.662 296.384H213.366C210.096 296.384 207.443 293.731 207.443 290.461C207.443 287.192 210.096 284.539 213.366 284.539H325.662Z" fill="#0055CC" stroke="#0055CC" stroke-width="2"/>
<path d="M324.578 314.077C327.848 314.077 330.502 316.73 330.502 320C330.502 323.27 327.848 325.923 324.578 325.923H219.717C216.447 325.922 213.794 323.27 213.794 320C213.794 316.73 216.447 314.077 219.717 314.077H324.578Z" fill="#0055CC" stroke="#0055CC" stroke-width="2"/>
<path d="M323.889 333.769L324.194 333.777C327.322 333.936 329.812 336.525 329.812 339.692C329.812 342.962 327.159 345.615 323.889 345.615H222.277C219.007 345.615 216.354 342.962 216.354 339.692C216.354 336.422 219.007 333.769 222.277 333.769H323.889Z" fill="#0055CC" stroke="#0055CC" stroke-width="2"/>
<path d="M325.662 284.539L325.962 284.546C327.463 284.623 328.888 285.268 329.933 286.358C330.976 287.445 331.567 288.892 331.583 290.393L331.579 290.694C329.939 331.882 329.074 361.485 329.074 376.315C329.074 400.548 347.709 420.077 369.604 434.626C391.443 449.139 416.21 458.484 427.845 462.422H427.844C430.001 463.15 432.92 463.826 435.797 464.25C438.692 464.678 441.448 464.836 443.31 464.58L443.318 464.579L443.952 464.489C445.431 464.261 446.921 463.912 448.519 463.547L449.745 463.267C455.773 461.903 463.31 460.525 472.736 463.976L473.717 464.35L473.72 464.352L474.23 464.561C479.468 466.77 483.897 470.404 487.073 475.103L487.375 475.553C490.45 480.232 492.077 485.7 492.077 491.368C492.077 503.304 482.352 513 470.4 513H241.822C220.593 513 209.529 504.144 203.93 496.288L203.405 495.531C197.574 486.896 195.606 476.267 195.893 465.824C196.171 455.702 198.567 445.677 201.706 437.645L202.011 436.875C202.779 434.948 203.611 433.002 204.46 431V430.999L205.958 427.452C209.483 418.99 213.16 409.02 215.379 393.269L215.429 392.968C216.024 389.891 218.961 387.782 222.071 388.228H222.072C225.21 388.67 227.426 391.496 227.147 394.618L227.112 394.921C224.356 414.467 219.364 426.23 215.37 435.63C214.546 437.574 213.753 439.433 213.015 441.286L213.013 441.29C210.248 448.15 208.06 456.773 207.695 465.34C207.33 473.917 208.795 482.34 213.225 488.903L213.483 489.278C218.961 497.087 228.401 501.154 241.827 501.154H470.405C475.829 501.154 480.236 496.763 480.236 491.373C480.236 487.909 479.212 484.591 477.284 481.771L477.28 481.765C475.32 478.855 472.581 476.65 469.342 475.361V475.362C462.278 472.561 457.015 473.754 451.178 475.095L451.179 475.096C449.052 475.587 446.953 476.061 444.874 476.33L444.873 476.329C438.865 477.137 429.677 475.549 424.06 473.657H424.058C410.891 469.201 385.613 459.519 362.934 444.393L361.857 443.668C332.4 423.719 317.238 401.072 317.238 376.325C317.238 362.071 318.022 334.506 319.512 296.39H220.923C226.545 320.13 229.185 340.716 229.185 360.621C229.185 363.663 229.136 366.605 229.086 369.386V369.387C229.026 372.701 226.24 375.121 223.102 375.208L223.08 375.208L222.751 375.195C219.627 374.98 217.182 372.351 217.24 369.178L217.308 364.988C217.327 363.56 217.338 362.102 217.338 360.621C217.338 339.727 214.257 317.904 207.626 291.935V291.934C207.171 290.161 207.569 288.279 208.686 286.836L208.687 286.835L208.905 286.571C210.027 285.284 211.649 284.539 213.366 284.539H325.662Z" fill="#0055CC" stroke="#0055CC" stroke-width="2"/>
<path d="M256.096 396.992C258.23 394.696 261.819 394.46 264.24 396.497H264.239C266.668 398.535 267.042 402.106 265.153 404.604L264.963 404.842C262.911 407.288 261.824 410.284 261.824 413.538C261.824 421.125 268.025 427.308 275.644 427.308C282.478 427.307 288.339 422.218 289.27 415.484L289.273 415.453C289.388 414.778 289.412 414.176 289.412 413.538C289.412 412.181 289.238 410.994 288.897 409.896L288.813 409.603C288.024 406.567 289.754 403.418 292.777 402.472C295.891 401.489 299.216 403.228 300.198 406.351L300.328 406.778C300.957 408.923 301.259 411.144 301.259 413.538C301.259 414.775 301.182 416.028 300.987 417.234L300.988 417.235C299.265 429.683 288.361 439.154 275.644 439.154C261.491 439.154 249.979 427.665 249.979 413.538C249.979 407.471 252.024 401.828 255.894 397.221L256.096 396.992Z" fill="#0055CC" stroke="#0055CC" stroke-width="2"/>
<path d="M192.834 35.8286C194.428 35.3874 196.146 35.6293 197.558 36.5132L198.491 37.1206C205.703 41.9321 249.53 73.5304 261.272 138.12L261.556 139.734C273.15 207.942 231.415 262.54 229.609 264.865L229.608 264.866C228.46 266.34 226.724 267.151 224.931 267.151C224.287 267.151 223.643 267.044 223.017 266.833L223.013 266.832C220.62 266.014 219.009 263.764 219.003 261.241V261.238L219.002 261.207C219.002 261.186 219.002 261.155 219.001 261.117C219 261.039 218.997 260.926 218.993 260.778C218.985 260.483 218.969 260.048 218.941 259.477C218.886 258.334 218.78 256.64 218.579 254.413C218.176 249.957 217.392 243.361 215.867 234.735C212.913 218.022 207.177 193.689 196.044 162.544L194.949 159.509C170.091 91.1498 188.047 41.6483 188.868 39.4565C189.492 37.7887 190.837 36.4999 192.514 35.9272L192.517 35.9263L192.834 35.8286ZM197.774 51.4028C194.001 67.4105 188.307 106.559 206.09 155.458L207.54 159.49C221.382 198.387 227.004 226.701 229.29 243.446C240.644 223.381 257.629 184.292 249.615 140.231V140.23C240.695 91.1667 211.06 62.2116 197.774 51.4028Z" fill="#0055CC" stroke="#0055CC" stroke-width="2"/>
<path d="M188.312 69.1538C191.005 69.1538 193.29 70.9314 194.002 73.4048C202.612 95.7945 220.377 123.717 256.33 131.502L256.626 131.575C259.653 132.393 261.532 135.447 260.867 138.543L260.866 138.546C260.262 141.319 257.809 143.212 255.079 143.212C254.667 143.212 254.25 143.172 253.827 143.083L253.819 143.082C210.195 133.634 190.574 97.6768 182.775 77.2153L182.774 77.2124C182.52 76.5389 182.39 75.8277 182.39 75.106C182.39 71.8442 185.035 69.1539 188.312 69.1538Z" fill="#0055CC" stroke="#0055CC" stroke-width="2"/>
<path d="M194.471 132.189C196.814 132.189 198.837 133.532 199.8 135.504C211.319 154.343 230.113 178.614 255.21 189.775L256.411 190.296V190.297L256.688 190.423C259.505 191.793 260.783 195.147 259.544 198.067C258.594 200.322 256.395 201.674 254.095 201.674C253.322 201.674 252.534 201.519 251.781 201.202L251.779 201.201C223.782 189.308 203.217 163.43 190.608 143.165L189.413 141.221L189.412 141.219C188.851 140.293 188.548 139.233 188.548 138.141C188.549 134.879 191.194 132.189 194.471 132.189Z" fill="#0055CC" stroke="#0055CC" stroke-width="2"/>
</g>
<defs>
<clipPath id="clip0_15_498">
<rect width="512" height="512" fill="white"/>
</clipPath>
</defs>
</svg>
