<svg id="Layer_1" enable-background="new 0 0 64 64" viewBox="0 0 64 64" xmlns="http://www.w3.org/2000/svg" width="300" height="300" version="1.1" xmlns:xlink="http://www.w3.org/1999/xlink" xmlns:svgjs="http://svgjs.dev/svgjs"><g width="100%" height="100%" transform="matrix(1,0,0,1,0,0)"><g><path d="m53.74 19.31c-1.41 0-2.57 1.04-2.75 2.42h-1.13c-.37 0-.69-.24-.75-.56-.47-2.41-1.44-4.67-2.88-6.71-.19-.28-.15-.65.1-.9l.77-.77c.49.38 1.08.57 1.69.57.74 0 1.47-.3 1.97-.82 1.08-1.09 1.08-2.85 0-3.94l-3.13-3.14c-.52-.51-1.22-.77-1.96-.77-.75 0-1.46.28-1.99.78-.99 1.02-1.08 2.58-.23 3.68l-.82.82c-.15.15-.34.23-.53.23-.13 0-.26-.03-.36-.11-2.06-1.4-4.36-2.32-6.84-2.74-.31-.05-.54-.36-.54-.71v-1.09c1.39-.18 2.43-1.35 2.43-2.76 0-1.54-1.26-2.78-2.79-2.78h-4.42c-1.55 0-2.8 1.25-2.8 2.78 0 1.4 1.07 2.59 2.44 2.76v1.13c0 .37-.24.68-.57.74-2.45.5-4.71 1.47-6.72 2.89-.11.08-.24.13-.38.13-.2 0-.38-.08-.53-.23l-.77-.77c.38-.5.58-1.08.58-1.68 0-.74-.3-1.45-.82-1.97-.53-.53-1.23-.83-1.98-.83-.74 0-1.45.3-1.97.83l-3.13 3.11c-.54.53-.82 1.24-.82 1.97 0 .75.29 1.46.82 1.99s1.22.81 1.97.81c.61 0 1.21-.21 1.69-.57l.82.82c.25.25.3.62.12.89-1.4 2.06-2.32 4.35-2.74 6.82-.05.32-.36.55-.71.55h-1.08c-.18-1.38-1.34-2.42-2.74-2.42-1.55 0-2.79 1.25-2.79 2.79v4.42c0 1.54 1.25 2.78 2.79 2.78 1.4 0 2.58-1.07 2.75-2.43h1.13c.36 0 .67.24.74.57.49 2.45 1.46 4.71 2.89 6.72.19.28.15.65-.1.9l-.77.77c-.48-.35-1.07-.54-1.69-.54-.76 0-1.48.29-1.97.78-1.09 1.11-1.09 2.84 0 3.95l3.12 3.12c.53.53 1.25.82 1.98.82.74 0 1.45-.3 1.97-.82.53-.53.81-1.23.81-1.97 0-.62-.2-1.21-.57-1.69l.82-.83c.15-.14.34-.22.53-.22.13 0 .26.03.36.11 2.06 1.39 4.36 2.32 6.84 2.74.31.05.54.36.54.71v1.05c-1.39.19-2.43 1.35-2.43 2.77 0 1.54 1.26 2.79 2.79 2.79h4.42c1.54 0 2.78-1.26 2.78-2.79 0-1.41-1.06-2.6-2.42-2.77v-1.09c0-.37.24-.68.56-.74 2.46-.5 4.72-1.47 6.73-2.89.11-.08.24-.13.38-.13.2 0 .38.08.53.23l.76.76c-.37.49-.57 1.08-.57 1.69 0 .75.3 1.46.82 1.98.53.52 1.23.8 1.97.8.75 0 1.46-.29 1.98-.81l3.1-3.12c.53-.51.83-1.23.83-1.98 0-.74-.3-1.47-.81-1.96-.51-.52-1.22-.8-1.97-.8-.63 0-1.23.2-1.7.55l-.82-.82c-.25-.25-.3-.62-.12-.89 1.4-2.06 2.32-4.36 2.74-6.82.05-.32.36-.55.71-.55h1.07c.19 1.38 1.35 2.42 2.75 2.42 1.55 0 2.79-1.25 2.79-2.79v-4.43c.02-1.54-1.22-2.79-2.77-2.79zm-26.75 17.98c-2.99 0-5.43-2.44-5.43-5.43s2.44-5.43 5.43-5.43c3 0 5.43 2.44 5.43 5.43s-2.43 5.43-5.43 5.43zm5.59-19.15c-.12.17-.3.29-.51.33l-1.87.33c-.02.34-.08.67-.19 1.01l1.65.95c.18.1.31.27.37.48.05.2.02.42-.08.59-.14.24-.41.4-.68.4-.14 0-.27-.04-.39-.11l-1.66-.96c-.23.26-.49.48-.77.65l.65 1.8c.07.2.06.41-.03.59-.09.2-.25.34-.45.41-.08.04-.17.05-.27.05-.33 0-.62-.21-.73-.52l-.65-1.78c-.17.02-.34.03-.51.03-.18 0-.35-.01-.52-.03l-.65 1.78c-.11.31-.41.52-.73.52-.1 0-.19-.01-.27-.05-.2-.07-.36-.21-.45-.41-.09-.19-.1-.4-.03-.59l.66-1.8c-.3-.18-.55-.4-.78-.65l-1.65.96c-.13.07-.26.11-.4.11-.28 0-.54-.16-.68-.4-.22-.38-.09-.85.29-1.07l1.65-.95c-.11-.34-.17-.67-.18-1.01l-1.88-.33c-.2-.04-.39-.16-.51-.33-.12-.18-.16-.39-.13-.58.07-.38.39-.65.77-.65l.14.02 1.89.33c.13-.32.3-.61.51-.88l-1.24-1.47c-.13-.16-.2-.36-.18-.57s.12-.4.28-.53c.14-.12.33-.19.51-.19.24 0 .46.1.6.28l1.23 1.47c.3-.16.61-.27.95-.35v-1.92c0-.44.36-.78.79-.78s.78.35.78.78v1.91c.34.08.65.19.95.35l1.23-1.47c.15-.18.38-.28.6-.28.19 0 .37.07.51.19.16.13.26.32.28.53.02.22-.05.42-.18.57l-1.24 1.47c.21.27.38.56.51.88l1.92-.34.11-.01c.39 0 .7.28.77.65.06.2.01.42-.11.59zm6.01 14.66c-2.12 0-3.84-1.72-3.84-3.84s1.72-3.83 3.84-3.83 3.83 1.71 3.83 3.83c.01 2.12-1.71 3.84-3.83 3.84zm0-9.31c-2.12 0-3.84-1.72-3.84-3.83 0-2.12 1.72-3.84 3.84-3.84s3.83 1.72 3.83 3.84c.01 2.11-1.71 3.83-3.83 3.83z" fill="#0055cc" fill-opacity="1" data-original-color="#000000ff" stroke="none" stroke-opacity="1"/><path d="m26.99 28.01c-2.12 0-3.85 1.72-3.85 3.85s1.73 3.86 3.85 3.86c2.13 0 3.86-1.73 3.86-3.86.01-2.13-1.73-3.85-3.86-3.85z" fill="#0055cc" fill-opacity="1" data-original-color="#000000ff" stroke="none" stroke-opacity="1"/><path d="m38.59 26.69c-1.25 0-2.27 1.02-2.27 2.27s1.02 2.27 2.27 2.27 2.27-1.02 2.27-2.27-1.02-2.27-2.27-2.27z" fill="#0055cc" fill-opacity="1" data-original-color="#000000ff" stroke="none" stroke-opacity="1"/><path d="m38.59 17.38c-1.25 0-2.27 1.02-2.27 2.28 0 1.25 1.02 2.27 2.27 2.27s2.27-1.02 2.27-2.27c0-1.26-1.02-2.28-2.27-2.28z" fill="#0055cc" fill-opacity="1" data-original-color="#000000ff" stroke="none" stroke-opacity="1"/><path d="m48.55 52.55h-32.66c-3.15 0-5.73 2.58-5.73 5.73 0 3.16 2.58 5.73 5.73 5.73h32.66c3.16 0 5.73-2.57 5.73-5.73s-2.57-5.73-5.73-5.73zm-30.93 7.59c.41 0 .79-.14 1.11-.4.14-.11.32-.18.5-.18.24 0 .46.11.6.3.28.34.23.83-.11 1.1-.59.49-1.34.75-2.1.75-1.83 0-3.33-1.5-3.33-3.34 0-1.83 1.5-3.32 3.33-3.32.78 0 1.52.26 2.1.75.17.13.27.32.29.53s-.05.42-.18.57c-.15.19-.38.29-.6.29-.19 0-.37-.07-.51-.18-.31-.26-.68-.4-1.1-.4-.97 0-1.76.79-1.76 1.75 0 .98.79 1.78 1.76 1.78zm8.64-1.1c0 1.48-1.2 2.67-2.66 2.67-1.48 0-2.67-1.2-2.67-2.67v-1.32c0-1.47 1.2-2.67 2.67-2.67s2.66 1.2 2.66 2.67zm5.7-2.93-1.94 5.09c-.12.3-.42.51-.73.51-.33 0-.62-.21-.73-.51l-1.95-5.09c-.08-.19-.07-.41.02-.59.08-.2.24-.34.44-.42.09-.03.18-.05.28-.05.32 0 .61.2.73.51l1.22 3.17 1.21-3.17c.12-.31.42-.51.73-.51.1 0 .2.02.29.05.19.08.35.22.44.42.05.19.06.41-.01.59zm2.58 4.81c0 .44-.36.79-.79.79s-.78-.36-.78-.79v-5.08c0-.44.36-.78.78-.78.44 0 .79.35.79.78zm2.68.79h-.83c-.43 0-.78-.36-.78-.79v-5.08c0-.44.36-.78.78-.78h.83c1.78 0 3.23 1.49 3.23 3.33 0 1.83-1.45 3.32-3.23 3.32zm6.83-.79c0 .44-.36.79-.78.79-.44 0-.79-.36-.79-.79v-4.3h-.28c-.44 0-.78-.35-.78-.78 0-.44.35-.78.78-.78h1.07c.43 0 .78.35.78.78zm6.09-3.43-.31.1.3.03c-.01.08-.02.15-.03.22-.22 1.73-1.04 3.01-2.42 3.77-.12.06-.25.1-.38.1-.29 0-.55-.16-.69-.42-.21-.38-.07-.85.32-1.06.22-.12.42-.27.59-.44-1.3-.08-2.33-1.16-2.33-2.48 0-1.37 1.11-2.48 2.48-2.48s2.49 1.11 2.49 2.48z" fill="#0055cc" fill-opacity="1" data-original-color="#000000ff" stroke="none" stroke-opacity="1"/><path d="m23.59 56.62c-.61 0-1.11.5-1.11 1.1v1.32c0 .6.5 1.1 1.11 1.1.6 0 1.1-.5 1.1-1.1v-1.32c0-.61-.49-1.1-1.1-1.1z" fill="#0055cc" fill-opacity="1" data-original-color="#000000ff" stroke="none" stroke-opacity="1"/><path d="m47.67 56.41c-.5 0-.9.41-.9.91 0 .51.41.91.9.91.47 0 .85-.36.89-.83l.02-.11c-.01-.47-.42-.88-.91-.88z" fill="#0055cc" fill-opacity="1" data-original-color="#000000ff" stroke="none" stroke-opacity="1"/><path d="m37.22 56.62h-.05v3.52h.05c.91 0 1.65-.79 1.65-1.75 0-.98-.74-1.77-1.65-1.77z" fill="#0055cc" fill-opacity="1" data-original-color="#000000ff" stroke="none" stroke-opacity="1"/><path d="m26.47 16.49c-1.2 0-2.17.97-2.17 2.17s.97 2.17 2.17 2.17c1.19 0 2.16-.97 2.16-2.17s-.97-2.17-2.16-2.17z" fill="#0055cc" fill-opacity="1" data-original-color="#000000ff" stroke="none" stroke-opacity="1"/></g></g></svg>