<svg width="512" height="512" viewBox="0 0 512 512" fill="none" xmlns="http://www.w3.org/2000/svg">
<path d="M224.41 112.819H143.437C134.195 125.286 124.954 137.788 115.712 150.323V163.917H160.768C162.465 163.917 164.093 164.591 165.293 165.791C166.494 166.991 167.168 168.619 167.168 170.317C167.168 172.014 166.494 173.642 165.293 174.842C164.093 176.042 162.465 176.717 160.768 176.717H115.712V205.158H160.768C162.465 205.158 164.093 205.833 165.293 207.033C166.494 208.233 167.168 209.861 167.168 211.558C167.168 213.256 166.494 214.884 165.293 216.084C164.093 217.284 162.465 217.958 160.768 217.958H115.712V242.022H160.768C162.465 242.022 164.093 242.697 165.293 243.897C166.494 245.097 167.168 246.725 167.168 248.422C167.168 250.12 166.494 251.748 165.293 252.948C164.093 254.148 162.465 254.822 160.768 254.822H115.712V329.958H127.974L238.336 243.225L254.131 230.835V150.323C244.224 137.805 234.317 125.303 224.41 112.819Z" fill="#0055CC"/>
<path d="M153.318 82.7393H216.499V100.019H153.318V82.7393Z" fill="#0055CC"/>
<path d="M340.941 288.358L255.488 359.501L253.363 361.267L191.539 412.749L174.029 391.731L165.837 381.901L148.326 360.883L157.133 353.587L240.281 284.339C240.502 285.176 240.904 285.954 241.459 286.617L258.15 306.816C258.746 307.542 259.496 308.126 260.347 308.525C261.197 308.924 262.126 309.127 263.065 309.12C264.553 309.136 265.997 308.619 267.136 307.661C267.785 307.126 268.322 306.469 268.717 305.727C269.112 304.985 269.357 304.172 269.438 303.335C269.519 302.499 269.434 301.654 269.188 300.85C268.943 300.046 268.541 299.298 268.006 298.649L251.341 278.477C250.772 277.791 250.066 277.232 249.267 276.838L262.989 265.421L264.371 264.269C264.566 264.742 264.834 265.183 265.165 265.574L281.83 285.747C282.429 286.478 283.184 287.066 284.038 287.468C284.893 287.871 285.826 288.079 286.771 288.077C287.985 288.077 289.173 287.732 290.199 287.083C291.224 286.433 292.043 285.505 292.561 284.408C293.079 283.31 293.274 282.088 293.124 280.884C292.973 279.68 292.484 278.543 291.712 277.606L275.021 257.408C274.697 257.006 274.318 256.653 273.894 256.358L297.753 236.493L340.941 288.358Z" fill="#0055CC"/>
<path d="M109.798 428.544C108.495 429.631 107.677 431.19 107.523 432.88C107.37 434.57 107.893 436.251 108.979 437.555C109.575 438.282 110.325 438.866 111.176 439.264C112.026 439.663 112.955 439.866 113.894 439.859C115.392 439.862 116.843 439.336 117.99 438.374L164.173 399.923L156.006 390.093L109.798 428.544Z" fill="#0055CC"/>
<path d="M378.342 260.736L331.699 204.723C330.599 203.466 329.051 202.688 327.385 202.557C325.72 202.426 324.069 202.951 322.785 204.021C321.502 205.09 320.687 206.619 320.516 208.281C320.345 209.943 320.83 211.606 321.869 212.915L341.095 236.006L325.069 249.318L333.287 259.174L349.287 245.837L368.512 268.928C369.107 269.654 369.858 270.239 370.708 270.637C371.559 271.036 372.488 271.239 373.427 271.232C374.643 271.231 375.834 270.885 376.86 270.232C377.886 269.579 378.705 268.647 379.221 267.546C379.737 266.445 379.928 265.219 379.772 264.013C379.617 262.807 379.121 261.67 378.342 260.736Z" fill="#0055CC"/>
<path d="M396.621 111.897C396.053 110.299 394.874 108.991 393.343 108.262C391.812 107.532 390.053 107.44 388.454 108.006L374.093 113.126C371.651 107.569 368.066 102.588 363.571 98.5087L363.545 98.4831C363.844 98.1785 364.11 97.844 364.339 97.4847L371.225 85.9391C371.657 85.218 371.943 84.4188 372.066 83.5873C372.19 82.7558 372.148 81.9081 371.943 81.0927C371.739 80.2774 371.376 79.5102 370.875 78.8352C370.374 78.1601 369.745 77.5903 369.024 77.1583C368.303 76.7263 367.504 76.4406 366.672 76.3174C365.841 76.1943 364.993 76.2361 364.177 76.4405C363.362 76.645 362.595 77.008 361.92 77.5089C361.245 78.0098 360.675 78.6388 360.243 79.3599L353.331 90.9311C353.244 91.0968 353.167 91.2678 353.101 91.4431H353.075C345.172 87.6622 336.314 86.3508 327.654 87.6799C327.615 87.4723 327.564 87.2671 327.501 87.0655L323.379 74.9567C323.108 74.1599 322.684 73.4243 322.129 72.7918C321.574 72.1592 320.9 71.6422 320.145 71.2701C319.39 70.8981 318.569 70.6784 317.73 70.6235C316.89 70.5686 316.048 70.6797 315.251 70.9503C314.454 71.2209 313.719 71.6458 313.086 72.2008C312.454 72.7557 311.937 73.4298 311.565 74.1845C311.192 74.9393 310.973 75.7599 310.918 76.5996C310.863 77.4393 310.974 78.2815 311.245 79.0783L315.392 91.1871C315.422 91.2741 315.456 91.3596 315.494 91.4431C310.136 94.0139 305.361 97.6558 301.465 102.144L301.44 102.17C301.327 102.068 301.207 101.974 301.081 101.888L290.304 95.0015C288.876 94.1677 287.182 93.9186 285.575 94.3064C283.968 94.6942 282.573 95.6888 281.683 97.0819C280.793 98.4749 280.476 100.158 280.799 101.78C281.123 103.401 282.061 104.834 283.417 105.779L294.195 112.665C294.332 112.749 294.478 112.818 294.63 112.87C294.623 112.87 294.617 112.873 294.612 112.878C294.607 112.883 294.605 112.889 294.605 112.896C292.899 116.669 291.752 120.671 291.2 124.774C290.515 129.743 290.697 134.793 291.737 139.699V139.725C291.481 139.776 291.225 139.827 290.969 139.904L278.221 144.256C277.396 144.503 276.63 144.913 275.968 145.463C275.305 146.012 274.761 146.69 274.366 147.455C273.972 148.22 273.736 149.056 273.672 149.914C273.609 150.773 273.719 151.635 273.996 152.45C274.273 153.264 274.712 154.015 275.286 154.656C275.86 155.297 276.558 155.816 277.337 156.182C278.116 156.547 278.961 156.752 279.821 156.783C280.681 156.815 281.539 156.672 282.342 156.365L295.091 152.038C295.455 151.907 295.806 151.745 296.141 151.552C299.006 156.804 302.929 161.407 307.661 165.069L299.648 178.406C299.216 179.127 298.93 179.927 298.807 180.758C298.683 181.59 298.725 182.437 298.93 183.253C299.134 184.068 299.497 184.835 299.998 185.51C300.499 186.185 301.128 186.755 301.849 187.187C302.848 187.784 303.989 188.102 305.152 188.109C306.256 188.103 307.341 187.812 308.301 187.265C309.26 186.718 310.063 185.933 310.63 184.986L318.822 171.341C326.285 174.158 334.373 174.892 342.221 173.466L347.494 189.363C347.922 190.64 348.741 191.75 349.834 192.535C350.928 193.321 352.241 193.743 353.587 193.741C354.275 193.741 354.958 193.628 355.609 193.408C357.218 192.87 358.547 191.717 359.306 190.2C360.064 188.683 360.189 186.927 359.654 185.318L354.329 169.293C358.857 166.939 362.937 163.811 366.387 160.051L380.518 169.318C381.22 169.807 382.013 170.151 382.851 170.328C383.688 170.506 384.552 170.513 385.392 170.351C386.232 170.188 387.031 169.859 387.742 169.382C388.452 168.906 389.06 168.291 389.529 167.576C389.999 166.86 390.319 166.058 390.473 165.216C390.627 164.374 390.61 163.51 390.424 162.675C390.237 161.84 389.886 161.05 389.389 160.353C388.893 159.656 388.261 159.066 387.533 158.617L373.529 149.427C375.5 145.37 376.805 141.022 377.395 136.55C377.902 132.883 377.936 129.167 377.497 125.491L392.755 120.064C393.547 119.784 394.275 119.35 394.899 118.787C395.522 118.225 396.028 117.544 396.387 116.785C396.747 116.026 396.952 115.204 396.992 114.365C397.032 113.526 396.906 112.687 396.621 111.897ZM319.411 111.078C319.55 110.025 319.999 109.038 320.7 108.24C321.402 107.442 322.324 106.871 323.351 106.598C324.377 106.326 325.461 106.364 326.466 106.708C327.471 107.052 328.351 107.687 328.994 108.532C329.638 109.377 330.016 110.394 330.081 111.454C330.146 112.514 329.895 113.569 329.359 114.486C328.823 115.404 328.028 116.141 327.072 116.605C326.117 117.07 325.046 117.24 323.993 117.094C322.591 116.897 321.324 116.155 320.466 115.028C319.608 113.902 319.229 112.482 319.411 111.078ZM332.698 147.328C332.556 148.376 332.106 149.359 331.406 150.152C330.706 150.944 329.786 151.512 328.764 151.782C327.741 152.052 326.661 152.013 325.661 151.669C324.661 151.326 323.785 150.693 323.144 149.852C322.503 149.01 322.126 147.998 322.06 146.942C321.995 145.886 322.244 144.835 322.776 143.921C323.308 143.007 324.1 142.271 325.05 141.807C326 141.342 327.067 141.17 328.115 141.312C328.812 141.405 329.483 141.634 330.09 141.987C330.698 142.34 331.23 142.809 331.656 143.368C332.081 143.927 332.392 144.565 332.571 145.244C332.75 145.924 332.793 146.632 332.698 147.328ZM361.574 133.709C361.433 134.757 360.983 135.74 360.283 136.532C359.583 137.325 358.663 137.893 357.641 138.163C356.618 138.433 355.538 138.394 354.538 138.05C353.537 137.707 352.661 137.074 352.02 136.233C351.379 135.391 351.002 134.379 350.937 133.323C350.872 132.267 351.121 131.216 351.653 130.302C352.185 129.388 352.976 128.652 353.927 128.187C354.877 127.723 355.944 127.551 356.992 127.693C357.688 127.786 358.36 128.015 358.967 128.368C359.575 128.721 360.107 129.19 360.532 129.749C360.958 130.308 361.269 130.946 361.448 131.625C361.627 132.305 361.67 133.013 361.574 133.709Z" fill="#0055CC"/>
</svg>
