<svg width="100" height="100" viewBox="0 0 100 100" fill="none" xmlns="http://www.w3.org/2000/svg">
<path d="M14.9399 49.119C14.6669 48.231 15.1639 47.291 16.0499 47.017L24.0799 44.54C24.6879 44.358 25.3509 44.523 25.7909 44.987C26.2309 45.446 26.3729 46.116 26.1579 46.715L25.5899 48.297L30.4079 46.81C31.2909 46.533 32.2359 47.033 32.5099 47.921C32.7829 48.809 32.2859 49.749 31.3999 50.023L23.3689 52.5C23.2059 52.549 23.0399 52.574 22.8729 52.574C22.4209 52.574 21.9799 52.392 21.6579 52.054C21.2179 51.594 21.0759 50.925 21.2909 50.325L21.8589 48.743L17.0419 50.23C16.1539 50.502 15.2119 50.005 14.9399 49.119ZM30.1809 31.752L28.5059 31.897C27.8719 31.951 27.3229 32.358 27.0879 32.95C26.8529 33.541 26.9729 34.216 27.3969 34.69L32.9949 40.957C33.3269 41.33 33.7869 41.519 34.2489 41.519C34.6469 41.519 35.0479 41.378 35.3679 41.092C36.0599 40.473 36.1199 39.411 35.5019 38.719L32.1429 34.959L33.8179 34.814C34.4529 34.76 35.0019 34.353 35.2359 33.761C35.4719 33.17 35.3519 32.495 34.9289 32.021L29.3319 25.753C28.7129 25.059 27.6509 25.001 26.9589 25.618C26.2669 26.237 26.2069 27.299 26.8249 27.991L30.1809 31.752ZM43.9339 30.59C44.0859 30.59 44.2369 30.572 44.3879 30.539C44.4089 30.533 44.4259 30.522 44.4469 30.516C45.2999 30.239 45.7939 29.342 45.5639 28.471C45.3359 27.624 44.4429 27.083 43.5759 27.266C43.5499 27.271 43.5229 27.271 43.4969 27.278C43.0599 27.396 42.7069 27.682 42.4879 28.069C42.2529 28.455 42.2029 28.909 42.3199 29.346C42.5219 30.085 43.1779 30.59 43.9339 30.59ZM84.7719 60.889C84.7549 60.881 84.7369 60.879 84.7199 60.872C83.9049 60.54 82.9149 60.906 82.5529 61.697C82.5369 61.713 82.5369 61.713 82.5369 61.713C82.3519 62.133 82.3349 62.588 82.4859 63.008C82.6329 63.414 82.9369 63.737 83.3209 63.926C83.3349 63.933 83.3459 63.942 83.3589 63.948C83.5779 64.048 83.8129 64.099 84.0659 64.099C84.7209 64.099 85.3089 63.713 85.5939 63.124V63.107C85.9649 62.268 85.5949 61.276 84.7719 60.889ZM81.6449 66.839C81.6339 66.831 81.6209 66.826 81.6099 66.818C80.9039 66.327 79.8389 66.481 79.3099 67.176C79.3099 67.192 79.2929 67.192 79.2929 67.192C74.8569 73.209 68.3189 77.512 60.9249 79.293C58.3039 79.932 55.7819 80.252 53.4299 80.252C46.6899 80.236 41.1449 77.68 36.9599 72.655C34.7589 70.018 31.5989 68.488 28.2879 68.488H28.2209C27.2799 68.488 24.8599 68.723 22.7589 70.89C20.7759 72.94 19.7169 76.184 19.7339 80.252V88.655C19.7339 89.578 20.4909 90.335 21.4149 90.335C22.3389 90.335 23.0949 89.578 23.0949 88.655V80.25C23.2299 72.351 26.9939 71.964 28.2209 71.847H28.2879C30.5909 71.847 32.8089 72.922 34.3719 74.804C37.6659 78.82 43.6489 83.611 53.3619 83.611H53.4299C56.0679 83.611 58.8579 83.258 61.7149 82.569C69.8819 80.586 77.0919 75.847 81.9999 69.192C82.5529 68.452 82.3849 67.394 81.6449 66.839ZM88.4349 44.975C87.2759 35.026 82.4859 30.203 78.6539 27.9C74.4359 25.346 69.9149 24.791 66.8739 24.791C65.2099 24.791 60.9409 25.061 57.1429 27.412C56.5379 27.764 55.8829 27.966 55.1939 27.966C53.2439 27.933 51.7649 26.588 51.7489 24.841V11.347C51.7489 10.91 51.5639 10.472 51.2449 10.154C50.9429 9.85 50.5049 9.666 50.0689 9.666H43.3459C42.8919 9.666 42.4729 9.85 42.1529 10.154C41.8509 10.472 41.6659 10.91 41.6659 11.347V22.236C41.6659 23.161 42.4199 23.915 43.3439 23.916C43.3449 23.916 43.3459 23.917 43.3469 23.917C44.2709 23.917 45.0279 23.162 45.0279 22.236V13.028H48.3889V24.875C48.4729 28.909 51.8839 31.328 55.1279 31.312H55.2119C56.5059 31.312 57.7839 30.959 58.9099 30.27C61.3809 28.707 64.6239 28.153 66.8259 28.153H66.9269C69.0449 28.153 73.1789 28.489 76.9099 30.774C81.5649 33.648 84.2539 38.42 85.0939 45.379C85.2449 46.605 85.3119 47.833 85.3119 49.042C85.3119 51.277 85.0769 53.512 84.5729 55.697C84.3749 56.587 84.9229 57.457 85.7989 57.696C85.8169 57.701 85.8319 57.709 85.8499 57.714C85.9679 57.73 86.0849 57.747 86.2199 57.747C86.9929 57.747 87.6819 57.194 87.8509 56.437C88.4049 54.016 88.6739 51.53 88.6739 49.042C88.6699 47.697 88.5869 46.336 88.4349 44.975ZM31.5819 61.764C26.2039 61.78 22.3889 63.192 19.2299 66.318C14.7429 70.838 14.7089 75.494 14.6919 78.569V88.653C14.6919 89.576 13.9359 90.333 13.0109 90.333C12.0869 90.333 11.3299 89.576 11.3299 88.653V78.57C11.2959 74.334 11.9009 68.856 16.8589 63.932C20.5049 60.267 25.4299 58.403 31.4799 58.403H31.6309C35.8649 58.403 39.0859 58.993 41.5219 59.698C41.5119 55.697 40.3039 54.05 40.2879 54.029C39.8499 53.46 39.8089 52.659 40.2059 52.06C40.6039 51.459 41.3259 51.16 42.0199 51.346C44.3529 51.958 46.5489 52.785 48.2749 53.686C48.5219 52.66 48.7569 51.486 48.7569 50.984L48.7609 48.921C48.7629 48.406 48.7669 47.817 48.7669 45.023C48.7669 43.635 49.1919 42.453 49.8549 41.451C48.1449 40.005 46.5639 38.147 45.1929 35.933C44.7059 35.144 44.9589 34.102 45.7479 33.614C45.7639 33.604 45.7819 33.6 45.7979 33.59C46.5659 33.159 47.5899 33.428 48.0499 34.169C49.2529 36.136 50.7029 37.801 52.2449 39.052C54.6409 37.344 57.4289 36.65 57.6329 36.601C58.3689 36.427 59.1229 36.758 59.4909 37.412C59.8579 38.068 59.7469 38.889 59.2169 39.421C59.2169 39.423 58.6509 40.06 58.7779 41.056C58.9529 42.432 60.3589 44.048 62.7369 45.607C65.7309 47.568 66.2999 50.845 66.3149 53.251C67.8579 52.53 69.7109 51.874 71.7239 51.346C72.4599 51.158 73.2329 51.48 73.6099 52.14C73.9839 52.798 73.8719 53.623 73.3389 54.158C73.1879 54.314 70.1319 57.562 72.2269 63.324C73.1499 65.866 72.4229 67.714 71.6499 68.817C68.7069 73.016 60.4449 73.515 56.8839 73.526C56.8799 73.526 56.8759 73.527 56.8719 73.527C56.8679 73.527 56.8649 73.526 56.8619 73.526C56.8259 73.527 56.7879 73.527 56.7529 73.527C51.9749 73.527 45.6559 72.798 42.6939 69.327C41.3699 67.777 40.8519 65.807 41.1969 63.634C41.2249 63.462 41.2419 63.305 41.2649 63.138C38.8759 62.368 35.8329 61.764 31.5819 61.764ZM48.2269 57.585C47.4999 57.04 46.2279 56.338 44.4859 55.663C44.7789 56.981 44.9579 58.689 44.8619 60.815C44.8369 61.365 44.7949 61.94 44.7299 62.549C44.6739 63.068 44.6079 63.601 44.5189 64.163C44.5139 64.194 44.5119 64.222 44.5079 64.253C44.3399 65.43 44.5749 66.353 45.2519 67.147C46.1069 68.148 47.6629 68.924 49.7569 69.44C49.3269 68.588 49.0829 67.648 49.0829 66.656C49.0829 65.406 49.8709 63.511 50.9119 61.545C52.5039 58.541 54.6939 55.369 55.6219 54.067C55.9399 53.62 56.4799 53.34 57.0059 53.361C57.2359 53.363 57.4549 53.421 57.6589 53.511C57.9429 53.635 58.1959 53.828 58.3769 54.091C59.8529 56.244 64.6669 63.512 64.6669 66.656C64.6669 67.634 64.4309 68.563 64.0109 69.407C66.3989 68.834 68.1459 67.966 68.9009 66.888C69.1989 66.465 69.5379 65.754 69.0719 64.472C67.7779 60.911 68.0029 58.016 68.6549 55.892C66.8319 56.647 65.8739 57.313 65.5409 57.571C65.0039 57.985 64.2709 58.037 63.6839 57.7C62.6659 57.123 62.7639 56.095 62.8499 55.189C63.0099 53.51 63.3419 50.018 60.8969 48.414C60.2349 47.98 59.6339 47.539 59.0899 47.093C58.4559 46.572 57.9029 46.042 57.4319 45.505C56.6759 44.644 56.1309 43.764 55.7959 42.868C55.6089 42.366 55.4849 41.859 55.4309 41.347C55.4199 41.245 55.4129 41.147 55.4069 41.048C54.8529 41.338 54.2949 41.684 53.7989 42.085C53.3339 42.461 52.9259 42.886 52.6299 43.362C52.3199 43.86 52.1299 44.411 52.1299 45.021C52.1299 47.828 52.1269 48.418 52.1239 48.935L52.1199 50.982C52.1199 51.038 51.5719 56.877 50.0419 57.714C49.4629 58.032 48.7549 57.983 48.2269 57.585ZM61.3039 66.657C61.3039 65.445 59.2399 61.61 56.9619 58.047C54.5929 61.612 52.4419 65.453 52.4419 66.657C52.4419 68.584 54.4139 70.153 56.8429 70.166C56.8529 70.166 56.8629 70.167 56.8729 70.167C56.8929 70.167 56.9129 70.165 56.9329 70.165C59.3489 70.138 61.3039 68.575 61.3039 66.657Z" fill="#0055CC"/>
</svg>
