<svg width="512" height="512" viewBox="0 0 512 512" fill="none" xmlns="http://www.w3.org/2000/svg">
<path d="M448.318 170.219C420.049 118.487 402.931 75.103 404.983 0H107.017C109.234 82.245 88.2711 123.942 63.6831 170.219C40.2401 214.709 16.0001 260.715 16.0001 344.161C15.6331 387.991 32.2661 457.139 42.9451 512H233.356L248.138 373.634C250.785 373.476 253.42 373.056 256.001 372.362C258.631 373.067 261.261 373.474 263.861 373.622L278.644 512H469.055C479.585 458.046 496.367 387.771 496 344.161C496 260.715 471.76 214.709 448.318 170.219ZM256.03 292.658C268.413 285.483 276.855 288.868 276.464 304.408C290.402 312.019 288.475 321.303 276.54 328.031C276.921 343.695 268.182 346.878 256.101 339.87C242.797 348.049 235.397 341.914 235.662 328.067C221.535 320.415 223.532 311.398 235.595 304.508C235.202 288.839 243.941 285.65 256.03 292.658ZM444.486 482H305.61L295.892 391.037C313.063 399.467 332.749 403.984 353.231 403.984C377.187 403.984 400.032 397.866 419.296 386.29L403.845 360.575C389.246 369.347 371.744 373.984 353.231 373.984C332.047 373.984 312.719 367.829 298.129 357.746C301.111 353.748 303.333 349.21 304.63 344.353C311.967 337.077 316.219 327.04 316.254 316.411C316.289 305.756 312.055 295.646 304.683 288.277C302.074 278.298 295.532 269.601 286.36 264.247C277.126 258.857 266.219 257.458 256.127 260.169C246.143 257.443 235.31 258.78 226.075 264.074C216.825 269.376 210.188 278.107 207.498 288.184C200.046 295.527 195.745 305.62 195.745 316.266C195.745 326.894 200.033 336.97 207.461 344.31C208.736 349.157 210.946 353.696 213.927 357.699C199.332 367.809 179.984 373.984 158.77 373.984C140.257 373.984 122.755 369.347 108.156 360.575L92.7051 386.29C111.969 397.866 134.814 403.984 158.77 403.984C179.252 403.984 198.937 399.467 216.109 391.037L206.39 482H67.5141C57.7451 434.295 45.6571 378.247 46.0001 344.161C46.0001 268.135 67.4811 227.365 90.2231 184.203C111.757 143.334 133.976 101.159 136.731 30H375.269C378.023 101.159 400.243 143.334 421.777 184.203C444.519 227.365 466 268.135 466 344.161C466.343 378.247 454.255 434.295 444.486 482Z" fill="#0055CC"/>
<path d="M270.466 146.628L241.533 138.702L224.394 201.262H248.283L241.532 225.913L270.467 233.837L287.604 171.262H263.718L270.466 146.628Z" fill="#0055CC"/>
<path d="M159.762 197.096L147.116 174.906L121.051 189.76L153.168 246.115L170.061 229.223L182.718 251.429L208.781 236.571L176.652 180.207L159.762 197.096Z" fill="#0055CC"/>
<path d="M352.238 197.096L335.349 180.206L303.219 236.571L329.281 251.429L341.939 229.224L358.831 246.115L390.949 189.76L364.884 174.906L352.238 197.096Z" fill="#0055CC"/>
</svg>
