<svg width="512" height="512" viewBox="0 0 512 512" fill="none" xmlns="http://www.w3.org/2000/svg">
<path d="M261.714 408.665C277.513 408.665 289.009 398.354 289.069 384.104C289.097 377.423 286.363 371.159 281.371 366.464C276.513 361.896 270.072 359.366 263.241 359.341C244.653 359.26 218.494 355.779 199.432 339.658C191.325 332.801 185.228 324.232 181.17 314.022C175.774 300.446 175.82 286.254 174.803 271.933C173.545 254.229 169.655 235.997 162.563 219.686C156.62 206.015 147.962 192.393 135.402 180.674C111.13 158.027 77.3979 146.543 35.1449 146.543C20.8049 146.543 9.13892 157.639 9.13892 171.276C9.13892 184.915 20.8059 196.01 35.1449 196.01C63.2939 196.01 84.7699 202.731 98.9759 215.986C115.677 231.568 123.203 259.566 123.128 279.012C123.128 319.643 137.607 353.365 165.001 376.531C189.498 397.249 222.882 408.359 261.571 408.663C261.62 408.665 261.666 408.665 261.714 408.665ZM271.781 376.664C273.913 378.669 275.081 381.29 275.069 384.046C275.039 391.39 268.349 394.666 261.732 394.666C261.706 394.666 261.68 394.665 261.653 394.665C259.676 394.649 257.717 394.599 255.773 394.523C252.688 391.623 250.883 387.751 250.766 383.638C250.656 379.76 252.076 376.028 254.687 373.065C257.478 373.221 260.302 373.329 263.185 373.342C266.463 373.354 269.516 374.533 271.781 376.664ZM199.91 371.026C201.065 367.025 203.788 363.675 207.52 361.491C216.919 366.163 227.575 369.487 239.275 371.4C237.525 375.334 236.648 379.629 236.773 384.035C236.861 387.13 237.447 390.143 238.465 392.994C225.076 391.118 212.647 387.677 201.399 382.743C199.282 379.162 198.746 375.061 199.91 371.026ZM145.286 325.775C139.926 312.107 137.201 296.707 137.135 279.666C139.957 276.499 143.994 274.389 148.502 273.796C152.955 273.206 157.382 274.157 161.034 276.383C161.078 277.322 161.115 278.243 161.141 279.121C161.151 292.166 163.021 304.141 166.653 314.844C161.47 315.36 156.432 317.083 151.969 319.964C149.434 321.601 147.195 323.567 145.286 325.775ZM127.116 232.714C129.313 229.65 132.596 227.309 136.5 226.135C141.235 224.712 146.243 225.103 150.529 227.177C155.353 238.808 158.065 250.463 159.544 260.708C155.409 259.635 151.039 259.34 146.673 259.916C142.869 260.417 139.244 261.563 135.939 263.247C134.455 253.233 131.555 242.636 127.116 232.714ZM98.0179 187.14C96.4649 189.821 95.3749 192.671 94.7329 195.592C86.4019 190.779 76.8169 187.251 66.0479 184.995C64.2479 181.668 63.7579 177.917 64.7199 174.201C65.7929 170.051 68.5629 166.512 72.4369 164.242C85.3339 167.016 96.9399 171.35 107.21 177.221C103.478 179.796 100.331 183.148 98.0179 187.14ZM23.1399 171.278C23.1399 165.359 28.5259 160.545 35.1459 160.545C42.1279 160.545 48.8419 160.884 55.2899 161.551C53.4219 164.322 52.0179 167.4 51.1659 170.695C50.1339 174.685 49.9849 178.768 50.6499 182.716C45.6819 182.26 40.5239 182.013 35.1449 182.013C28.5249 182.013 23.1399 177.197 23.1399 171.278ZM108.657 205.877C107.498 201.952 107.996 197.842 110.13 194.159C112.358 190.316 116.051 187.544 120.479 186.263C122.325 187.751 124.121 189.296 125.852 190.911C132.567 197.176 138.013 204.099 142.446 211.298C139.111 211.276 135.748 211.74 132.468 212.726C127.772 214.138 123.554 216.543 120.077 219.687C116.783 214.614 112.983 209.936 108.657 205.877ZM152.659 340.794C153.706 337.139 156.091 333.967 159.563 331.726C163.5 329.184 168.22 328.22 172.848 328.911C177.413 337.138 183.279 344.33 190.394 350.348C191.77 351.512 193.208 352.618 194.675 353.696C190.807 357.356 187.959 361.951 186.46 367.142C185.79 369.464 185.426 371.822 185.342 374.172C181.368 371.623 177.595 368.848 174.043 365.844C165.406 358.54 158.278 350.175 152.659 340.794ZM243.281 271.121H243.424C282.087 270.816 315.471 259.705 339.966 238.988C367.359 215.822 381.839 182.1 381.839 141.443C381.765 122.023 389.291 94.025 405.991 78.443C420.197 65.188 441.673 58.467 469.822 58.467C484.162 58.467 495.828 47.371 495.828 33.734C495.829 20.096 484.162 9 469.822 9C427.569 9 393.838 20.483 369.565 43.131C347.77 63.468 337.727 89.532 333.224 111.639C331.205 121.55 330.135 131.641 329.822 141.746C329.53 151.159 328.812 160.389 326.184 169.486C322.33 182.827 315.43 193.747 305.535 202.115C286.473 218.236 260.314 221.717 241.732 221.798C234.896 221.823 228.455 224.353 223.597 228.921C218.605 233.615 215.871 239.88 215.899 246.561C215.958 260.811 227.453 271.121 243.281 271.121ZM305.058 233.481C306.222 237.51 305.689 241.607 303.579 245.186C292.331 250.122 279.897 253.551 266.512 255.428C267.525 252.583 268.108 249.578 268.196 246.49C268.321 242.085 267.444 237.79 265.695 233.856C277.394 231.943 288.05 228.618 297.449 223.946C301.18 226.13 303.903 229.48 305.058 233.481ZM352.998 182.419C348.535 179.538 343.497 177.816 338.314 177.3C341.947 166.597 343.816 154.622 343.826 141.576C343.852 140.698 343.89 139.777 343.933 138.838C347.582 136.613 352.005 135.664 356.464 136.251C360.971 136.845 365.008 138.955 367.831 142.121C367.763 159.165 365.038 174.564 359.68 188.229C357.772 186.022 355.533 184.056 352.998 182.419ZM354.439 89.631C358.725 87.557 363.733 87.166 368.467 88.589C372.371 89.763 375.654 92.104 377.852 95.168C373.412 105.092 370.511 115.69 369.028 125.7C365.723 124.017 362.098 122.871 358.295 122.37C353.927 121.796 349.558 122.09 345.424 123.163C346.903 112.918 349.615 101.263 354.439 89.631ZM406.951 49.595C404.638 45.604 401.49 42.251 397.759 39.677C408.029 33.806 419.635 29.471 432.532 26.698C436.406 28.968 439.176 32.506 440.25 36.656C441.211 40.373 440.722 44.124 438.922 47.451C428.153 49.708 418.568 53.235 410.237 58.048C409.594 55.126 408.504 52.275 406.951 49.595ZM481.829 33.734C481.829 39.653 476.443 44.467 469.823 44.467C464.444 44.467 459.287 44.715 454.319 45.17C454.985 41.222 454.836 37.139 453.804 33.148C452.952 29.854 451.547 26.776 449.68 24.005C456.127 23.339 462.84 23 469.822 23C476.443 23 481.829 27.815 481.829 33.734ZM379.116 53.367C380.848 51.751 382.643 50.206 384.489 48.719C388.917 50 392.61 52.771 394.838 56.615C396.973 60.298 397.471 64.408 396.311 68.333C391.985 72.392 388.185 77.07 384.889 82.144C381.412 79 377.195 76.595 372.498 75.183C369.218 74.197 365.855 73.733 362.521 73.755C366.955 66.555 372.401 59.633 379.116 53.367ZM332.122 191.367C336.748 190.677 341.469 191.64 345.406 194.182C348.877 196.422 351.263 199.595 352.31 203.249C346.691 212.63 339.563 220.995 330.927 228.299C327.38 231.299 323.594 234.049 319.627 236.595C319.541 234.256 319.176 231.909 318.509 229.598C317.01 224.407 314.163 219.812 310.295 216.152C311.762 215.073 313.2 213.967 314.576 212.804C321.691 206.786 327.557 199.594 332.122 191.367ZM233.187 239.119C235.453 236.988 238.505 235.808 241.788 235.797C244.669 235.784 247.491 235.677 250.281 235.521C252.891 238.484 254.311 242.215 254.201 246.093C254.084 250.204 252.282 254.074 249.199 256.974C247.261 257.05 245.312 257.106 243.341 257.122C243.315 257.122 243.288 257.122 243.262 257.122C236.618 257.122 229.929 253.846 229.898 246.502C229.887 243.745 231.055 241.124 233.187 239.119ZM476.854 240.879C434.601 240.879 400.87 252.362 376.597 275.01C356.398 293.858 346.293 317.625 341.337 338.602C338.69 349.804 337.298 361.279 336.871 372.775C336.471 383.558 335.719 394.048 332.282 404.373C328.293 416.355 321.708 426.263 312.568 433.993C293.506 450.114 267.347 453.595 248.765 453.676C241.929 453.701 235.488 456.231 230.63 460.799C225.638 465.493 222.904 471.758 222.932 478.439C222.99 492.689 234.486 503 250.316 503H250.456C289.118 502.695 322.501 491.584 346.998 470.867C374.392 447.701 388.871 413.98 388.871 373.321C388.796 353.902 396.322 325.904 413.023 310.322C427.229 297.067 448.705 290.346 476.854 290.346C491.194 290.346 502.86 279.25 502.86 265.613C502.86 251.975 491.194 240.879 476.854 240.879ZM447.28 268.534C448.241 272.251 447.752 276.002 445.952 279.329C435.183 281.586 425.598 285.113 417.267 289.926C416.625 287.005 415.535 284.154 413.982 281.474C411.669 277.483 408.521 274.13 404.79 271.556C415.06 265.685 426.666 261.35 439.563 258.577C443.437 260.846 446.207 264.384 447.28 268.534ZM375.499 320.469C379.403 321.643 382.686 323.984 384.883 327.048C380.442 336.973 377.542 347.57 376.059 357.58C372.754 355.897 369.129 354.751 365.325 354.25C360.957 353.675 356.588 353.969 352.455 355.042C353.934 344.796 356.647 333.142 361.471 321.511C365.758 319.437 370.766 319.045 375.499 320.469ZM360.03 414.298C355.567 411.417 350.529 409.695 345.346 409.179C348.978 398.476 350.848 386.501 350.858 373.455C350.884 372.577 350.922 371.656 350.965 370.717C354.615 368.492 359.039 367.543 363.496 368.13C368.003 368.724 372.041 370.834 374.864 374C374.796 391.044 372.071 406.443 366.712 420.108C364.804 417.901 362.565 415.935 360.03 414.298ZM312.09 465.36C313.253 469.389 312.72 473.486 310.61 477.065C299.362 482.001 286.929 485.43 273.544 487.307C274.557 484.462 275.14 481.457 275.228 478.369C275.353 473.964 274.476 469.669 272.726 465.735C284.425 463.822 295.081 460.497 304.48 455.825C308.211 458.009 310.935 461.359 312.09 465.36ZM250.374 489C250.348 489 250.323 489 250.296 489C243.652 489 236.961 485.723 236.93 478.38C236.918 475.624 238.086 473.003 240.218 470.998C242.484 468.867 245.536 467.687 248.819 467.676C251.7 467.663 254.522 467.556 257.312 467.4C259.922 470.363 261.343 474.094 261.233 477.972C261.116 482.083 259.313 485.953 256.231 488.853C254.293 488.928 252.344 488.984 250.374 489ZM337.958 460.178C334.411 463.178 330.625 465.928 326.658 468.474C326.572 466.135 326.208 463.789 325.54 461.477C324.041 456.286 321.193 451.692 317.325 448.031C318.792 446.952 320.23 445.846 321.606 444.683C328.722 438.665 334.588 431.473 339.152 423.246C343.778 422.556 348.499 423.518 352.436 426.06C355.907 428.3 358.293 431.473 359.34 435.127C353.722 444.509 346.594 452.874 337.958 460.178ZM391.921 314.023C388.444 310.878 384.227 308.474 379.53 307.062C376.25 306.076 372.887 305.612 369.552 305.635C373.985 298.435 379.432 291.513 386.147 285.247C387.879 283.631 389.674 282.086 391.52 280.599C395.948 281.88 399.641 284.651 401.869 288.495C404.004 292.178 404.502 296.288 403.342 300.213C399.017 304.271 395.217 308.948 391.921 314.023ZM476.854 276.347C471.475 276.347 466.318 276.595 461.35 277.05C462.016 273.102 461.867 269.019 460.834 265.028C459.982 261.734 458.577 258.656 456.71 255.885C463.158 255.218 469.872 254.879 476.854 254.879C483.475 254.879 488.86 259.694 488.86 265.613C488.86 271.532 483.475 276.347 476.854 276.347Z" fill="#0055CC"/>
</svg>
