<svg width="512" height="512" viewBox="0 0 512 512" fill="none" xmlns="http://www.w3.org/2000/svg">
<path d="M28.31 431.063C24.8 448.661 22.035 469.945 21 502H251.46C286.826 389.93 217.508 325.41 217.508 325.41H174.63C158.449 325.41 144.27 313.977 140.52 298.35L121.92 212.9C120.69 207.6 120.08 202.22 120.08 196.84L120.048 194.162C119.931 184.317 122.801 175.099 124.488 170.551C117.113 188.886 77.25 288.084 54.256 347.246" stroke="#0055CC" stroke-width="20" stroke-miterlimit="10" stroke-linecap="round" stroke-linejoin="round"/>
<path d="M376.984 163.014L348.727 148.878L347.277 173.466L310.42 150.447" stroke="#0055CC" stroke-width="20" stroke-miterlimit="10" stroke-linecap="round" stroke-linejoin="round"/>
<path d="M326.32 233.606L311.901 205.493L296.188 224.459L280.091 184.097" stroke="#0055CC" stroke-width="20" stroke-miterlimit="10" stroke-linecap="round" stroke-linejoin="round"/>
<path d="M491 320.88V389.93H376.54C357.89 389.93 340.14 381.93 327.78 367.97L290.12 325.41H310.64C316.19 325.41 321.36 323.74 325.66 320.88H491Z" stroke="#0055CC" stroke-width="20" stroke-miterlimit="10" stroke-linecap="round" stroke-linejoin="round"/>
<path d="M491 279.76V320.88H325.66C332.99 316.02 337.83 307.68 337.83 298.22C337.83 291.42 335.32 285.15 331.14 280.35C330.97 280.15 330.79 279.95 330.6 279.76H491Z" stroke="#0055CC" stroke-width="20" stroke-miterlimit="10" stroke-linecap="round" stroke-linejoin="round"/>
<path d="M491 279.76H443.531V210.947C443.531 197.839 454.157 187.212 467.266 187.212C480.374 187.212 491.001 197.838 491.001 210.947V279.76H491Z" stroke="#0055CC" stroke-width="20" stroke-miterlimit="10" stroke-linecap="round" stroke-linejoin="round"/>
<path d="M443.531 214.531H423.283C411.937 214.531 401.055 219.038 393.032 227.061L387.257 232.836" stroke="#0055CC" stroke-width="20" stroke-miterlimit="10" stroke-linecap="round" stroke-linejoin="round"/>
<path d="M268.201 138.622C257.728 160.114 231.818 169.043 210.325 158.57L193.206 150.23C191.447 148.993 189.596 147.867 187.653 146.89L196.089 129.594C198.386 124.864 198.719 119.419 197.01 114.455L194.678 107.7C193.278 103.635 193.555 99.183 195.439 95.32L199.77 86.421C201.731 82.401 205.132 79.551 209.053 78.207C209.847 77.934 210.681 77.718 211.512 77.569C214.768 76.99 218.222 77.401 221.429 78.956C225.949 81.161 231.575 78.937 233.734 74.51C235.892 70.251 241.132 68.322 245.508 70.456L289.395 91.842L290.698 92.478L268.201 138.622Z" stroke="#0055CC" stroke-width="20" stroke-miterlimit="10" stroke-linecap="round" stroke-linejoin="round"/>
<path d="M319.91 79.251L318.689 81.755C313.385 92.629 300.276 97.149 289.395 91.842L245.508 70.456C241.164 68.337 235.875 70.259 233.734 74.51C231.571 78.944 225.956 81.164 221.429 78.956C218.222 77.402 214.768 76.99 211.512 77.569C210.681 77.718 209.847 77.933 209.053 78.207C205.132 79.551 201.73 82.401 199.77 86.421L195.439 95.32C193.555 99.183 193.278 103.635 194.678 107.7L197.01 114.455C198.719 119.419 198.386 124.864 196.089 129.594L187.63 146.879C187.394 146.745 187.151 146.626 186.908 146.507C176.78 141.567 165.724 140.704 155.588 143.272L150.304 140.695C132.062 131.808 124.481 109.81 133.373 91.58L155.628 45.911C162.731 31.347 175.097 20.021 190.225 14.231C206.754 7.899 225.178 8.702 241.092 16.464L309.812 49.962C320.689 55.256 325.206 68.373 319.91 79.251Z" stroke="#0055CC" stroke-width="20" stroke-miterlimit="10" stroke-linecap="round" stroke-linejoin="round"/>
<path d="M199.474 155.972L198.364 154.862C189.426 145.924 177.115 141.2 164.493 141.864C147.597 142.897 132.706 152.875 125.48 168.086C119.441 182.023 118.481 198.107 121.921 212.901L140.521 298.348C144.226 314.197 158.359 325.407 174.635 325.407H310.638C325.656 325.407 337.83 313.233 337.83 298.215C337.83 284.633 327.807 273.133 314.352 271.278L222.488 258.612L212.323 183.172C211.321 172.892 206.779 163.277 199.474 155.972Z" stroke="#0055CC" stroke-width="20" stroke-miterlimit="10" stroke-linecap="round" stroke-linejoin="round"/>
</svg>
