<svg width="684" height="683" viewBox="0 0 684 683" fill="none" xmlns="http://www.w3.org/2000/svg">
<g clip-path="url(#clip0_15_311)">
<mask id="mask0_15_311" style="mask-type:luminance" maskUnits="userSpaceOnUse" x="0" y="0" width="684" height="683">
<path d="M682.5 682V0.666504H1.16699V682H682.5Z" fill="white" stroke="white" stroke-width="1.33333"/>
</mask>
<g mask="url(#mask0_15_311)">
<path d="M669.834 382.432V636.045C646.966 631.856 620.604 636.478 600.567 648.125C569.047 666.458 530.114 666.458 498.58 648.125C467.567 629.792 427.647 630.072 396.607 648.125C365.355 666.289 325.872 666.289 294.62 648.125C263.593 630.092 223.623 629.705 192.634 648.125C161.394 666.285 121.887 666.258 90.6468 648.125C67.1268 634.445 39.4602 630.978 13.8335 637.725V384.112C39.4602 377.365 67.1268 380.832 90.6468 394.512C121.847 412.498 161.484 412.876 192.634 394.512C223.599 376.256 263.384 376.252 294.62 394.512C326.099 412.914 365.087 412.845 396.607 394.512C397.127 394.205 397.66 393.912 398.194 393.618C429.127 376.525 467.94 376.485 498.58 394.512C530.114 412.845 569.047 412.845 600.567 394.512C621.807 382.165 646.394 378.152 669.834 382.432Z" stroke="#0055CC" stroke-width="26.6667" stroke-miterlimit="10" stroke-linecap="round" stroke-linejoin="round"/>
<path d="M288.294 148.926C269.994 158.773 254.29 173.393 242.901 191.858L202.567 257.925C184.807 287.018 153.181 304.765 119.087 304.765H13.834V384.112C39.4607 377.365 67.1273 380.832 90.6473 394.512C121.891 412.656 161.393 412.669 192.634 394.512C223.621 376.089 263.595 376.48 294.621 394.512C310.381 403.672 327.994 408.258 345.621 408.258C363.234 408.258 380.847 403.672 396.607 394.512C427.649 376.469 467.569 376.186 498.579 394.512C530.114 412.845 569.047 412.845 600.567 394.512C616.327 385.352 633.941 380.778 651.554 380.778C657.674 380.778 663.794 381.325 669.834 382.432V304.765H572.019C537.981 304.765 506.394 287.085 488.621 258.058C474.207 234.538 457.767 207.712 447.994 191.872C436.514 173.258 420.649 158.549 402.158 148.697" stroke="#0055CC" stroke-width="26.6667" stroke-miterlimit="10" stroke-linecap="round" stroke-linejoin="round"/>
<path d="M429.197 263.08L429.218 263.062L428.754 262.31C428.559 261.982 417.023 243.267 402.594 219.864C376.369 177.33 314.526 177.32 288.293 219.851L262.883 261.048C262.79 261.2 262.695 261.351 262.602 261.504L262.409 261.818L262.418 261.827C253.834 276.14 248.837 292.852 248.694 310.723C248.273 363.698 291.163 407.552 344.134 408.255C398.171 408.971 442.202 365.382 442.202 311.508C442.202 293.858 437.453 277.327 429.197 263.08Z" stroke="#0055CC" stroke-width="26.6667" stroke-miterlimit="10" stroke-linecap="round" stroke-linejoin="round"/>
<path d="M345.447 69.835V20.7923" stroke="#0055CC" stroke-width="26.6667" stroke-miterlimit="10" stroke-linecap="round" stroke-linejoin="round"/>
<path d="M266.956 91.7095L232.278 57.0308" stroke="#0055CC" stroke-width="26.6667" stroke-miterlimit="10" stroke-linecap="round" stroke-linejoin="round"/>
<path d="M424.863 91.7095L459.542 57.0308" stroke="#0055CC" stroke-width="26.6667" stroke-miterlimit="10" stroke-linecap="round" stroke-linejoin="round"/>
<path d="M169.248 487.857C169.248 504.032 156.136 517.144 139.961 517.144C123.787 517.144 110.675 504.032 110.675 487.857C110.675 471.683 123.787 458.571 139.961 458.571C156.136 458.571 169.248 471.683 169.248 487.857Z" stroke="#0055CC" stroke-width="26.6667" stroke-miterlimit="10" stroke-linecap="round" stroke-linejoin="round"/>
<path d="M579.446 487.857C579.446 504.032 566.334 517.144 550.159 517.144C533.983 517.144 520.871 504.032 520.871 487.857C520.871 471.683 533.983 458.571 550.159 458.571C566.334 458.571 579.446 471.683 579.446 487.857Z" stroke="#0055CC" stroke-width="26.6667" stroke-miterlimit="10" stroke-linecap="round" stroke-linejoin="round"/>
<path d="M375.313 563.764C375.313 579.938 362.201 593.05 346.026 593.05C329.851 593.05 316.739 579.938 316.739 563.764C316.739 547.589 329.851 534.477 346.026 534.477C362.201 534.477 375.313 547.589 375.313 563.764Z" stroke="#0055CC" stroke-width="26.6667" stroke-miterlimit="10" stroke-linecap="round" stroke-linejoin="round"/>
</g>
</g>
<defs>
<clipPath id="clip0_15_311">
<rect width="682.667" height="682.667" fill="white" transform="translate(0.5)"/>
</clipPath>
</defs>
</svg>
