<svg width="301" height="300" viewBox="0 0 301 300" fill="none" xmlns="http://www.w3.org/2000/svg">
<g clip-path="url(#clip0_15_243)">
<path d="M110.476 2.87207C112.491 2.78664 114.236 4.23859 114.525 6.22559L114.548 6.42578V6.42676L114.563 6.62891C114.651 8.70331 113.098 10.5066 111.007 10.7041H111.006C107.202 11.0619 103.704 11.4486 100.543 11.835C104.352 12.9555 108.209 14.2718 112.086 15.8164L113.155 16.251C135.451 25.5227 148.937 43.5165 148.937 64.6855C148.937 67.0955 148.745 69.5169 148.368 71.8975L148.196 72.915C144.783 91.6861 128.091 105.834 108.382 106.982L107.442 107.027C99.5141 107.32 72.4619 109.375 53.3821 123.154C51.6241 124.424 49.1693 124.027 47.9006 122.269V122.268C46.6316 120.51 47.0278 118.057 48.7844 116.788L49.7737 116.088C70.6587 101.577 98.9565 99.4829 107.152 99.1797L107.925 99.1436C124.135 98.2014 137.721 86.6359 140.47 71.5117L140.614 70.668C140.926 68.6934 141.085 66.6843 141.085 64.6855C141.085 47.0021 129.677 31.6201 110.117 23.4932L109.18 23.1113C80.9248 11.8564 53.64 13.2757 39.8821 15.1328H39.8811C33.761 15.9584 28.9244 20.4248 27.6458 26.3203L27.5334 26.8955C23.1282 52.0777 14.6272 117.57 29.1086 188.523C29.4004 189.068 29.5754 189.695 29.5754 190.368C29.5754 190.534 29.5838 190.703 29.5989 190.877C29.6961 191.337 29.7875 191.774 29.884 192.224C30.6624 194.526 32.8395 196.183 35.3909 196.183C37.4579 196.183 39.3908 195.069 40.429 193.276L40.5344 193.104C41.6659 191.359 43.9751 190.795 45.7922 191.845H45.7932C47.6134 192.896 48.2712 195.187 47.3215 197.034L47.2249 197.211C46.1116 199.132 44.5589 200.698 42.7551 201.847C43.7341 203.695 45.6767 204.944 47.8909 204.944C49.6455 204.944 51.2855 204.167 52.3987 202.805L52.5305 202.651C53.923 201.114 56.2958 200.918 57.9241 202.25H57.9231C59.6037 203.622 59.8493 206.095 58.4788 207.773V207.774C56.7706 209.865 54.5211 211.359 52.0188 212.147C52.6748 214.639 54.9425 216.481 57.6331 216.481C59.0393 216.481 60.3952 215.974 61.4504 215.054L61.4514 215.053L61.6067 214.924C63.2404 213.641 65.61 213.849 66.9895 215.432L67.1184 215.588C68.4028 217.221 68.1943 219.592 66.6106 220.972C65.134 222.26 63.4096 223.194 61.5667 223.745C61.7265 226.808 64.2715 229.254 67.3743 229.254C68.2676 229.254 69.1145 229.059 69.9045 228.676H69.9055L70.0891 228.593C72.0015 227.783 74.2316 228.606 75.1487 230.497H75.1497C76.0967 232.448 75.28 234.797 73.3284 235.742L73.3293 235.743C71.9277 236.422 70.4473 236.842 68.9192 237.011C68.9305 240.206 71.5353 242.804 74.7336 242.805C75.5618 242.805 76.3474 242.639 77.0842 242.312L77.3977 242.161C79.3233 241.165 81.6913 241.919 82.6868 243.846H82.6877C83.6838 245.771 82.9303 248.14 81.0022 249.135L81.0032 249.136C79.3276 250.003 77.4705 250.513 75.5833 250.631C75.5549 250.855 75.5413 251.079 75.5413 251.301C75.5413 254.505 78.1504 257.116 81.3557 257.116C82.2323 257.116 83.0652 256.929 83.842 256.56H83.844L84.0286 256.478C85.8871 255.71 88.0289 256.474 88.9817 258.243L89.0725 258.423L89.0735 258.425L89.1555 258.609C89.9233 260.467 89.1589 262.611 87.3879 263.563L87.2073 263.654C86.14 264.16 85.0281 264.515 83.887 264.727C83.6783 267.369 84.5563 269.708 85.6135 271.506C86.781 273.491 88.1003 274.698 88.1301 274.726H88.1292C88.2524 274.835 88.366 274.95 88.4709 275.069L88.6165 275.215C90.2696 276.831 106.178 291.146 152.384 291.146C154.552 291.146 156.311 292.904 156.311 295.073C156.311 297.241 154.554 299 152.385 299C101.799 299 84.8174 282.667 82.7375 280.433C82.113 279.847 80.1489 277.885 78.4993 274.899C76.9461 272.088 75.6381 268.305 76.0588 263.894C71.1479 261.821 67.6868 256.963 67.6868 251.299C67.6868 250.459 67.7702 249.629 67.9231 248.818C63.836 246.459 61.0648 242.051 61.0647 236.988C61.0647 236.515 61.0927 236.049 61.1418 235.59C56.8233 233.368 53.8283 228.917 53.7102 223.753C48.5682 222.209 44.702 217.717 44.0686 212.245C39.9748 211.052 36.6649 207.993 35.1399 204.026C29.3831 203.922 24.508 200.242 22.5969 195.134C22.479 194.892 22.3635 194.604 22.2903 194.271V194.272C22.2825 194.238 22.276 194.204 22.2708 194.18C22.2676 194.165 22.2642 194.153 22.262 194.143C22.0866 193.532 21.9585 192.912 21.8704 192.289C6.48492 119.152 15.2691 51.4243 19.7971 25.5381C21.4713 15.9622 29.1311 8.65603 38.8303 7.34668L40.5862 7.12109C49.6101 6.02204 63.2387 5.2463 78.9299 7.29492C79.011 7.2708 79.0965 7.24695 79.1868 7.22754L79.885 7.08301C82.6725 6.51847 93.4787 4.46292 110.272 2.88574H110.273L110.476 2.87207Z" fill="#0055CC" stroke="#0055CC" stroke-width="3"/>
<path d="M146.003 1.02832C172.439 0.732251 198.575 2.77936 223.741 7.11621C239.887 5.16535 253.736 6.17455 262.444 7.35059L262.897 7.41602C272.38 8.89065 279.827 16.1419 281.487 25.5938L281.914 28.0811C286.433 55.0046 294.014 119.695 278.697 190.883C278.424 198.095 272.552 203.897 265.3 204.026C263.775 207.991 260.466 211.049 256.373 212.242C255.74 217.715 251.874 222.207 246.731 223.751C246.613 228.914 243.618 233.367 239.299 235.588C239.349 236.047 239.377 236.513 239.377 236.986C239.377 242.049 236.606 246.457 232.518 248.816C232.671 249.627 232.755 250.457 232.755 251.297C232.755 256.781 229.507 261.5 224.848 263.675C224.957 264.141 225.039 264.625 225.085 265.127V265.128L225.125 265.689C225.259 268.504 224.474 271.421 223.276 273.962C222.008 276.652 220.207 279.066 218.307 280.62C216.499 282.301 201.576 295.217 167.487 298.332H167.478L167.469 298.333C167.37 298.341 167.254 298.348 167.127 298.348C165.181 298.348 163.512 296.912 163.241 294.968L163.219 294.778C163.022 292.619 164.613 290.708 166.773 290.511L168.295 290.363C199.77 287.14 212.902 274.924 212.999 274.836L213.008 274.826L213.27 274.597L213.278 274.59L213.286 274.584C214.256 273.815 215.345 272.374 216.155 270.668C216.916 269.063 217.337 267.421 217.284 266.109L217.266 265.853C217.223 265.39 217.124 265.095 217.032 264.908C217.013 264.87 216.992 264.835 216.972 264.803C215.681 264.602 214.429 264.219 213.235 263.652V263.651C211.277 262.723 210.44 260.384 211.369 258.424C212.298 256.464 214.639 255.629 216.598 256.558L216.939 256.704C217.216 256.812 217.505 256.895 217.803 256.96C218.331 256.896 218.872 256.941 219.397 257.1C222.459 256.938 224.902 254.397 224.902 251.298C224.902 251.076 224.887 250.852 224.859 250.628C222.972 250.51 221.116 250 219.441 249.135H219.44C217.514 248.139 216.759 245.77 217.754 243.844V243.843L217.852 243.666C218.866 241.928 221.035 241.241 222.863 242.068L223.043 242.156L223.047 242.158L223.36 242.309C224.095 242.636 224.881 242.802 225.709 242.802C228.907 242.802 231.512 240.203 231.523 237.008C229.995 236.839 228.515 236.419 227.114 235.74V235.739C225.163 234.793 224.346 232.445 225.293 230.493V230.492L225.386 230.313C226.354 228.554 228.503 227.807 230.354 228.589L230.538 228.673L230.542 228.674L230.839 228.809C231.541 229.102 232.286 229.251 233.069 229.251C236.172 229.251 238.716 226.805 238.875 223.741C237.172 223.231 235.569 222.395 234.169 221.254L233.833 220.97H233.832C232.197 219.544 232.028 217.065 233.452 215.43L233.453 215.429L233.589 215.28C235.029 213.79 237.404 213.667 238.991 215.05L239.193 215.218C240.219 216.033 241.493 216.479 242.81 216.479C245.501 216.479 247.767 214.636 248.423 212.145C245.921 211.356 243.672 209.862 241.964 207.771V207.771C240.594 206.092 240.839 203.618 242.521 202.246L242.68 202.122C244.3 200.931 246.564 201.16 247.913 202.648L248.044 202.802L248.259 203.051C249.363 204.259 250.907 204.941 252.552 204.941C254.767 204.941 256.71 203.691 257.688 201.844C255.884 200.695 254.331 199.129 253.218 197.208V197.207C252.132 195.331 252.773 192.929 254.649 191.843L254.826 191.746C256.67 190.8 258.96 191.452 260.014 193.273L260.219 193.602C261.295 195.201 263.115 196.18 265.052 196.18C268.256 196.18 270.867 193.571 270.868 190.356V190.339C270.869 190.219 270.881 190.116 270.888 190.052C270.892 190.019 270.896 189.988 270.899 189.969C270.902 189.946 270.903 189.935 270.904 189.926C270.904 189.923 270.905 189.918 270.906 189.911C270.907 189.902 270.909 189.868 270.912 189.842C270.917 189.781 270.927 189.68 270.951 189.562L270.953 189.549L270.956 189.536C286.075 119.557 278.615 55.8663 274.172 29.3965L273.752 26.9521C272.695 20.9324 268.009 16.2843 261.981 15.2256L261.393 15.1348C247.842 13.3018 221.186 11.892 193.391 22.5908L192.067 23.1094C171.935 31.1311 160.162 46.7196 160.162 64.6836C160.162 66.6825 160.32 68.6912 160.633 70.665L160.777 71.5088V71.5107L160.808 71.71C161.075 73.7688 159.682 75.7003 157.615 76.0752L157.608 76.0762C155.477 76.4526 153.439 75.0499 153.05 72.9141V72.9131C152.559 70.207 152.309 67.4377 152.309 64.6836C152.309 43.1786 166.228 24.9507 189.161 15.8145L190.388 15.333C193.94 13.96 197.473 12.7747 200.964 11.7539C182.177 9.54405 162.957 8.59156 143.569 8.91602H143.545C141.381 8.9176 139.614 7.21808 139.578 5.05566L139.579 5.05469C139.542 2.88739 141.269 1.10027 143.437 1.06445L146.003 1.02832Z" fill="#0055CC" stroke="#0055CC" stroke-width="3"/>
<path d="M159.677 80.9556C161.504 79.9786 163.803 80.5872 164.89 82.3892L165.173 82.8501C171.203 92.4736 182.232 98.7371 194.095 99.1782H194.094C199.761 99.3876 216.856 100.549 233.865 106.98C250.866 113.408 268.076 125.225 273.369 146.901L273.412 147.099C273.801 149.14 272.525 151.148 270.485 151.646L270.486 151.647C270.177 151.723 269.862 151.76 269.552 151.76C267.894 151.76 266.379 150.703 265.835 149.092L265.74 148.763C261.202 130.18 246.079 119.828 230.449 114.053C215.81 108.645 201.012 107.37 194.907 107.072L193.804 107.024C179.397 106.49 165.939 98.8623 158.516 87.0132L158.167 86.4458C157.047 84.5896 157.644 82.1762 159.5 81.0562L159.501 81.0552L159.677 80.9556Z" fill="#0055CC" stroke="#0055CC" stroke-width="3"/>
<path d="M37.6885 127.16C39.0727 125.613 41.4448 125.403 43.0801 126.725L43.0791 126.726C44.7658 128.087 45.0303 130.557 43.6689 132.244L43.6699 132.245C39.8626 136.964 37.1668 142.323 35.6504 148.191L35.5078 148.762H35.5068C35.0683 150.556 33.464 151.759 31.6953 151.759C31.3829 151.759 31.0709 151.721 30.7637 151.646L30.7598 151.646C28.6546 151.129 27.3654 149.007 27.8779 146.901V146.9L28.0479 146.226C29.8455 139.27 33.0433 132.908 37.5576 127.314L37.6885 127.16Z" fill="#0055CC" stroke="#0055CC" stroke-width="3"/>
<path d="M133.408 1.34668C135.553 1.25232 137.408 2.94267 137.493 5.11426L137.496 5.31738C137.474 7.32792 135.927 8.99875 133.926 9.17969L133.725 9.19336C129.744 9.35081 125.718 9.56596 121.76 9.83398L121.759 9.83301C121.67 9.83923 121.58 9.84277 121.491 9.84277C119.507 9.84277 117.825 8.35356 117.594 6.37402L117.576 6.18066V6.17969C117.431 4.01685 119.066 2.14431 121.229 1.99707H121.23L124.264 1.80371C127.305 1.61984 130.369 1.46729 133.408 1.34766V1.34668Z" fill="#0055CC" stroke="#0055CC" stroke-width="3"/>
<path d="M103.086 44.123C110.603 44.123 116.717 50.2366 116.717 57.7549C116.717 65.2732 110.603 71.3867 103.086 71.3867C95.5675 71.3866 89.4541 65.2722 89.4541 57.7549C89.4542 50.2355 95.5677 44.1231 103.086 44.123ZM103.085 51.9756C99.8995 51.9757 97.3058 54.5694 97.3057 57.7549C97.3057 60.9404 99.8994 63.5341 103.085 63.5342C106.27 63.5342 108.864 60.9396 108.864 57.7549C108.864 54.5704 106.269 51.9756 103.085 51.9756Z" fill="#0055CC" stroke="#0055CC" stroke-width="3"/>
<path d="M151.613 121.768C159.131 121.768 165.245 127.882 165.245 135.4C165.245 142.918 159.131 149.032 151.613 149.032C144.095 149.032 137.981 142.918 137.981 135.4C137.981 127.882 144.095 121.768 151.613 121.768ZM151.613 129.621C148.428 129.621 145.834 132.215 145.834 135.4C145.834 138.584 148.427 141.178 151.613 141.178C154.799 141.178 157.392 138.584 157.392 135.4C157.392 132.215 154.798 129.621 151.613 129.621Z" fill="#0055CC" stroke="#0055CC" stroke-width="3"/>
<path d="M150.992 177.918C158.53 177.918 164.66 184.047 164.66 191.586C164.66 193.833 164.107 196.047 163.054 198.02L162.836 198.411C161.752 200.289 159.351 200.933 157.473 199.849C155.596 198.764 154.953 196.364 156.036 194.485L156.214 194.152C156.603 193.361 156.809 192.482 156.809 191.586C156.809 188.382 154.198 185.771 150.992 185.771C147.787 185.771 145.177 188.381 145.177 191.586C145.177 194.792 147.787 197.401 150.992 197.401C153.161 197.401 154.919 199.158 154.919 201.327C154.919 203.495 153.161 205.254 150.992 205.254C143.455 205.254 137.324 199.123 137.324 191.586C137.324 184.047 143.455 177.918 150.992 177.918Z" fill="#0055CC" stroke="#0055CC" stroke-width="3"/>
<path d="M226.143 122.251C228.311 122.251 230.069 124.008 230.069 126.177C230.069 128.344 228.312 130.104 226.143 130.104C222.937 130.104 220.327 132.714 220.327 135.918C220.327 139.123 222.937 141.733 226.143 141.733C229.348 141.733 231.958 139.123 231.958 135.918C231.958 134.75 231.615 133.63 230.967 132.671V132.67C229.792 130.929 230.198 128.585 231.858 127.337L232.022 127.219C233.819 126.004 236.26 126.477 237.474 128.274L237.752 128.703C239.101 130.868 239.811 133.353 239.811 135.918C239.811 143.456 233.681 149.587 226.143 149.587C218.606 149.587 212.475 143.456 212.475 135.918C212.475 128.38 218.605 122.251 226.143 122.251Z" fill="#0055CC" stroke="#0055CC" stroke-width="3"/>
<path d="M209.846 163.016C217.364 163.016 223.478 169.131 223.478 176.648C223.478 184.167 217.364 190.28 209.846 190.28C202.328 190.28 196.214 184.166 196.214 176.648C196.214 169.13 202.328 163.016 209.846 163.016ZM209.549 170.877C206.501 171.033 204.067 173.563 204.067 176.648C204.067 179.833 206.661 182.427 209.846 182.427C213.032 182.427 215.625 179.834 215.625 176.648C215.625 173.463 213.032 170.869 209.847 170.87H209.846L209.549 170.877Z" fill="#0055CC" stroke="#0055CC" stroke-width="3"/>
<path d="M73.968 121.767C81.4864 121.767 87.5998 127.881 87.5999 135.399C87.5999 142.917 81.4864 149.031 73.968 149.031C66.4507 149.031 60.3362 142.917 60.3362 135.399C60.3363 127.881 66.4508 121.767 73.968 121.767ZM73.968 129.62C70.7836 129.62 68.1888 132.214 68.1887 135.399C68.1887 138.583 70.7833 141.177 73.968 141.177C77.1537 141.177 79.7473 138.583 79.7473 135.399C79.7472 132.214 77.1534 129.62 73.968 129.62Z" fill="#0055CC" stroke="#0055CC" stroke-width="3"/>
<path d="M90.9529 163.016C98.4713 163.016 104.585 169.131 104.585 176.648C104.585 184.166 98.4713 190.28 90.9529 190.28C83.4345 190.28 77.321 184.166 77.321 176.648C77.3211 169.13 83.4346 163.016 90.9529 163.016ZM90.9529 170.87C87.7673 170.87 85.1737 173.464 85.1736 176.648C85.1736 179.833 87.7675 182.427 90.9529 182.427C94.1383 182.427 96.7322 179.833 96.7322 176.648C96.7321 173.464 94.1385 170.87 90.9529 170.87Z" fill="#0055CC" stroke="#0055CC" stroke-width="3"/>
<path d="M151.613 233.381C159.131 233.381 165.245 239.494 165.245 247.013C165.245 254.532 159.131 260.645 151.613 260.645C144.095 260.644 137.981 254.531 137.981 247.013C137.981 239.494 144.095 233.381 151.613 233.381ZM151.613 241.233C148.428 241.233 145.834 243.828 145.834 247.013C145.834 250.197 148.428 252.792 151.613 252.792C154.798 252.792 157.392 250.197 157.392 247.013C157.392 243.828 154.798 241.233 151.613 241.233Z" fill="#0055CC" stroke="#0055CC" stroke-width="3"/>
<path d="M64.2639 39.271C71.7815 39.271 77.8947 45.3856 77.8948 52.9028C77.8948 60.303 71.97 66.3428 64.6155 66.5308L64.2639 66.5347C56.7456 66.5346 50.6321 60.4212 50.6321 52.9028C50.6322 45.3845 56.7456 39.2711 64.2639 39.271ZM64.2629 47.1235C61.0775 47.1236 58.4837 49.7174 58.4836 52.9028C58.4836 56.0875 61.0776 58.6821 64.2629 58.6821C67.4484 58.6821 70.0422 56.0875 70.0422 52.9028C70.0421 49.7183 67.4475 47.1235 64.2629 47.1235Z" fill="#0055CC" stroke="#0055CC" stroke-width="3"/>
<path d="M195.287 44.123C202.805 44.123 208.919 50.2365 208.919 57.7549C208.919 65.2733 202.805 71.3867 195.287 71.3867C187.768 71.3866 181.655 65.2722 181.655 57.7549C181.655 50.2355 187.769 44.1231 195.287 44.123ZM195.288 51.9756C192.102 51.9757 189.51 54.5694 189.51 57.7549C189.51 60.9404 192.102 63.5341 195.288 63.5342C198.473 63.5342 201.067 60.9396 201.067 57.7549C201.067 54.5704 198.472 51.9756 195.288 51.9756Z" fill="#0055CC" stroke="#0055CC" stroke-width="3"/>
<path d="M234.11 39.271C241.628 39.271 247.742 45.3856 247.742 52.9028C247.742 60.303 241.817 66.3428 234.461 66.5308L234.11 66.5347C226.592 66.5346 220.479 60.4211 220.479 52.9028C220.479 45.3846 226.592 39.2711 234.11 39.271ZM234.11 47.1235C230.924 47.1236 228.331 49.7174 228.331 52.9028C228.331 56.0875 230.924 58.6821 234.11 58.6821C237.295 58.6821 239.889 56.0875 239.889 52.9028C239.889 49.7182 237.295 47.1235 234.11 47.1235Z" fill="#0055CC" stroke="#0055CC" stroke-width="3"/>
<path d="M57.8779 192.339C59.3599 190.979 61.6367 190.965 63.1367 192.299L63.2842 192.437L63.2852 192.438L64.4199 193.573C76.264 205.623 91.5999 227.327 100.24 263.726L100.282 263.924C100.66 265.967 99.3715 267.966 97.3291 268.452L97.3301 268.453C97.024 268.526 96.7184 268.56 96.4189 268.56C94.641 268.559 93.0299 267.347 92.6006 265.541V265.54C84.3473 230.773 69.8534 210.307 58.8301 199.089L57.7744 198.031C56.2296 196.509 56.2112 194.024 57.7324 192.479L57.8779 192.339Z" fill="#0055CC" stroke="#0055CC" stroke-width="3"/>
<path d="M34.5349 178.097C35.2993 176.238 37.3554 175.255 39.282 175.83L39.4744 175.892L39.4753 175.893L39.8601 176.038C41.3284 176.611 46.6965 178.904 53.8308 184.264L53.99 184.389C55.5356 185.676 55.8549 187.93 54.7302 189.596L54.613 189.761C53.8412 190.788 52.6614 191.33 51.4724 191.33C50.6505 191.33 49.8222 191.072 49.1189 190.545L49.116 190.543C45.4745 187.808 42.3918 185.989 40.2273 184.858C39.1453 184.292 38.2927 183.898 37.7146 183.647C37.1486 183.401 36.8431 183.29 36.8328 183.287V183.286C34.8034 182.554 33.7443 180.321 34.4626 178.286L34.5349 178.097Z" fill="#0055CC" stroke="#0055CC" stroke-width="3"/>
<path d="M241.332 189.581C242.937 188.266 245.31 188.423 246.725 189.977V189.978L246.857 190.131C248.175 191.737 248.017 194.112 246.461 195.525L246.46 195.524C234.394 206.495 217.998 227.577 208.986 265.54V265.541C208.557 267.347 206.945 268.56 205.168 268.56C204.869 268.56 204.565 268.525 204.26 268.452V268.453C202.15 267.953 200.847 265.835 201.347 263.727L201.795 261.875C211.328 223.264 228.367 201.362 241.178 189.714L241.18 189.713L241.332 189.581Z" fill="#0055CC" stroke="#0055CC" stroke-width="3"/>
<path d="M262.306 175.829C264.236 175.254 266.287 176.239 267.053 178.095L267.125 178.283V178.285L267.188 178.478C267.779 180.466 266.715 182.589 264.74 183.293L264.722 183.3L264.702 183.306C264.811 183.27 259.971 185.013 253.047 190.115L253.045 190.116C252.346 190.63 251.528 190.881 250.719 190.881C249.519 190.881 248.327 190.33 247.556 189.284V189.283C246.269 187.537 246.643 185.08 248.387 183.794L248.388 183.793L249.114 183.264C256.556 177.903 261.784 176.01 262.11 175.894L262.113 175.892L262.306 175.829Z" fill="#0055CC" stroke="#0055CC" stroke-width="3"/>
</g>
<defs>
<clipPath id="clip0_15_243">
<rect width="300" height="300" fill="white" transform="translate(0.5)"/>
</clipPath>
</defs>
</svg>
