<svg width="513" height="512" viewBox="0 0 513 512" fill="none" xmlns="http://www.w3.org/2000/svg">
<g clip-path="url(#clip0_15_267)">
<path d="M464.42 205.642L474.853 202.164C480.243 200.367 486.186 201.77 490.203 205.788L504.944 220.529" stroke="#0055CC" stroke-width="15" stroke-miterlimit="10" stroke-linecap="round" stroke-linejoin="round"/>
<path d="M393.922 131.663L402.916 113.675C405.457 108.593 410.651 105.383 416.332 105.383H437.179" stroke="#0055CC" stroke-width="15" stroke-miterlimit="10" stroke-linecap="round" stroke-linejoin="round"/>
<path d="M301.406 105.983L293.823 91.591C291.175 86.564 291.594 80.473 294.905 75.856L307.056 58.916" stroke="#0055CC" stroke-width="15" stroke-miterlimit="10" stroke-linecap="round" stroke-linejoin="round"/>
<path d="M205.919 464.583L202.661 474.357C200.864 479.747 202.267 485.69 206.285 489.707L221.026 504.448" stroke="#0055CC" stroke-width="15" stroke-miterlimit="10" stroke-linecap="round" stroke-linejoin="round"/>
<path d="M132.172 393.419L114.17 402.42C109.088 404.961 105.878 410.155 105.878 415.836V436.683" stroke="#0055CC" stroke-width="15" stroke-miterlimit="10" stroke-linecap="round" stroke-linejoin="round"/>
<path d="M106.28 300.804L92.0878 293.327C87.0608 290.679 80.9698 291.098 76.3528 294.409L59.4128 306.56" stroke="#0055CC" stroke-width="15" stroke-miterlimit="10" stroke-linecap="round" stroke-linejoin="round"/>
<path d="M128.704 30.3042C140.554 31.7342 150.584 40.1342 153.934 51.8442L157.886 65.6772" stroke="#0055CC" stroke-width="15" stroke-miterlimit="10" stroke-linecap="round" stroke-linejoin="round"/>
<path d="M31.874 128.174C33.604 139.634 41.874 149.244 53.284 152.504L66.294 156.224" stroke="#0055CC" stroke-width="15" stroke-miterlimit="10" stroke-linecap="round" stroke-linejoin="round"/>
<path d="M80.624 216.764C88.434 228.291 99.717 237.599 113.634 243.074" stroke="#0055CC" stroke-width="15" stroke-miterlimit="10" stroke-linecap="round" stroke-linejoin="round"/>
<path d="M68.4038 183.954C64.7238 155.574 75.5038 123.604 99.8038 99.304C138.034 61.074 195.234 56.304 227.584 88.654C234.664 95.734 239.954 103.994 243.514 112.994" stroke="#0055CC" stroke-width="15" stroke-miterlimit="10" stroke-linecap="round" stroke-linejoin="round"/>
<path d="M352.274 465.344C406.7 452.316 452.809 406.21 465.844 351.754" stroke="#0055CC" stroke-width="15" stroke-miterlimit="10" stroke-linecap="round" stroke-linejoin="round"/>
<path d="M484.824 287.064C485.674 304.214 484.184 321.444 480.344 338.214C478.744 345.224 472.354 350.104 465.164 349.814C434.604 348.614 387.864 343.184 343.984 323.744C331.534 318.234 318.734 331.034 324.254 343.484C343.694 387.354 349.114 434.094 350.324 464.664C350.604 471.874 345.684 478.254 338.654 479.864C277.114 493.934 210.574 476.284 163.694 429.404C91.1138 356.824 90.1938 239.704 160.944 165.994C233.534 90.3639 352.864 88.2239 428.014 161.324C454.564 187.144 471.844 218.884 479.854 252.354" stroke="#0055CC" stroke-width="15" stroke-miterlimit="10" stroke-linecap="round" stroke-linejoin="round"/>
<path d="M424.575 308.233C437.05 308.233 447.163 298.12 447.163 285.645C447.163 273.17 437.05 263.057 424.575 263.057C412.1 263.057 401.987 273.17 401.987 285.645C401.987 298.12 412.1 308.233 424.575 308.233Z" stroke="#0055CC" stroke-width="15" stroke-miterlimit="10" stroke-linecap="round" stroke-linejoin="round"/>
<path d="M371.334 212.399C383.809 212.399 393.922 202.286 393.922 189.811C393.922 177.336 383.809 167.223 371.334 167.223C358.859 167.223 348.746 177.336 348.746 189.811C348.746 202.286 358.859 212.399 371.334 212.399Z" stroke="#0055CC" stroke-width="15" stroke-miterlimit="10" stroke-linecap="round" stroke-linejoin="round"/>
<path d="M270.176 196.427C282.651 196.427 292.764 186.314 292.764 173.839C292.764 161.364 282.651 151.251 270.176 151.251C257.701 151.251 247.588 161.364 247.588 173.839C247.588 186.314 257.701 196.427 270.176 196.427Z" stroke="#0055CC" stroke-width="15" stroke-miterlimit="10" stroke-linecap="round" stroke-linejoin="round"/>
<path d="M286.148 446.66C298.623 446.66 308.736 436.547 308.736 424.072C308.736 411.597 298.623 401.484 286.148 401.484C273.673 401.484 263.56 411.597 263.56 424.072C263.56 436.547 273.673 446.66 286.148 446.66Z" stroke="#0055CC" stroke-width="15" stroke-miterlimit="10" stroke-linecap="round" stroke-linejoin="round"/>
<path d="M190.314 393.419C202.789 393.419 212.902 383.306 212.902 370.831C212.902 358.356 202.789 348.243 190.314 348.243C177.839 348.243 167.726 358.356 167.726 370.831C167.726 383.306 177.839 393.419 190.314 393.419Z" stroke="#0055CC" stroke-width="15" stroke-miterlimit="10" stroke-linecap="round" stroke-linejoin="round"/>
<path d="M174.342 292.261C186.817 292.261 196.93 282.148 196.93 269.673C196.93 257.198 186.817 247.085 174.342 247.085C161.867 247.085 151.754 257.198 151.754 269.673C151.754 282.148 161.867 292.261 174.342 292.261Z" stroke="#0055CC" stroke-width="15" stroke-miterlimit="10" stroke-linecap="round" stroke-linejoin="round"/>
<path d="M195.639 210.194C203.956 210.194 210.698 203.452 210.698 195.135C210.698 186.818 203.956 180.076 195.639 180.076C187.322 180.076 180.58 186.818 180.58 195.135C180.58 203.452 187.322 210.194 195.639 210.194Z" stroke="#0055CC" stroke-width="15" stroke-miterlimit="10" stroke-linecap="round" stroke-linejoin="round"/>
<path d="M259.528 274.083C267.845 274.083 274.587 267.341 274.587 259.024C274.587 250.707 267.845 243.965 259.528 243.965C251.211 243.965 244.469 250.707 244.469 259.024C244.469 267.341 251.211 274.083 259.528 274.083Z" stroke="#0055CC" stroke-width="15" stroke-miterlimit="10" stroke-linecap="round" stroke-linejoin="round"/>
<path d="M264.852 353.945C273.169 353.945 279.911 347.203 279.911 338.886C279.911 330.569 273.169 323.827 264.852 323.827C256.535 323.827 249.793 330.569 249.793 338.886C249.793 347.203 256.535 353.945 264.852 353.945Z" stroke="#0055CC" stroke-width="15" stroke-miterlimit="10" stroke-linecap="round" stroke-linejoin="round"/>
<path d="M339.389 279.408C347.706 279.408 354.448 272.666 354.448 264.349C354.448 256.032 347.706 249.29 339.389 249.29C331.072 249.29 324.33 256.032 324.33 264.349C324.33 272.666 331.072 279.408 339.389 279.408Z" stroke="#0055CC" stroke-width="15" stroke-miterlimit="10" stroke-linecap="round" stroke-linejoin="round"/>
<path d="M105.129 52.676C117.604 52.676 127.717 42.563 127.717 30.088C127.717 17.613 117.604 7.5 105.129 7.5C92.654 7.5 82.541 17.613 82.541 30.088C82.541 42.563 92.654 52.676 105.129 52.676Z" stroke="#0055CC" stroke-width="15" stroke-miterlimit="10" stroke-linecap="round" stroke-linejoin="round"/>
<path d="M30.5919 127.214C43.0669 127.214 53.1799 117.101 53.1799 104.626C53.1799 92.1511 43.0669 82.0381 30.5919 82.0381C18.1169 82.0381 8.00391 92.1511 8.00391 104.626C8.00391 117.101 18.1169 127.214 30.5919 127.214Z" stroke="#0055CC" stroke-width="15" stroke-miterlimit="10" stroke-linecap="round" stroke-linejoin="round"/>
<path d="M102.237 165.63L110.723 174.115" stroke="#0055CC" stroke-width="15" stroke-miterlimit="10" stroke-linecap="round" stroke-linejoin="round"/>
<path d="M166.127 101.741L174.612 110.226" stroke="#0055CC" stroke-width="15" stroke-miterlimit="10" stroke-linecap="round" stroke-linejoin="round"/>
</g>
<defs>
<clipPath id="clip0_15_267">
<rect width="511.948" height="511.948" fill="white" transform="translate(0.5)"/>
</clipPath>
</defs>
</svg>
