<svg width="512" height="512" viewBox="0 0 512 512" fill="none" xmlns="http://www.w3.org/2000/svg">
<g clip-path="url(#clip0_15_190)">
<path d="M322.316 462.05V417.98" stroke="#0055CC" stroke-width="15" stroke-miterlimit="10"/>
<path d="M322.316 511.35V477.05" stroke="#0055CC" stroke-width="15" stroke-miterlimit="10"/>
<path d="M216.156 227.45C229.926 232.16 242.826 238.72 254.576 246.85" stroke="#0055CC" stroke-width="15" stroke-miterlimit="10"/>
<path d="M8.48584 511.35V375.98C8.48584 305.11 55.4558 245.23 119.956 225.74" stroke="#0055CC" stroke-width="15" stroke-miterlimit="10"/>
<path d="M422.857 317.046C422.857 346.147 400.918 377.941 373.854 377.941C346.791 377.941 324.851 346.148 324.851 317.046C324.851 287.944 346.79 266.573 373.854 266.573C400.918 266.573 422.857 287.945 422.857 317.046Z" stroke="#0055CC" stroke-width="15" stroke-miterlimit="10"/>
<path d="M394.626 271.12C394.626 245.074 385.416 234.31 373.856 234.31C362.286 234.31 353.086 247.5 353.086 271.12" stroke="#0055CC" stroke-width="15" stroke-miterlimit="10"/>
<path d="M338.475 282.128L314.605 264.842L321.631 221.462L349.431 208.02" stroke="#0055CC" stroke-width="15" stroke-miterlimit="10"/>
<path d="M325.63 307.922L297.497 294.689L282.834 262.398L295.664 239.324" stroke="#0055CC" stroke-width="15" stroke-miterlimit="10"/>
<path d="M325.63 321.358L302.996 329.606L290.471 352.824L304.232 375.43" stroke="#0055CC" stroke-width="15" stroke-miterlimit="10"/>
<path d="M332.018 346.755C321.937 358.323 314.605 375.43 343.321 389.177" stroke="#0055CC" stroke-width="15" stroke-miterlimit="10"/>
<path d="M409.254 282.128L433.124 264.842L426.097 221.462L398.297 208.02" stroke="#0055CC" stroke-width="15" stroke-miterlimit="10"/>
<path d="M422.098 307.922L450.231 294.689L464.895 262.398L452.064 239.324" stroke="#0055CC" stroke-width="15" stroke-miterlimit="10"/>
<path d="M422.098 321.358L444.732 329.606L457.258 352.824L443.496 375.43" stroke="#0055CC" stroke-width="15" stroke-miterlimit="10"/>
<path d="M415.71 346.755C425.791 358.323 433.123 375.43 404.407 389.177" stroke="#0055CC" stroke-width="15" stroke-miterlimit="10"/>
<path d="M373.864 428.599C445.661 428.599 503.864 370.396 503.864 298.599C503.864 226.802 445.661 168.599 373.864 168.599C302.067 168.599 243.864 226.802 243.864 298.599C243.864 370.396 302.067 428.599 373.864 428.599Z" stroke="#0055CC" stroke-width="15" stroke-miterlimit="10"/>
<path d="M128.956 7.5H183.996C202.926 7.5 220.326 17.91 229.276 34.6C262.816 46.62 293.206 94.69 243.806 168.13V148.1C243.806 125.98 225.866 108.04 203.746 108.04H123.426C88.9656 108.04 61.0356 80.11 61.0356 45.65V7.5H113.956" stroke="#0055CC" stroke-width="15" stroke-miterlimit="10"/>
<path d="M94.73 100.029V187.917C94.73 202.127 102.258 215.273 114.513 222.465C114.513 222.465 154.67 247.54 169.856 247.499C184.833 247.459 224.305 222.516 224.305 222.516C236.396 215.283 243.799 202.229 243.799 188.14V161.451" stroke="#0055CC" stroke-width="15" stroke-miterlimit="10"/>
<path d="M64.7568 356.599V511.35" stroke="#0055CC" stroke-width="15" stroke-miterlimit="10"/>
<path d="M266.037 367.599V511.35" stroke="#0055CC" stroke-width="15" stroke-miterlimit="10"/>
<path d="M130.783 279.177C154.575 279.177 173.863 298.464 173.863 322.257" stroke="#0055CC" stroke-width="15" stroke-miterlimit="10"/>
<path d="M130.783 365.337C106.991 365.337 87.7026 346.05 87.7026 322.257" stroke="#0055CC" stroke-width="15" stroke-miterlimit="10"/>
<path d="M154.066 433.974C154.066 410.182 173.353 390.894 197.146 390.894" stroke="#0055CC" stroke-width="15" stroke-miterlimit="10"/>
<path d="M240.226 433.974C240.226 457.766 220.939 477.054 197.146 477.054" stroke="#0055CC" stroke-width="15" stroke-miterlimit="10"/>
<path d="M130.783 337.257C139.067 337.257 145.783 330.541 145.783 322.257C145.783 313.973 139.067 307.257 130.783 307.257C122.498 307.257 115.783 313.973 115.783 322.257C115.783 330.541 122.498 337.257 130.783 337.257Z" stroke="#0055CC" stroke-width="15" stroke-miterlimit="10"/>
<path d="M197.146 448.974C205.43 448.974 212.146 442.258 212.146 433.974C212.146 425.69 205.43 418.974 197.146 418.974C188.862 418.974 182.146 425.69 182.146 433.974C182.146 442.258 188.862 448.974 197.146 448.974Z" stroke="#0055CC" stroke-width="15" stroke-miterlimit="10"/>
<path d="M218.949 136.435L197.503 155.839L218.949 173.764" stroke="#0055CC" stroke-width="15" stroke-miterlimit="10"/>
<path d="M120.503 134.535L142.542 154.476L120.503 172.896" stroke="#0055CC" stroke-width="15" stroke-miterlimit="10"/>
<path d="M145.58 205.159C158.382 183.173 184.619 186.793 195.645 205.159" stroke="#0055CC" stroke-width="15" stroke-miterlimit="10"/>
<path d="M373.854 299.757V314.757" stroke="#0055CC" stroke-width="15" stroke-miterlimit="10"/>
<path d="M373.854 329.757V344.757" stroke="#0055CC" stroke-width="15" stroke-miterlimit="10"/>
</g>
<defs>
<clipPath id="clip0_15_190">
<rect width="511.35" height="511.35" fill="white" transform="translate(0.5)"/>
</clipPath>
</defs>
</svg>
