<svg width="513" height="512" viewBox="0 0 513 512" fill="none" xmlns="http://www.w3.org/2000/svg">
<g clip-path="url(#clip0_15_265)">
<path d="M206.695 358.534C207.452 362.318 204.998 366 201.213 366.756L201.072 366.784C200.61 366.877 200.149 366.921 199.694 366.921C196.431 366.921 193.514 364.624 192.849 361.302C192.092 357.518 194.546 353.836 198.331 353.08L198.472 353.052C202.254 352.293 205.937 354.75 206.695 358.534ZM153.325 191.257L153.183 191.285C149.398 192.039 146.941 195.719 147.696 199.503C148.359 202.827 151.277 205.127 154.542 205.127C154.995 205.127 155.454 205.083 155.915 204.991L156.057 204.963C159.842 204.209 162.299 200.529 161.544 196.745C160.79 192.96 157.116 190.497 153.325 191.257ZM224.478 342.252C225.039 342.252 225.61 342.184 226.178 342.042L226.291 342.014C230.035 341.077 232.311 337.284 231.375 333.54C230.439 329.795 226.643 327.522 222.901 328.455L222.788 328.483C219.044 329.42 216.768 333.213 217.704 336.957C218.498 340.133 221.347 342.252 224.478 342.252ZM246.076 288.547C245.322 284.762 241.647 282.299 237.857 283.06L237.715 283.088C233.93 283.842 231.473 287.522 232.228 291.306C232.891 294.63 235.809 296.93 239.074 296.93C239.527 296.93 239.986 296.886 240.447 296.794L240.589 296.766C244.374 296.011 246.831 292.332 246.076 288.547ZM242.61 259.418C243.064 259.418 243.525 259.373 243.988 259.281L244.129 259.253C247.914 258.497 250.368 254.815 249.611 251.031C248.853 247.247 245.174 244.789 241.388 245.55L241.247 245.578C237.462 246.334 235.008 250.016 235.765 253.8C236.43 257.12 239.347 259.418 242.61 259.418ZM224.267 374.766L224.153 374.794C220.408 375.726 218.128 379.517 219.06 383.263C219.851 386.441 222.702 388.564 225.836 388.564C226.395 388.564 226.963 388.497 227.529 388.355L227.643 388.327C231.388 387.395 233.668 383.604 232.736 379.858C231.803 376.113 228.011 373.832 224.267 374.766ZM139.703 233.489C138.946 229.704 135.264 227.246 131.48 228.008L131.339 228.036C127.554 228.792 125.1 232.474 125.857 236.258C126.522 239.58 129.439 241.877 132.702 241.877C133.156 241.877 133.617 241.832 134.08 241.74L134.221 241.712C138.005 240.955 140.459 237.274 139.703 233.489ZM112.643 256.185L112.501 256.213C108.716 256.967 106.259 260.647 107.014 264.431C107.677 267.755 110.595 270.055 113.86 270.055C114.312 270.055 114.772 270.011 115.233 269.919L115.375 269.891C119.16 269.137 121.617 265.457 120.862 261.673C120.108 257.886 116.428 255.425 112.643 256.185ZM152.327 273.623L152.468 273.595C156.253 272.839 158.707 269.157 157.95 265.373C157.193 261.588 153.511 259.131 149.727 259.892L149.586 259.92C145.801 260.676 143.347 264.358 144.104 268.142C144.769 271.464 147.686 273.761 150.949 273.761C151.404 273.76 151.865 273.715 152.327 273.623ZM165.627 221.473L165.486 221.501C161.701 222.257 159.247 225.939 160.004 229.723C160.669 233.045 163.586 235.342 166.849 235.342C167.303 235.342 167.764 235.297 168.227 235.205L168.368 235.177C172.153 234.421 174.607 230.739 173.85 226.955C173.092 223.171 169.409 220.714 165.627 221.473ZM179.065 251.716L178.924 251.744C175.139 252.5 172.685 256.182 173.442 259.966C174.107 263.288 177.024 265.585 180.287 265.585C180.741 265.585 181.202 265.54 181.665 265.448L181.806 265.42C185.591 264.664 188.045 260.982 187.288 257.198C186.53 253.413 182.85 250.955 179.065 251.716ZM193.498 217.038C193.952 217.038 194.413 216.993 194.876 216.901L195.017 216.873C198.802 216.117 201.256 212.435 200.499 208.651C199.742 204.866 196.06 202.408 192.276 203.17L192.135 203.198C188.35 203.954 185.896 207.636 186.653 211.42C187.318 214.741 190.235 217.038 193.498 217.038ZM162.034 289.738L161.893 289.766C158.108 290.522 155.654 294.204 156.411 297.988C157.076 301.31 159.993 303.607 163.256 303.607C163.71 303.607 164.171 303.562 164.634 303.47L164.775 303.442C168.56 302.686 171.014 299.004 170.257 295.22C169.499 291.436 165.819 288.981 162.034 289.738ZM128.458 289.369L128.316 289.397C124.531 290.151 122.074 293.831 122.829 297.615C123.492 300.939 126.41 303.239 129.675 303.239C130.127 303.239 130.587 303.195 131.048 303.103L131.19 303.075C134.975 302.321 137.432 298.641 136.677 294.857C135.922 291.07 132.244 288.609 128.458 289.369ZM156.424 435.983L156.566 435.955C160.351 435.201 162.808 431.521 162.053 427.737C161.298 423.952 157.619 421.488 153.834 422.25L153.692 422.278C149.907 423.032 147.45 426.712 148.205 430.496C148.868 433.82 151.786 436.12 155.051 436.12C155.503 436.12 155.963 436.076 156.424 435.983ZM176.83 446.157L176.689 446.185C172.904 446.941 170.45 450.623 171.207 454.407C171.872 457.729 174.789 460.026 178.052 460.026C178.506 460.026 178.967 459.981 179.43 459.889L179.571 459.861C183.356 459.105 185.81 455.423 185.053 451.639C184.295 447.853 180.613 445.4 176.83 446.157ZM160.393 472.296L160.252 472.324C156.467 473.08 154.013 476.762 154.77 480.546C155.435 483.868 158.352 486.165 161.615 486.165C162.069 486.165 162.53 486.12 162.993 486.028L163.134 486C166.919 485.244 169.373 481.562 168.616 477.778C167.858 473.993 164.176 471.533 160.393 472.296ZM209.95 437.552L209.809 437.609C206.226 439.043 204.483 443.109 205.916 446.693C207.009 449.425 209.633 451.088 212.406 451.088C213.27 451.088 214.148 450.926 214.999 450.586L215.14 450.529C218.723 449.095 220.466 445.029 219.033 441.445C217.599 437.861 213.531 436.12 209.95 437.552ZM202.947 465.195L202.805 465.223C199.02 465.977 196.563 469.657 197.318 473.441C197.981 476.765 200.899 479.065 204.164 479.065C204.617 479.065 205.076 479.021 205.537 478.929L205.679 478.901C209.464 478.147 211.921 474.467 211.166 470.683C210.411 466.897 206.738 464.437 202.947 465.195ZM512 308.952C512 367.747 464.154 415.58 405.345 415.58C359.163 415.58 317.884 385.335 303.822 341.632L270.589 326.65C269.301 330.791 267.869 334.428 266.308 337.513L257.301 355.267V503.959C257.301 507.819 254.172 510.947 250.313 510.947C246.454 510.947 243.325 507.818 243.325 503.959V433.119C222.868 431.917 202.915 424.071 186.485 410.615C170.315 397.372 158.78 379.542 155.629 362.92C151.957 343.549 159.892 328.193 176.854 321.843C208.609 309.962 208.184 299.53 207.338 278.745C206.922 268.523 206.404 255.801 209.868 240.837C213.856 223.643 233.142 213.052 267.212 209.306C267.329 206.12 267.459 203.127 267.61 200.41C267.65 199.694 267.8 198.987 268.055 198.316L304.493 102.411C308.555 91.7232 303.287 84.9182 297.542 82.3392C292.288 79.9772 284.577 80.2492 280.131 88.7742L240.327 165.128C238.696 168.256 234.993 169.674 231.689 168.446C228.385 167.213 226.517 163.713 227.332 160.282L254.718 45.0832C256.283 38.4962 253.779 34.4392 251.403 32.1942C247.587 28.5912 241.413 27.1212 236.385 28.6242C233.256 29.5592 229.198 32.0552 227.633 38.6392L199.908 155.197C199.088 158.645 195.819 160.938 192.296 160.52C188.776 160.107 186.122 157.124 186.122 153.58V28.7922C186.122 18.6332 178.616 15.0292 172.189 15.0292C165.761 15.0292 158.256 18.6332 158.256 28.7922V160.598C158.256 164.143 155.603 167.125 152.082 167.538C148.558 167.942 145.289 165.662 144.47 162.214L118.98 54.9922C116.77 45.7012 111.423 41.2462 104.298 42.7502C96.933 44.3152 90.112 52.0302 91.936 61.7662L119.122 206.239C119.284 207.104 119.283 207.99 119.116 208.853C114.879 230.85 105.02 244.343 89.813 248.959C86.988 249.815 83.928 248.806 82.169 246.433L40.3 189.937C34.173 181.683 26.456 182.847 21.279 186.687C15.661 190.855 12.213 198.844 17.918 206.538C18.102 206.786 18.269 207.045 18.418 207.315C21.084 212.131 23.605 216.708 26.008 221.07C60.691 284.035 70.013 300.959 136.077 347.899C137.922 349.21 139.017 351.333 139.017 353.596V503.96C139.017 507.82 135.888 510.948 132.029 510.948C128.17 510.948 125.041 507.819 125.041 503.96V357.195C59.005 309.939 48.246 290.411 13.765 227.812C11.43 223.573 8.98401 219.132 6.40101 214.465C-4.00099 199.997 1.95601 183.617 12.951 175.462C23.851 167.376 40.601 166.894 51.524 181.611L90.131 233.705C97.424 229.542 102.357 220.906 105.136 207.491L78.201 64.3442C74.824 46.3212 87.611 32.0082 101.394 29.0792C113.611 26.4852 127.993 32.4882 132.576 51.7592L144.28 100.991V28.7922C144.28 10.5812 158.32 1.05322 172.189 1.05322C186.058 1.05322 200.097 10.5812 200.097 28.7922V94.0082L214.036 35.4082C216.424 25.3582 223.112 18.0042 232.384 15.2342C242.268 12.2832 253.5 14.9522 260.999 22.0362C268.037 28.6842 270.702 38.2632 268.314 48.3162L253.94 108.783L267.739 82.3132C275.697 67.0622 291.635 64.3682 303.266 69.5912C315.053 74.8832 324.553 88.9652 317.556 107.376L281.505 202.263C281.157 208.929 280.932 216.964 280.674 226.194C280.148 244.982 279.511 267.575 277.466 288.154L303.822 276.272C310.437 255.739 323.43 237.329 340.67 224.155C359.382 209.855 381.746 202.297 405.345 202.297C464.154 202.297 512 250.143 512 308.952ZM257.735 320.856L245.461 315.323C242.956 314.193 241.345 311.701 241.345 308.953C241.345 306.205 242.956 303.712 245.461 302.583L262.668 294.826C265.386 272.83 266.114 246.884 266.704 225.804C266.726 225.004 266.749 224.214 266.771 223.422C241.144 226.501 225.868 233.71 223.483 243.994C220.445 257.119 220.9 268.308 221.302 278.179C222.205 300.356 222.985 319.508 181.753 334.935C168.476 339.906 167.686 351.482 169.361 360.319C173.779 383.626 202.298 416.419 243.326 419.127V353.597C243.326 352.499 243.585 351.415 244.082 350.435L253.842 331.197C255.25 328.411 256.553 324.937 257.735 320.856ZM498.024 308.952C498.024 257.848 456.448 216.273 405.345 216.273C364.259 216.273 327.641 243.824 316.297 283.271C315.73 285.244 314.324 286.867 312.453 287.71L265.335 308.951L268.73 310.482C268.835 310.527 268.94 310.573 269.042 310.623L312.453 330.193C314.324 331.036 315.729 332.659 316.296 334.631C327.643 374.064 364.26 401.604 405.344 401.604C456.448 401.604 498.024 360.041 498.024 308.952ZM391.906 264.961C391.906 276.629 382.414 286.122 370.745 286.122C359.061 286.122 349.555 276.629 349.555 264.961C349.555 253.293 359.061 243.799 370.745 243.799C382.414 243.799 391.906 253.293 391.906 264.961ZM377.931 264.961C377.931 260.998 374.707 257.775 370.746 257.775C366.768 257.775 363.532 260.998 363.532 264.961C363.532 268.923 366.768 272.146 370.746 272.146C374.708 272.146 377.931 268.923 377.931 264.961ZM382.627 341.034C382.627 352.702 373.134 362.195 361.466 362.195C349.782 362.195 340.276 352.702 340.276 341.034C340.276 329.366 349.782 319.872 361.466 319.872C373.135 319.872 382.627 329.366 382.627 341.034ZM368.652 341.034C368.652 337.071 365.428 333.848 361.466 333.848C357.488 333.848 354.252 337.071 354.252 341.034C354.252 344.996 357.488 348.219 361.466 348.219C365.429 348.219 368.652 344.996 368.652 341.034ZM452.788 359.338C452.788 371.006 443.295 380.499 431.627 380.499C419.943 380.499 410.437 371.006 410.437 359.338C410.437 347.654 419.943 338.148 431.627 338.148C443.295 338.149 452.788 347.654 452.788 359.338ZM438.813 359.338C438.813 355.36 435.589 352.125 431.627 352.125C427.649 352.125 424.413 355.361 424.413 359.338C424.413 363.3 427.649 366.523 431.627 366.523C435.589 366.523 438.813 363.3 438.813 359.338ZM413.323 330.115C401.655 330.115 392.162 320.621 392.162 308.953C392.162 297.269 401.655 287.763 413.323 287.763C425.007 287.763 434.513 297.269 434.513 308.953C434.512 320.621 425.007 330.115 413.323 330.115ZM413.323 316.138C417.301 316.138 420.537 312.915 420.537 308.952C420.537 304.975 417.301 301.739 413.323 301.739C409.361 301.739 406.137 304.975 406.137 308.952C406.137 312.915 409.36 316.138 413.323 316.138ZM467.103 260.633C467.103 272.317 457.597 281.823 445.913 281.823C434.245 281.823 424.752 272.317 424.752 260.633C424.752 248.965 434.245 239.471 445.913 239.471C457.597 239.471 467.103 248.965 467.103 260.633ZM453.128 260.633C453.128 256.67 449.892 253.447 445.914 253.447C441.952 253.447 438.728 256.67 438.728 260.633C438.728 264.61 441.952 267.846 445.914 267.846C449.891 267.846 453.128 264.61 453.128 260.633Z" fill="#0055CC"/>
</g>
<defs>
<clipPath id="clip0_15_265">
<rect width="512" height="512" fill="white" transform="translate(0.5)"/>
</clipPath>
</defs>
</svg>
