<svg width="512" height="512" viewBox="0 0 512 512" fill="none" xmlns="http://www.w3.org/2000/svg">
<path d="M474.989 391.18L489.282 382.928L481.282 369.072L466.961 377.34C463.434 372.704 459.296 368.566 454.66 365.039L462.928 350.718L449.072 342.718L440.82 357.011C435.446 354.748 429.786 353.236 424 352.518V336H408V352.518C402.214 353.236 396.554 354.748 391.18 357.011L382.928 342.718L369.072 350.718L377.34 365.039C372.703 368.566 368.566 372.704 365.039 377.34L350.718 369.072L342.718 382.928L357.01 391.18C354.748 396.554 353.236 402.214 352.518 408H336V424H352.518C353.236 429.786 354.748 435.446 357.011 440.82L342.718 449.072L350.718 462.928L365.039 454.66C368.566 459.296 372.704 463.434 377.34 466.961L369.072 481.282L382.928 489.282L391.18 474.989C396.554 477.252 402.214 478.764 408 479.482V496H424V479.482C429.786 478.764 435.446 477.252 440.82 474.989L449.072 489.282L462.928 481.282L454.66 466.961C459.297 463.434 463.434 459.296 466.961 454.66L481.282 462.928L489.282 449.072L474.99 440.82C477.252 435.446 478.764 429.786 479.482 424H496V408H479.482C478.764 402.214 477.252 396.554 474.989 391.18ZM464 416C464 425.494 461.185 434.774 455.911 442.667C450.636 450.561 443.14 456.713 434.369 460.346C425.598 463.979 415.947 464.93 406.636 463.078C397.325 461.226 388.772 456.654 382.059 449.941C375.346 443.228 370.774 434.675 368.922 425.364C367.07 416.053 368.021 406.402 371.654 397.631C375.287 388.86 381.439 381.364 389.333 376.089C397.226 370.815 406.506 368 416 368C428.726 368.014 440.927 373.076 449.925 382.075C458.924 391.073 463.986 403.274 464 416Z" fill="#0055CC"/>
<path d="M400 400H416V416H400V400Z" fill="#0055CC"/>
<path d="M424 384H440V400H424V384Z" fill="#0055CC"/>
<path d="M392 432H408V448H392V432Z" fill="#0055CC"/>
<path d="M432 424H448V440H432V424Z" fill="#0055CC"/>
<path d="M241 399.36L200 387.212V339.125C213.953 342.371 228.233 344.007 242.559 344H253.766C263.008 343.98 271.959 340.769 279.106 334.909C286.253 329.05 291.157 320.903 292.99 311.845C293.568 308.953 293.498 305.968 292.783 303.106C292.069 300.245 290.728 297.577 288.858 295.296C286.988 293.015 284.636 291.178 281.97 289.916C279.304 288.654 276.391 288 273.441 288H269.121C266.025 288 262.972 287.281 260.201 285.901C257.43 284.52 255.018 282.515 253.154 280.044C251.289 277.572 250.024 274.702 249.458 271.659C248.892 268.615 249.04 265.482 249.89 262.505C251.096 258.334 253.623 254.665 257.09 252.05C260.557 249.435 264.778 248.014 269.121 248H280C286.363 247.993 292.463 245.462 296.963 240.963C301.462 236.463 303.993 230.363 304 224V211.313L311.502 203.811C314.342 200.983 316.426 197.486 317.561 193.642C318.696 189.798 318.847 185.73 317.999 181.812L296.339 80.7357C303.84 73.3144 309.794 64.4782 313.856 54.7392C317.917 45.0002 320.006 34.552 320 24V16H120C92.4271 16.0312 65.9924 26.9983 46.4954 46.4954C26.9983 65.9924 16.0312 92.4271 16 120V176.804C15.9953 228.473 36.0761 278.12 72 315.256V356.716C41.1327 388.045 23.8822 430.294 24 474.274V496H40V474.274C39.8898 435.025 55.0713 397.277 82.3252 369.033L236.455 414.701C251.341 419.112 264.403 428.216 273.692 440.657C282.981 453.098 288 468.208 288 483.734V496H304V483.734C304 464.757 297.866 446.289 286.512 431.084C275.159 415.879 259.194 404.751 241 399.36ZM184 382.471L88 354.027V315.63L110.656 295.806C111.719 294.876 112.729 293.896 113.713 292.893C130.28 308.522 149.564 320.992 170.614 329.689C175.03 331.519 179.492 333.172 184 334.65V382.471ZM302.354 185.165C302.636 186.471 302.586 187.827 302.208 189.108C301.829 190.389 301.135 191.555 300.188 192.498L288 204.687V224C287.998 226.121 287.154 228.154 285.654 229.654C284.154 231.154 282.121 231.998 280 232H269.121C261.304 232.025 253.705 234.583 247.465 239.29C241.224 243.997 236.677 250.601 234.505 258.11C232.975 263.468 232.708 269.108 233.728 274.586C234.747 280.064 237.024 285.231 240.38 289.679C243.735 294.128 248.078 297.736 253.065 300.222C258.052 302.707 263.548 304 269.121 304H273.441C274.024 304 274.599 304.129 275.125 304.378C275.651 304.627 276.116 304.99 276.485 305.44C276.854 305.891 277.118 306.417 277.26 306.982C277.401 307.547 277.414 308.136 277.3 308.707C276.201 314.142 273.258 319.03 268.97 322.546C264.682 326.061 259.311 327.988 253.766 328H242.559C198.033 328.121 155.22 310.852 123.24 279.871C128.862 269.293 130.939 257.188 129.163 245.341C127.388 233.493 121.854 222.529 113.377 214.064L111.598 212.284C107.97 208.656 105.499 204.034 104.498 199.002C103.498 193.97 104.011 188.754 105.975 184.014C107.938 179.274 111.263 175.222 115.529 172.372C119.795 169.522 124.81 168 129.941 168H152V160C152.017 145.153 157.922 130.919 168.421 120.421C178.919 109.922 193.153 104.017 208 104H240C254.983 104.013 269.664 99.7924 282.352 91.8238L302.354 185.165ZM32 120C32.0264 96.669 41.3062 74.3012 57.8037 57.8037C74.3012 41.3062 96.669 32.0264 120 32H303.502C301.534 47.4583 294.001 61.67 282.313 71.977C270.625 82.2839 255.583 87.98 240 88H208C190.296 88.0223 173.218 94.5574 160.021 106.36C146.825 118.163 138.432 134.408 136.441 152H129.941C121.646 152 113.537 154.46 106.64 159.068C99.7427 163.677 94.367 170.227 91.1926 177.891C88.0182 185.555 87.1876 193.987 88.8059 202.123C90.4242 210.259 94.4187 217.732 100.284 223.598L102.064 225.377C105.937 229.25 108.973 233.877 110.984 238.972C112.996 244.066 113.94 249.519 113.757 254.993C113.575 260.467 112.271 265.845 109.925 270.795C107.579 275.744 104.241 280.158 100.12 283.765L80.4766 300.953C49.1924 267.194 31.8695 222.83 32 176.804V120Z" fill="#0055CC"/>
<path d="M168 456H184V496H168V456Z" fill="#0055CC"/>
<path d="M219.2 142.4L242.667 160L219.2 177.6L228.8 190.4L269.333 160L228.8 129.6L219.2 142.4Z" fill="#0055CC"/>
<path d="M318.912 224.013L446.876 208.017L448.86 223.889L320.896 239.885L318.912 224.013Z" fill="#0055CC"/>
<path d="M310.008 271.583L314.408 256.191L426.464 288.223L422.064 303.615L310.008 271.583Z" fill="#0055CC"/>
<path d="M306.755 302.166L316.995 289.878L364.981 329.866L354.741 342.154L306.755 302.166Z" fill="#0055CC"/>
<path d="M432 168H448V184H432V168Z" fill="#0055CC"/>
<path d="M464 144H480V160H464V144Z" fill="#0055CC"/>
<path d="M480 224H496V240H480V224Z" fill="#0055CC"/>
<path d="M416 240H432V256H416V240Z" fill="#0055CC"/>
<path d="M456 296H472V312H456V296Z" fill="#0055CC"/>
<path d="M296 344H312V360H296V344Z" fill="#0055CC"/>
<path d="M256 368H272V384H256V368Z" fill="#0055CC"/>
<path d="M304 392H320V408H304V392Z" fill="#0055CC"/>
<path d="M352 120C356.747 120 361.387 118.592 365.334 115.955C369.28 113.318 372.357 109.57 374.173 105.184C375.99 100.799 376.465 95.9734 375.539 91.3178C374.613 86.6623 372.327 82.3859 368.971 79.0294C365.614 75.673 361.338 73.3872 356.682 72.4612C352.027 71.5351 347.201 72.0104 342.816 73.8269C338.43 75.6434 334.682 78.7195 332.045 82.6663C329.408 86.6131 328 91.2533 328 96C328.007 102.363 330.538 108.463 335.037 112.963C339.537 117.462 345.637 119.993 352 120ZM352 88C353.582 88 355.129 88.4692 356.445 89.3483C357.76 90.2273 358.786 91.4767 359.391 92.9385C359.997 94.4004 360.155 96.0089 359.846 97.5607C359.538 99.1126 358.776 100.538 357.657 101.657C356.538 102.776 355.113 103.538 353.561 103.846C352.009 104.155 350.4 103.997 348.939 103.391C347.477 102.786 346.227 101.76 345.348 100.445C344.469 99.129 344 97.5823 344 96C344.002 93.879 344.846 91.8456 346.346 90.3458C347.846 88.8461 349.879 88.0024 352 88Z" fill="#0055CC"/>
<path d="M400 72H416V88H400V72Z" fill="#0055CC"/>
<path d="M432 40H448V56H432V40Z" fill="#0055CC"/>
<path d="M448 88H464V104H448V88Z" fill="#0055CC"/>
<path d="M376 136H392V152H376V136Z" fill="#0055CC"/>
<path d="M344 168H360V184H344V168Z" fill="#0055CC"/>
<path d="M416 112H432V128H416V112Z" fill="#0055CC"/>
</svg>
