<svg width="512" height="512" viewBox="0 0 512 512" fill="none" xmlns="http://www.w3.org/2000/svg">
<path d="M265.615 306.033C252.744 301.301 238.835 298.718 224.323 298.718V261.573" stroke="#0055CC" stroke-width="30" stroke-miterlimit="10"/>
<path d="M139.656 261.573V298.718C73.566 298.718 19.989 352.295 19.989 418.385V497H343.989V422.133" stroke="#0055CC" stroke-width="30" stroke-miterlimit="10"/>
<path d="M100.781 96.208V189.484C100.781 234.366 136.82 271.418 181.702 271.573C226.684 271.729 263.197 235.311 263.197 190.365V96.208C263.197 51.358 226.839 15 181.989 15C137.139 15 100.781 51.358 100.781 96.208Z" stroke="#0055CC" stroke-width="30" stroke-miterlimit="10"/>
<path d="M100.781 125.486H70.781C54.212 125.486 40.781 138.917 40.781 155.486C40.781 172.055 54.212 185.486 70.781 185.486H100.781" stroke="#0055CC" stroke-width="30" stroke-miterlimit="10"/>
<path d="M263.197 185.486H293.197C309.766 185.486 323.197 172.055 323.197 155.486C323.197 138.917 309.766 125.486 293.197 125.486H263.197" stroke="#0055CC" stroke-width="30" stroke-miterlimit="10"/>
<path d="M151.416 211.573C151.416 194.688 165.104 181 181.989 181C198.874 181 212.562 194.688 212.562 211.573" stroke="#0055CC" stroke-width="30" stroke-miterlimit="10"/>
<path d="M261.793 75.3579C239.012 90.7479 211.55 99.7349 181.989 99.7349C152.905 99.7349 125.852 91.0359 103.291 76.0979" stroke="#0055CC" stroke-width="30" stroke-miterlimit="10"/>
<path d="M89.989 423.667V497" stroke="#0055CC" stroke-width="30" stroke-miterlimit="10"/>
<path d="M118.989 349.287V379.287" stroke="#0055CC" stroke-width="30" stroke-miterlimit="10"/>
<path d="M245.489 422.133V452.133" stroke="#0055CC" stroke-width="30" stroke-miterlimit="10"/>
<path d="M208.989 339.143V369.143" stroke="#0055CC" stroke-width="30" stroke-miterlimit="10"/>
<path d="M148.489 408.667V438.667" stroke="#0055CC" stroke-width="30" stroke-miterlimit="10"/>
<path d="M374.436 222.9L401.764 255.036L442.762 245.101L445.982 287.162L484.989 303.222L462.871 339.143L484.989 375.063L445.982 391.123L442.762 433.185L401.764 423.249L374.436 455.385L347.109 423.249L306.111 433.185L302.891 391.123L263.884 375.063L286.002 339.143L263.884 303.222L302.891 287.162L306.111 245.101L347.109 255.036L374.436 222.9Z" stroke="#0055CC" stroke-width="30" stroke-miterlimit="10"/>
<path d="M374.436 369.143C391.005 369.143 404.436 355.711 404.436 339.143C404.436 322.574 391.005 309.143 374.436 309.143C357.867 309.143 344.436 322.574 344.436 339.143C344.436 355.711 357.867 369.143 374.436 369.143Z" stroke="#0055CC" stroke-width="30" stroke-miterlimit="10"/>
</svg>
