<svg width="512" height="512" viewBox="0 0 512 512" fill="none" xmlns="http://www.w3.org/2000/svg">
<g clip-path="url(#clip0_11_113)">
<path d="M247.742 330.322V297.29H264.258V346.839H280.774V294.491C290.502 289.899 297.29 280.072 297.29 268.626C297.29 257.701 291.221 247.866 281.435 242.977L280.774 242.638V224.917C280.774 216.675 285.357 209.259 292.724 205.576L285.333 190.802C272.343 197.318 264.258 210.391 264.258 224.917V252.845L274.06 257.742C278.198 259.815 280.774 263.985 280.774 268.618C280.774 275.324 275.324 280.774 268.618 280.774H243.373C236.676 280.774 231.226 275.324 231.226 268.618C231.226 263.977 233.802 259.815 237.94 257.742L247.742 252.845V224.917C247.742 210.382 239.657 197.31 226.659 190.802L219.268 205.576C226.643 209.268 231.226 216.675 231.226 224.917V242.638L230.557 242.969C220.779 247.866 214.71 257.693 214.71 268.618C214.71 280.064 221.498 289.891 231.226 294.482V330.322H247.742Z" fill="#0055CC"/>
<path d="M177.003 181.677C173.155 181.677 169.381 182.726 166.103 184.7L127.884 207.624L136.382 221.787L148.645 214.437V222.968C148.645 236.627 159.761 247.742 173.419 247.742C187.078 247.742 198.194 236.627 198.194 222.968V202.868C198.194 191.183 188.689 181.677 177.003 181.677ZM181.677 222.968C181.677 227.526 177.978 231.226 173.419 231.226C168.861 231.226 165.161 227.526 165.161 222.968V204.528L174.609 198.854C177.54 197.079 181.677 199.441 181.677 202.868V222.968Z" fill="#0055CC"/>
<path d="M338.581 247.742C352.239 247.742 363.355 236.627 363.355 222.968V214.437L375.618 221.795L384.116 207.633L345.906 184.716C342.619 182.726 338.845 181.677 334.997 181.677C323.311 181.677 313.806 191.183 313.806 202.868V222.968C313.806 236.627 324.922 247.742 338.581 247.742ZM330.323 202.868C330.323 200.291 332.42 198.194 334.997 198.194C335.847 198.194 336.665 198.417 337.4 198.863L346.839 204.528V222.968C346.839 227.526 343.139 231.226 338.581 231.226C334.022 231.226 330.323 227.526 330.323 222.968V202.868Z" fill="#0055CC"/>
<path d="M320.9 387.617C372.026 368.756 409.154 321.041 412.482 264.258H421.161C443.929 264.258 462.452 245.735 462.452 222.968C462.452 212.455 458.38 202.958 451.889 195.658L471.899 175.649L470.28 170.81C465.045 155.119 455.184 141.196 442.211 131.031L464.822 108.412L461.064 102.78C450.254 86.561 435.613 73.183 418.535 63.8679L443.367 39.0359L433.119 33.9076C388.757 11.7264 339.101 0 289.495 0H195.088C114.837 0 49.5483 65.2883 49.5483 145.54C49.5483 153.567 50.2172 161.619 51.5303 169.464L56.6007 199.903C52.1496 206.501 49.5483 214.437 49.5483 222.968C49.5483 245.735 68.0712 264.258 90.8387 264.258H99.5179C102.846 321.041 139.974 368.756 191.108 387.617C155.747 404.48 132.129 440.815 132.129 480.785V512H379.871V480.785C379.871 440.815 356.253 404.48 320.9 387.617ZM220.218 412.234L217.253 394.455C223.463 395.446 229.781 396.073 236.23 396.222L220.218 412.234ZM247.742 408.064L256 399.806L264.258 408.064V445.935H247.742V408.064ZM275.77 396.222C282.219 396.073 288.537 395.446 294.747 394.455L291.782 412.234L275.77 396.222ZM421.161 247.742H412.903V235.644L434.003 221.58L424.844 207.839L412.903 215.8V198.194H421.161C434.82 198.194 445.935 209.309 445.935 222.968C445.935 236.627 434.82 247.742 421.161 247.742ZM195.088 16.5161H289.495C332.701 16.5161 375.965 25.8973 415.315 43.7182L390.705 68.3272L407.362 76.6513C421.492 83.712 433.846 93.9437 443.417 106.455L416.462 133.409L427.892 141.031C438.99 148.43 447.711 159.067 452.856 171.338L438.544 185.65C433.243 183.164 427.388 181.677 421.161 181.677H412.903V167.474C412.903 128.413 386.667 93.6299 349.101 82.8945L344.568 98.783C372.364 106.719 392.456 130.882 395.825 159.116C382.191 142.642 361.588 132.129 338.581 132.129H181.677C163.46 132.129 148.645 117.314 148.645 99.0968V82.5806H132.129V99.0968C132.129 106.314 133.715 113.152 136.497 119.337C114.283 127.62 99.0967 148.794 99.0967 173.419V181.677H90.8387C83.6872 181.677 77.0477 183.668 71.1762 186.888L67.8234 166.755C66.6508 159.794 66.0645 152.65 66.0645 145.54C66.0645 74.3969 123.945 16.5161 195.088 16.5161ZM66.0645 222.968C66.0645 209.309 77.1798 198.194 90.8387 198.194H99.0967V215.8L87.1638 207.839L78.0056 221.58L99.0967 235.644V247.742H90.8387C77.1798 247.742 66.0645 236.627 66.0645 222.968ZM115.613 256V173.419C115.613 154.426 128.306 138.43 146.259 133.673C155.26 142.898 167.804 148.645 181.677 148.645H338.581C370.448 148.645 396.387 174.584 396.387 206.452V256C396.387 324.302 340.819 379.871 272.516 379.871H239.484C171.181 379.871 115.613 324.302 115.613 256ZM363.355 495.484H330.323V462.452H313.806V495.484H198.193V462.452H181.677V495.484H148.645V480.785C148.645 445.944 170.025 414.423 201.604 401.02L209.201 446.604L231.226 424.58V445.935C231.226 455.044 238.633 462.452 247.742 462.452H264.258C273.367 462.452 280.774 455.044 280.774 445.935V424.58L302.798 446.604L310.396 401.02C341.975 414.423 363.355 445.944 363.355 480.785V495.484Z" fill="#0055CC"/>
<path d="M99.0968 363.355H81.0612C80.7721 362.545 80.4666 361.761 80.1032 361.001L88.4274 352.677L76.7504 341L68.4263 349.324C67.6583 348.953 66.8738 348.647 66.0645 348.358V330.323H82.5806V313.806H33.0323V330.323H49.5484V348.358C48.7391 348.647 47.9546 348.953 47.1948 349.316L38.8707 340.992L27.1938 352.669L35.5179 360.993C35.1463 361.761 34.8408 362.545 34.5517 363.355H16.5161V346.839H0V396.387H16.5161V379.871H34.5517C34.8408 380.68 35.1463 381.465 35.5097 382.224L27.1855 390.549L38.8624 402.225L47.1866 393.901C47.9546 394.273 48.7391 394.579 49.5484 394.868V412.903H33.0323V429.419H82.5806V412.903H66.0645V394.868C66.8738 394.579 67.6583 394.273 68.4181 393.91L76.7422 402.234L88.4191 390.557L80.095 382.233C80.4666 381.465 80.7721 380.68 81.0612 379.871H99.0968V396.387H115.613V346.839H99.0968V363.355ZM66.0645 371.613C66.0645 376.171 62.3649 379.871 57.8064 379.871C53.248 379.871 49.5484 376.171 49.5484 371.613C49.5484 367.054 53.248 363.355 57.8064 363.355C62.3649 363.355 66.0645 367.054 66.0645 371.613Z" fill="#0055CC"/>
<path d="M497.903 443.516L509.58 431.839L476.548 398.807L464.871 410.484L475.549 421.161L464.805 431.905C461.576 430.352 458.009 429.419 454.193 429.419C450.378 429.419 446.811 430.352 443.582 431.905L432.838 421.161L443.516 410.484L431.839 398.807L398.807 431.839L410.484 443.516L421.161 432.838L431.905 443.582C430.352 446.811 429.419 450.378 429.419 454.193C429.419 458.009 430.352 461.576 431.905 464.805L421.161 475.549L410.484 464.871L398.807 476.548L431.839 509.58L443.516 497.903L432.838 487.226L443.582 476.482C446.811 478.035 450.378 478.968 454.193 478.968C458.009 478.968 461.576 478.035 464.805 476.482L475.549 487.226L464.871 497.903L476.548 509.58L509.58 476.548L497.903 464.871L487.226 475.549L476.482 464.805C478.035 461.576 478.968 458.009 478.968 454.193C478.968 450.378 478.035 446.811 476.482 443.582L487.226 432.838L497.903 443.516ZM454.193 462.452C449.635 462.452 445.935 458.752 445.935 454.193C445.935 449.635 449.635 445.935 454.193 445.935C458.752 445.935 462.452 449.635 462.452 454.193C462.452 458.752 458.752 462.452 454.193 462.452Z" fill="#0055CC"/>
<path d="M495.484 264.258H478.968V280.774H462.452V297.29H478.968V313.806H495.484V297.29H512V280.774H495.484V264.258Z" fill="#0055CC"/>
<path d="M16.5161 99.0967H33.0323V82.5806H49.5484V66.0645H33.0323V49.5483H16.5161V66.0645H0V82.5806H16.5161V99.0967Z" fill="#0055CC"/>
<path d="M90.8388 462.452C77.1799 462.452 66.0646 473.567 66.0646 487.226C66.0646 500.885 77.1799 512 90.8388 512C104.498 512 115.613 500.885 115.613 487.226C115.613 473.567 104.498 462.452 90.8388 462.452ZM90.8388 495.484C86.2803 495.484 82.5807 491.784 82.5807 487.226C82.5807 482.667 86.2803 478.968 90.8388 478.968C95.3972 478.968 99.0968 482.667 99.0968 487.226C99.0968 491.784 95.3972 495.484 90.8388 495.484Z" fill="#0055CC"/>
<path d="M412.903 330.323C412.903 343.981 424.019 355.097 437.677 355.097C451.336 355.097 462.452 343.981 462.452 330.323C462.452 316.664 451.336 305.548 437.677 305.548C424.019 305.548 412.903 316.664 412.903 330.323ZM445.935 330.323C445.935 334.881 442.236 338.581 437.677 338.581C433.119 338.581 429.419 334.881 429.419 330.323C429.419 325.764 433.119 322.064 437.677 322.064C442.236 322.064 445.935 325.764 445.935 330.323Z" fill="#0055CC"/>
<path d="M487.226 99.0967C500.885 99.0967 512 87.9814 512 74.3225C512 60.6637 500.885 49.5483 487.226 49.5483C473.567 49.5483 462.452 60.6637 462.452 74.3225C462.452 87.9814 473.567 99.0967 487.226 99.0967ZM487.226 66.0645C491.784 66.0645 495.484 69.7641 495.484 74.3225C495.484 78.881 491.784 82.5806 487.226 82.5806C482.667 82.5806 478.968 78.881 478.968 74.3225C478.968 69.7641 482.667 66.0645 487.226 66.0645Z" fill="#0055CC"/>
</g>
<defs>
<clipPath id="clip0_11_113">
<rect width="512" height="512" fill="white"/>
</clipPath>
</defs>
</svg>
