<svg width="48" height="48" viewBox="0 0 48 48" fill="none" xmlns="http://www.w3.org/2000/svg">
<path d="M24 8C13.99 8 7 14.58 7 24C7 27.14 8.87 31.09 13 32.98V38.41C13 41.53 15 44.22 17.99 45.12C19.96 45.71 21.98 46 24 46C26.02 46 28.04 45.71 30.01 45.12C31.5 44.67 32.75 43.77 33.63 42.6C34.5 41.42 35 39.97 35 38.41V32.98C39.13 31.09 41 27.14 41 24C41 14.58 34.01 8 24 8ZM31 11.42C32.51 12.1 33.85 12.99 34.98 14.09C34.94 14.59 34.52 15 34 15H32C31.45 15 31 14.55 31 14V11.42ZM25 10.04C26.41 10.11 27.75 10.33 29 10.69V14C29 14.55 28.55 15 28 15H26C25.45 15 25 14.55 25 14V10.04ZM19 10.69C20.25 10.33 21.59 10.11 23 10.04V14C23 14.55 22.55 15 22 15H20C19.45 15 19 14.55 19 14V10.69ZM17 11.42V14C17 14.55 16.55 15 16 15H14C13.48 15 13.06 14.59 13.02 14.09C14.15 12.99 15.49 12.1 17 11.42ZM33 38.41C33 40.64 31.57 42.56 29.44 43.2C25.88 44.27 22.12 44.27 18.56 43.2C16.43 42.56 15 40.64 15 38.41V29.92C15 29.01 15.41 28.15 16.13 27.58C16.97 26.9 17.99 26.56 19 26.56C20.01 26.56 21.03 26.9 21.87 27.58L23.38 28.78C23.74 29.07 24.26 29.07 24.62 28.78L26.13 27.58C27.82 26.23 30.18 26.23 31.87 27.58C32.59 28.15 33 29.01 33 29.92V38.41Z" fill="#0055CC"/>
<path d="M31 2C29.13 2 27.67 2.66 26.38 3.24C25.47 3.65 24.69 4 24 4C23.31 4 22.53 3.65 21.62 3.24C20.33 2.66 18.86 2 17 2C7.21 2 2 14.78 2 24C2 28.99 5.23 34.29 10.44 37.84C10.9 38.15 11.52 38.03 11.83 37.58C12.14 37.12 12.02 36.5 11.57 36.19C6.9 33.01 4.01 28.34 4.01 24C4.01 15.83 8.64 4 17.01 4C18.45 4 19.65 4.54 20.81 5.06C21.88 5.54 22.89 6 24.01 6C25.13 6 26.14 5.54 27.21 5.06C28.37 4.54 29.58 4 31.01 4C39.38 4 44.01 15.83 44.01 24C44.01 28.34 41.11 33.01 36.45 36.19C35.99 36.5 35.88 37.12 36.19 37.58C36.38 37.86 36.7 38.02 37.02 38.02C37.21 38.02 37.41 37.96 37.58 37.85C42.78 34.3 46.02 29 46.02 24.01C46.02 14.79 40.81 2.01 31.02 2.01L31 2Z" fill="#0055CC"/>
<path d="M30 41C30.5523 41 31 40.5523 31 40C31 39.4477 30.5523 39 30 39C29.4477 39 29 39.4477 29 40C29 40.5523 29.4477 41 30 41Z" fill="#0055CC"/>
<path d="M27 42C27.5523 42 28 41.5523 28 41C28 40.4477 27.5523 40 27 40C26.4477 40 26 40.4477 26 41C26 41.5523 26.4477 42 27 42Z" fill="#0055CC"/>
<path d="M28 39C28.5523 39 29 38.5523 29 38C29 37.4477 28.5523 37 28 37C27.4477 37 27 37.4477 27 38C27 38.5523 27.4477 39 28 39Z" fill="#0055CC"/>
<path d="M31 38C31.5523 38 32 37.5523 32 37C32 36.4477 31.5523 36 31 36C30.4477 36 30 36.4477 30 37C30 37.5523 30.4477 38 31 38Z" fill="#0055CC"/>
</svg>
