<svg width="512" height="512" viewBox="0 0 512 512" fill="none" xmlns="http://www.w3.org/2000/svg">
<g clip-path="url(#clip0_11_179)">
<path d="M448 296C445.261 295.985 442.545 296.499 440 297.512V280C440 268.934 434.984 248 416 248C413.084 247.977 410.196 248.557 407.514 249.702C405.897 238.462 399.786 224 384 224C368.214 224 362.103 238.462 360.486 249.702C357.804 248.557 354.916 247.977 352 248C333.016 248 328 268.934 328 280V384C328 386.122 327.157 388.157 325.657 389.657C324.157 391.157 322.122 392 320 392C317.878 392 315.843 391.157 314.343 389.657C312.843 388.157 312 386.122 312 384V352C312 330.828 280.297 321.828 273.938 320.238C272.758 319.944 271.528 319.923 270.339 320.176C269.15 320.428 268.034 320.948 267.077 321.697C266.119 322.445 265.344 323.401 264.811 324.493C264.278 325.585 264 326.785 264 328V424C263.998 425.911 264.683 427.759 265.93 429.207L312 482.961V504C312 506.122 312.843 508.157 314.343 509.657C315.843 511.157 317.878 512 320 512C322.122 512 324.157 511.157 325.657 509.657C327.157 508.157 328 506.122 328 504V480C328.002 478.089 327.317 476.241 326.07 474.793L280 421.039V339.129C288.273 342.602 296 347.574 296 352V384C296 390.365 298.529 396.47 303.029 400.971C307.53 405.471 313.635 408 320 408C326.365 408 332.47 405.471 336.971 400.971C341.471 396.47 344 390.365 344 384V280.027C344 279.867 344.445 264 352 264C359.555 264 360 279.867 360 280V336C360 338.122 360.843 340.157 362.343 341.657C363.843 343.157 365.878 344 368 344C370.122 344 372.157 343.157 373.657 341.657C375.157 340.157 376 338.122 376 336V256.027C376 255.867 376.445 240 384 240C391.555 240 392 255.867 392 256V336C392 338.122 392.843 340.157 394.343 341.657C395.843 343.157 397.878 344 400 344C402.122 344 404.157 343.157 405.657 341.657C407.157 340.157 408 338.122 408 336V280.027C408 279.867 408.445 264 416 264C423.555 264 424 279.867 424 280V368C424 370.122 424.843 372.157 426.343 373.657C427.843 375.157 429.878 376 432 376C434.122 376 436.157 375.157 437.657 373.657C439.157 372.157 440 370.122 440 368V328.027C440 327.867 440.445 312 448 312C455.555 312 456 327.867 456 328V429.578L425.344 475.562C424.468 476.877 424.001 478.421 424 480V504C424 506.122 424.843 508.157 426.343 509.657C427.843 511.157 429.878 512 432 512C434.122 512 436.157 511.157 437.657 509.657C439.157 508.157 440 506.122 440 504V482.422L470.656 436.438C471.532 435.123 471.999 433.579 472 432V328C472 316.934 466.984 296 448 296Z" fill="#0055CC"/>
<path d="M184 312C274.852 312 362.234 217.418 365.906 213.395C367.252 211.92 367.998 209.996 367.998 208C367.998 206.004 367.252 204.08 365.906 202.605C362.234 198.582 274.852 104 184 104C93.1484 104 5.7656 198.582 2.09376 202.605C0.748055 204.08 0.00198269 206.004 0.00198269 208C0.00198269 209.996 0.748055 211.92 2.09376 213.395C5.7656 217.418 93.1484 312 184 312ZM112 208C112 193.76 116.223 179.839 124.134 167.999C132.046 156.159 143.291 146.93 156.447 141.481C169.603 136.031 184.08 134.605 198.047 137.383C212.013 140.162 224.842 147.019 234.912 157.088C244.981 167.158 251.838 179.987 254.617 193.953C257.395 207.92 255.969 222.397 250.519 235.553C245.07 248.709 235.841 259.954 224.001 267.866C212.161 275.777 198.24 280 184 280C164.911 279.978 146.61 272.386 133.112 258.888C119.614 245.39 112.022 227.089 112 208ZM193.588 295.453C215.136 293.097 235.056 282.868 249.527 266.729C263.997 250.59 272 229.676 272 208C272 186.324 263.997 165.41 249.527 149.271C235.056 133.132 215.136 122.903 193.588 120.547C262.273 126.114 329.906 188.979 348.867 208C329.906 227.021 262.273 289.886 193.588 295.453ZM174.412 120.547C152.864 122.903 132.944 133.132 118.473 149.271C104.003 165.41 95.9998 186.324 95.9998 208C95.9998 229.676 104.003 250.59 118.473 266.729C132.944 282.868 152.864 293.097 174.412 295.453C105.727 289.886 38.0942 227.021 19.1328 208C38.0942 188.979 105.727 126.114 174.412 120.547Z" fill="#0055CC"/>
<path d="M224 200C222.949 200 221.909 200.206 220.938 200.608C219.967 201.01 219.085 201.6 218.343 202.343C217.6 203.085 217.01 203.967 216.608 204.938C216.206 205.909 216 206.949 216 208C216 214.329 214.123 220.516 210.607 225.778C207.091 231.041 202.093 235.142 196.246 237.564C190.399 239.986 183.964 240.62 177.757 239.385C171.55 238.15 165.848 235.103 161.373 230.627C156.897 226.152 153.85 220.45 152.615 214.243C151.38 208.035 152.014 201.601 154.436 195.754C156.858 189.907 160.959 184.909 166.222 181.393C171.484 177.877 177.671 176 184 176C186.122 176 188.157 175.157 189.657 173.657C191.157 172.157 192 170.122 192 168C192 165.878 191.157 163.843 189.657 162.343C188.157 160.843 186.122 160 184 160C174.506 160 165.226 162.815 157.333 168.089C149.439 173.364 143.287 180.86 139.654 189.631C136.021 198.402 135.07 208.053 136.922 217.364C138.774 226.675 143.346 235.228 150.059 241.941C156.772 248.654 165.325 253.226 174.636 255.078C183.947 256.93 193.598 255.979 202.369 252.346C211.14 248.713 218.636 242.561 223.911 234.667C229.185 226.774 232 217.494 232 208C232 206.949 231.794 205.909 231.392 204.938C230.99 203.967 230.4 203.085 229.657 202.343C228.915 201.6 228.033 201.01 227.062 200.608C226.091 200.206 225.051 200 224 200Z" fill="#0055CC"/>
<path d="M16 168C17.0507 168.001 18.0913 167.795 19.0619 167.392C20.0326 166.99 20.9142 166.4 21.656 165.656C22.4297 164.879 100.281 88 184 88C267.578 88 345.57 164.883 346.344 165.66C347.848 167.142 349.878 167.969 351.989 167.961C354.101 167.953 356.124 167.11 357.617 165.617C359.109 164.123 359.951 162.1 359.959 159.988C359.966 157.877 359.138 155.848 357.656 154.344C354.297 150.98 274.273 72 184 72C93.7266 72 13.7031 150.98 10.344 154.344C9.22552 155.463 8.46387 156.888 8.15533 158.44C7.84679 159.991 8.00522 161.6 8.61058 163.061C9.21594 164.523 10.2411 165.772 11.5563 166.651C12.8716 167.53 14.418 168 16 168Z" fill="#0055CC"/>
<path d="M232 168H216V184H232V168Z" fill="#0055CC"/>
<path d="M424 0C406.595 0 389.581 5.16111 375.11 14.8307C360.638 24.5002 349.359 38.244 342.699 54.3239C336.038 70.4038 334.295 88.0976 337.691 105.168C341.086 122.238 349.468 137.918 361.775 150.225C374.082 162.532 389.762 170.914 406.832 174.309C423.902 177.705 441.596 175.962 457.676 169.301C473.756 162.641 487.5 151.362 497.169 136.89C506.839 122.419 512 105.405 512 88C511.974 64.669 502.694 42.3012 486.196 25.8037C469.699 9.30623 447.331 0.0263617 424 0ZM468.888 31.8L424 76.6875L379.112 31.8C391.838 21.5743 407.674 16.0002 424 16.0002C440.325 16.0002 456.162 21.5743 468.888 31.8ZM352 88C351.995 71.6736 357.57 55.8359 367.8 43.112L412.688 88L367.8 132.888C357.57 120.164 351.995 104.326 352 88ZM379.112 144.2L424 99.3125L468.888 144.2C456.162 154.426 440.326 160 424 160C407.675 160 391.838 154.426 379.112 144.2ZM480.2 132.888L435.312 88L480.2 43.112C490.426 55.8381 496 71.6742 496 87.9997C496 104.325 490.426 120.162 480.2 132.888Z" fill="#0055CC"/>
<path d="M184 384C179.053 384.015 174.232 385.561 170.199 388.426C166.165 391.291 163.118 395.334 161.474 400H151.277C150.078 392.874 147.275 386.114 143.081 380.23L149.718 373.596C152.921 375.159 156.436 375.981 160 376C164.747 376 169.387 374.592 173.334 371.955C177.28 369.318 180.357 365.57 182.173 361.184C183.99 356.799 184.465 351.973 183.539 347.318C182.613 342.662 180.327 338.386 176.971 335.029C173.614 331.673 169.338 329.387 164.682 328.461C160.027 327.535 155.201 328.01 150.816 329.827C146.43 331.643 142.682 334.72 140.045 338.666C137.408 342.613 136 347.253 136 352C136.019 355.565 136.841 359.08 138.406 362.284L131.768 368.918C125.884 364.724 119.125 361.922 112 360.723V350.526C117.338 348.639 121.837 344.925 124.702 340.042C127.567 335.159 128.613 329.42 127.656 323.84C126.699 318.259 123.8 313.197 119.471 309.548C115.143 305.898 109.663 303.897 104.001 303.896C98.3397 303.896 92.8601 305.898 88.5313 309.547C84.2025 313.196 81.3031 318.258 80.3455 323.838C79.388 329.418 80.434 335.157 83.2986 340.041C86.1633 344.924 90.6621 348.638 96 350.525V360.723C88.8749 361.922 82.1154 364.724 76.232 368.918L69.5943 362.284C71.1588 359.08 71.9811 355.565 72 352C72 347.253 70.5924 342.613 67.9553 338.666C65.3181 334.72 61.5698 331.643 57.1844 329.827C52.799 328.01 47.9734 327.535 43.3178 328.461C38.6623 329.387 34.3859 331.673 31.0294 335.029C27.673 338.386 25.3872 342.662 24.4612 347.318C23.5351 351.973 24.0104 356.799 25.8269 361.184C27.6434 365.57 30.7195 369.318 34.6663 371.955C38.6131 374.592 43.2532 376 48 376C51.5643 375.981 55.0786 375.159 58.2818 373.596L64.9194 380.23C60.7248 386.114 57.9219 392.874 56.7226 400H46.5258C44.6387 394.662 40.9253 390.164 36.042 387.299C31.1587 384.434 25.4199 383.388 19.84 384.346C14.26 385.303 9.19814 388.202 5.549 392.531C1.89986 396.859 -0.101577 402.339 -0.101577 408C-0.101577 413.661 1.89986 419.141 5.549 423.469C9.19814 427.798 14.26 430.697 19.84 431.654C25.4199 432.612 31.1587 431.566 36.042 428.701C40.9253 425.836 44.6387 421.338 46.5258 416H56.7226C57.9219 423.126 60.7248 429.886 64.9194 435.77L58.2818 442.404C55.0786 440.841 51.5643 440.019 48 440C43.2532 440 38.6131 441.408 34.6663 444.045C30.7195 446.682 27.6434 450.43 25.8269 454.816C24.0104 459.201 23.5351 464.027 24.4612 468.682C25.3872 473.338 27.673 477.614 31.0294 480.971C34.3859 484.327 38.6623 486.613 43.3178 487.539C47.9734 488.465 52.799 487.99 57.1844 486.173C61.5698 484.357 65.3181 481.28 67.9553 477.334C70.5924 473.387 72 468.747 72 464C71.981 460.435 71.1589 456.92 69.5947 453.716L76.2324 447.082C82.1157 451.276 88.875 454.078 96 455.277V465.474C90.6623 467.361 86.1636 471.075 83.299 475.958C80.4343 480.841 79.3883 486.58 80.3456 492.16C81.303 497.74 84.2022 502.802 88.5307 506.451C92.8593 510.1 98.3385 512.102 104 512.102C109.661 512.102 115.141 510.1 119.469 506.451C123.798 502.802 126.697 497.74 127.654 492.16C128.612 486.58 127.566 480.841 124.701 475.958C121.836 471.075 117.338 467.361 112 465.474V455.277C119.125 454.078 125.884 451.276 131.768 447.082L138.405 453.716C136.841 456.92 136.019 460.435 136 464C136 468.747 137.408 473.387 140.045 477.334C142.682 481.28 146.43 484.357 150.816 486.173C155.201 487.99 160.027 488.465 164.682 487.539C169.338 486.613 173.614 484.327 176.971 480.971C180.327 477.614 182.613 473.338 183.539 468.682C184.465 464.027 183.99 459.201 182.173 454.816C180.357 450.43 177.28 446.682 173.334 444.045C169.387 441.408 164.747 440 160 440C156.436 440.019 152.921 440.841 149.718 442.404L143.081 435.77C147.275 429.886 150.078 423.126 151.277 416H161.475C162.949 420.137 165.532 423.789 168.941 426.557C172.35 429.325 176.454 431.103 180.806 431.696C185.157 432.289 189.587 431.675 193.613 429.921C197.639 428.166 201.105 425.339 203.633 421.748C206.161 418.157 207.653 413.94 207.946 409.559C208.24 405.177 207.323 400.799 205.297 396.903C203.271 393.007 200.212 389.743 196.457 387.467C192.701 385.192 188.391 383.992 184 384ZM160 344C161.582 344 163.129 344.469 164.445 345.348C165.76 346.227 166.786 347.477 167.391 348.939C167.997 350.4 168.155 352.009 167.846 353.561C167.538 355.113 166.776 356.538 165.657 357.657C164.538 358.776 163.113 359.538 161.561 359.846C160.009 360.155 158.4 359.997 156.939 359.391C155.477 358.786 154.227 357.76 153.348 356.445C152.469 355.129 152 353.582 152 352C152.002 349.879 152.846 347.845 154.345 346.345C155.845 344.846 157.879 344.002 160 344ZM104 320C105.582 320 107.129 320.469 108.445 321.348C109.76 322.227 110.786 323.477 111.391 324.939C111.997 326.4 112.155 328.009 111.846 329.561C111.538 331.113 110.776 332.538 109.657 333.657C108.538 334.776 107.113 335.538 105.561 335.846C104.009 336.155 102.4 335.997 100.939 335.391C99.4767 334.786 98.2273 333.76 97.3482 332.445C96.4692 331.129 96 329.582 96 328C96.0021 325.879 96.8457 323.845 98.3455 322.345C99.8453 320.846 101.879 320.002 104 320ZM40 352C40 350.418 40.4692 348.871 41.3482 347.555C42.2273 346.24 43.4767 345.214 44.9385 344.609C46.4003 344.003 48.0089 343.845 49.5607 344.154C51.1126 344.462 52.538 345.224 53.6569 346.343C54.7757 347.462 55.5376 348.887 55.8463 350.439C56.155 351.991 55.9965 353.6 55.391 355.061C54.7855 356.523 53.7602 357.773 52.4446 358.652C51.129 359.531 49.5823 360 48 360C45.8789 359.998 43.8453 359.154 42.3455 357.655C40.8457 356.155 40.0021 354.121 40 352ZM24 416C22.4178 416 20.871 415.531 19.5554 414.652C18.2398 413.773 17.2145 412.523 16.609 411.061C16.0035 409.6 15.845 407.991 16.1537 406.439C16.4624 404.887 17.2243 403.462 18.3431 402.343C19.462 401.224 20.8874 400.462 22.4393 400.154C23.9911 399.845 25.5997 400.003 27.0615 400.609C28.5233 401.214 29.7727 402.24 30.6518 403.555C31.5308 404.871 32 406.418 32 408C31.9979 410.121 31.1543 412.155 29.6545 413.655C28.1547 415.154 26.1211 415.998 24 416ZM48 472C46.4178 472 44.871 471.531 43.5554 470.652C42.2398 469.773 41.2145 468.523 40.609 467.061C40.0035 465.6 39.845 463.991 40.1537 462.439C40.4624 460.887 41.2243 459.462 42.3431 458.343C43.462 457.224 44.8874 456.462 46.4393 456.154C47.9911 455.845 49.5997 456.003 51.0615 456.609C52.5233 457.214 53.7727 458.24 54.6518 459.555C55.5308 460.871 56 462.418 56 464C55.9979 466.121 55.1543 468.155 53.6545 469.655C52.1547 471.154 50.1211 471.998 48 472ZM104 496C102.418 496 100.871 495.531 99.5554 494.652C98.2398 493.773 97.2145 492.523 96.609 491.061C96.0035 489.6 95.845 487.991 96.1537 486.439C96.4624 484.887 97.2243 483.462 98.3431 482.343C99.462 481.224 100.887 480.462 102.439 480.154C103.991 479.845 105.6 480.003 107.061 480.609C108.523 481.214 109.773 482.24 110.652 483.555C111.531 484.871 112 486.418 112 488C111.998 490.121 111.154 492.155 109.655 493.655C108.155 495.154 106.121 495.998 104 496ZM104 440C97.671 440 91.4841 438.123 86.2218 434.607C80.9594 431.091 76.8579 426.093 74.4359 420.246C72.0138 414.399 71.3801 407.965 72.6149 401.757C73.8496 395.55 76.8973 389.848 81.3726 385.373C85.8479 380.897 91.5497 377.85 97.7571 376.615C103.965 375.38 110.399 376.014 116.246 378.436C122.093 380.858 127.091 384.959 130.607 390.222C134.123 395.484 136 401.671 136 408C135.991 416.484 132.617 424.618 126.617 430.617C120.618 436.617 112.484 439.991 104 440ZM168 464C168 465.582 167.531 467.129 166.652 468.445C165.773 469.76 164.523 470.786 163.061 471.391C161.6 471.997 159.991 472.155 158.439 471.846C156.887 471.538 155.462 470.776 154.343 469.657C153.224 468.538 152.462 467.113 152.154 465.561C151.845 464.009 152.003 462.4 152.609 460.939C153.214 459.477 154.24 458.227 155.555 457.348C156.871 456.469 158.418 456 160 456C162.121 456.002 164.155 456.846 165.655 458.345C167.154 459.845 167.998 461.879 168 464ZM184 416C182.418 416 180.871 415.531 179.555 414.652C178.24 413.773 177.214 412.523 176.609 411.061C176.003 409.6 175.845 407.991 176.154 406.439C176.462 404.887 177.224 403.462 178.343 402.343C179.462 401.224 180.887 400.462 182.439 400.154C183.991 399.845 185.6 400.003 187.061 400.609C188.523 401.214 189.773 402.24 190.652 403.555C191.531 404.871 192 406.418 192 408C191.998 410.121 191.154 412.155 189.655 413.655C188.155 415.154 186.121 415.998 184 416Z" fill="#0055CC"/>
<path d="M120 384H104V400H120V384Z" fill="#0055CC"/>
<path d="M104 408H88V424H104V408Z" fill="#0055CC"/>
</g>
<defs>
<clipPath id="clip0_11_179">
<rect width="512" height="512" fill="white"/>
</clipPath>
</defs>
</svg>
