<svg width="64" height="64" viewBox="0 0 64 64" fill="none" xmlns="http://www.w3.org/2000/svg">
<path d="M6.287 45.05C6.29272 45.1241 6.30715 45.1973 6.33 45.268C6.342 45.3107 6.35704 45.3525 6.375 45.393C6.41534 45.4768 6.46717 45.5545 6.529 45.624C6.543 45.64 6.549 45.661 6.563 45.675L15.763 54.875C15.9505 55.0625 16.2048 55.1679 16.47 55.168H38.6C39.1105 56.7777 40.0287 58.2281 41.2653 59.3781C42.5019 60.5282 44.0149 61.3389 45.6574 61.7315C47.2999 62.1241 49.016 62.0852 50.639 61.6187C52.262 61.1522 53.7368 60.2738 54.9201 59.0689C56.1033 57.8641 56.9549 56.3737 57.3921 54.7425C57.8292 53.1113 57.8371 51.3948 57.4149 49.7597C56.9927 48.1246 56.1548 46.6265 54.9826 45.4108C53.8104 44.1952 52.3437 43.3034 50.725 42.822V3C50.725 2.73478 50.6196 2.48043 50.4321 2.29289C50.2446 2.10536 49.9902 2 49.725 2H7.271C7.00578 2 6.75143 2.10536 6.56389 2.29289C6.37635 2.48043 6.271 2.73478 6.271 3V44.968C6.27479 44.9956 6.28013 45.023 6.287 45.05ZM9.687 45.967H15.476V51.756L9.687 45.967ZM55.728 52.206C55.728 53.7476 55.2709 55.2545 54.4144 56.5362C53.5579 57.818 52.3406 58.8169 50.9164 59.4068C49.4922 59.9967 47.925 60.151 46.4131 59.8502C44.9012 59.5494 43.5124 58.8069 42.4225 57.7168C41.3325 56.6267 40.5903 55.2379 40.2896 53.7259C39.989 52.214 40.1435 50.6468 40.7336 49.2227C41.3236 47.7985 42.3228 46.5813 43.6046 45.725C44.8865 44.8687 46.3934 44.4118 47.935 44.412C50.0016 44.4136 51.9831 45.2352 53.4444 46.6966C54.9057 48.1579 55.7264 50.1394 55.728 52.206ZM47.935 42.412C45.3384 42.4149 42.8489 43.4477 41.0128 45.2838C39.1767 47.1199 38.1439 49.6094 38.141 52.206C38.141 52.531 38.158 52.853 38.189 53.17H17.477V44.97C17.477 44.7048 17.3716 44.4504 17.1841 44.2629C16.9966 44.0754 16.7422 43.97 16.477 43.97H8.271V8.32H48.725V42.452C48.464 42.431 48.199 42.412 47.935 42.412ZM48.725 4V6.32H8.271V4H48.725Z" fill="#0055CC"/>
<path d="M20.475 25.279C20.8753 25.729 21.3609 26.0951 21.9037 26.3562C22.4464 26.6173 23.0356 26.7681 23.637 26.8C23.728 26.8 23.818 26.808 23.909 26.808C25.0315 26.8108 26.1154 26.3984 26.952 25.65C27.8594 24.8399 28.4085 23.7029 28.4788 22.4885C28.5491 21.2741 28.1349 20.0814 27.327 19.172L21.4 12.519C20.5832 11.6403 19.4547 11.1166 18.2563 11.0599C17.0579 11.0033 15.8851 11.4183 14.989 12.216C14.0929 13.0137 13.545 14.1307 13.4626 15.3276C13.3801 16.5244 13.7698 17.706 14.548 18.619L20.475 25.279ZM25.622 24.16C25.1082 24.6133 24.4362 24.8454 23.7521 24.8059C23.068 24.7664 22.4272 24.4584 21.969 23.949L19.551 21.234L23.476 17.86L25.833 20.505C26.2889 21.018 26.5227 21.6909 26.4831 22.3761C26.4436 23.0613 26.1339 23.7028 25.622 24.16ZM16.25 13.638C16.7628 13.1825 17.4353 12.9489 18.1201 12.9884C18.8049 13.028 19.446 13.3375 19.903 13.849L22.145 16.366L18.22 19.74L16.039 17.292C15.5834 16.779 15.3498 16.1063 15.3893 15.4214C15.4289 14.7365 15.7384 14.0951 16.25 13.638Z" fill="#0055CC"/>
<path d="M29.579 15.127H33.25C33.5152 15.127 33.7696 15.0216 33.9571 14.8341C34.1446 14.6466 34.25 14.3922 34.25 14.127C34.25 13.8618 34.1446 13.6074 33.9571 13.4199C33.7696 13.2324 33.5152 13.127 33.25 13.127H29.579C29.3138 13.127 29.0594 13.2324 28.8719 13.4199C28.6844 13.6074 28.579 13.8618 28.579 14.127C28.579 14.3922 28.6844 14.6466 28.8719 14.8341C29.0594 15.0216 29.3138 15.127 29.579 15.127Z" fill="#0055CC"/>
<path d="M45.032 13.127H37.689C37.4238 13.127 37.1694 13.2324 36.9819 13.4199C36.7944 13.6074 36.689 13.8618 36.689 14.127C36.689 14.3922 36.7944 14.6466 36.9819 14.8341C37.1694 15.0216 37.4238 15.127 37.689 15.127H45.032C45.2972 15.127 45.5516 15.0216 45.7391 14.8341C45.9266 14.6466 46.032 14.3922 46.032 14.127C46.032 13.8618 45.9266 13.6074 45.7391 13.4199C45.5516 13.2324 45.2972 13.127 45.032 13.127Z" fill="#0055CC"/>
<path d="M43.41 17.914H30.519C30.2538 17.914 29.9994 18.0194 29.8119 18.2069C29.6244 18.3944 29.519 18.6488 29.519 18.914C29.519 19.1792 29.6244 19.4336 29.8119 19.6211C29.9994 19.8086 30.2538 19.914 30.519 19.914H43.41C43.6752 19.914 43.9296 19.8086 44.1171 19.6211C44.3046 19.4336 44.41 19.1792 44.41 18.914C44.41 18.6488 44.3046 18.3944 44.1171 18.2069C43.9296 18.0194 43.6752 17.914 43.41 17.914Z" fill="#0055CC"/>
<path d="M38.373 25.031C38.6382 25.031 38.8926 24.9256 39.0801 24.7381C39.2676 24.5506 39.373 24.2962 39.373 24.031C39.373 23.7658 39.2676 23.5114 39.0801 23.3239C38.8926 23.1364 38.6382 23.031 38.373 23.031H30.519C30.2538 23.031 29.9994 23.1364 29.8119 23.3239C29.6244 23.5114 29.519 23.7658 29.519 24.031C29.519 24.2962 29.6244 24.5506 29.8119 24.7381C29.9994 24.9256 30.2538 25.031 30.519 25.031H38.373Z" fill="#0055CC"/>
<path d="M12.76 32.544H35.56C35.8252 32.544 36.0796 32.4386 36.2671 32.2511C36.4546 32.0636 36.56 31.8092 36.56 31.544C36.56 31.2788 36.4546 31.0244 36.2671 30.8369C36.0796 30.6494 35.8252 30.544 35.56 30.544H12.76C12.4948 30.544 12.2404 30.6494 12.0529 30.8369C11.8654 31.0244 11.76 31.2788 11.76 31.544C11.76 31.8092 11.8654 32.0636 12.0529 32.2511C12.2404 32.4386 12.4948 32.544 12.76 32.544Z" fill="#0055CC"/>
<path d="M12.76 37.326H25.908C26.1732 37.326 26.4276 37.2206 26.6151 37.0331C26.8026 36.8456 26.908 36.5912 26.908 36.326C26.908 36.0608 26.8026 35.8064 26.6151 35.6189C26.4276 35.4314 26.1732 35.326 25.908 35.326H12.76C12.4948 35.326 12.2404 35.4314 12.0529 35.6189C11.8654 35.8064 11.76 36.0608 11.76 36.326C11.76 36.5912 11.8654 36.8456 12.0529 37.0331C12.2404 37.2206 12.4948 37.326 12.76 37.326Z" fill="#0055CC"/>
<path d="M42.3 40.021H12.76C12.4948 40.021 12.2404 40.1264 12.0529 40.3139C11.8654 40.5014 11.76 40.7558 11.76 41.021C11.76 41.2862 11.8654 41.5406 12.0529 41.7281C12.2404 41.9156 12.4948 42.021 12.76 42.021H42.3C42.5652 42.021 42.8196 41.9156 43.0071 41.7281C43.1946 41.5406 43.3 41.2862 43.3 41.021C43.3 40.7558 43.1946 40.5014 43.0071 40.3139C42.8196 40.1264 42.5652 40.021 42.3 40.021Z" fill="#0055CC"/>
<path d="M46.936 47.138V51.206H42.867C42.6018 51.206 42.3474 51.3114 42.1599 51.4989C41.9724 51.6864 41.867 51.9408 41.867 52.206C41.867 52.4712 41.9724 52.7256 42.1599 52.9131C42.3474 53.1006 42.6018 53.206 42.867 53.206H46.936V57.274C46.936 57.5392 47.0414 57.7936 47.2289 57.9811C47.4164 58.1686 47.6708 58.274 47.936 58.274C48.2012 58.274 48.4556 58.1686 48.6431 57.9811C48.8306 57.7936 48.936 57.5392 48.936 57.274V53.206H53C53.2652 53.206 53.5196 53.1006 53.7071 52.9131C53.8946 52.7256 54 52.4712 54 52.206C54 51.9408 53.8946 51.6864 53.7071 51.4989C53.5196 51.3114 53.2652 51.206 53 51.206H48.936V47.138C48.936 46.8728 48.8306 46.6184 48.6431 46.4309C48.4556 46.2434 48.2012 46.138 47.936 46.138C47.6708 46.138 47.4164 46.2434 47.2289 46.4309C47.0414 46.6184 46.936 46.8728 46.936 47.138Z" fill="#0055CC"/>
</svg>
