<svg width="512" height="512" viewBox="0 0 512 512" fill="none" xmlns="http://www.w3.org/2000/svg">
<path d="M488 416H312C307.584 416 304 419.584 304 424V432H208V424C208 419.584 204.416 416 200 416H56V184C56 170.768 66.768 160 80 160H88C92.416 160 96 156.416 96 152C96 147.584 92.416 144 88 144H80C57.944 144 40 161.944 40 184V416H24C19.584 416 16 419.584 16 424V456C16 478.056 33.944 496 56 496H296C300.416 496 304 492.416 304 488C304 483.584 300.416 480 296 480H56C42.768 480 32 469.232 32 456V432H192V440C192 444.416 195.584 448 200 448H312C316.416 448 320 444.416 320 440V432H480V456C480 469.232 469.232 480 456 480H328C323.584 480 320 483.584 320 488C320 492.416 323.584 496 328 496H456C478.056 496 496 478.056 496 456V424C496 419.584 492.416 416 488 416Z" fill="#0055CC"/>
<path d="M448 464C452.418 464 456 460.418 456 456C456 451.582 452.418 448 448 448C443.582 448 440 451.582 440 456C440 460.418 443.582 464 448 464Z" fill="#0055CC"/>
<path d="M416 464C420.418 464 424 460.418 424 456C424 451.582 420.418 448 416 448C411.582 448 408 451.582 408 456C408 460.418 411.582 464 416 464Z" fill="#0055CC"/>
<path d="M96 464C100.418 464 104 460.418 104 456C104 451.582 100.418 448 96 448C91.5817 448 88 451.582 88 456C88 460.418 91.5817 464 96 464Z" fill="#0055CC"/>
<path d="M64 464C68.4183 464 72 460.418 72 456C72 451.582 68.4183 448 64 448C59.5817 448 56 451.582 56 456C56 460.418 59.5817 464 64 464Z" fill="#0055CC"/>
<path d="M88 320C83.584 320 80 323.584 80 328V368C80 372.416 83.584 376 88 376H424C428.416 376 432 372.416 432 368V328C432 323.584 428.416 320 424 320H400V208C400 203.584 396.416 200 392 200C387.584 200 384 203.584 384 208V360H128V48C128 39.176 135.176 32 144 32H388.296C385.56 36.712 384 42.176 384 48V176C384 180.416 387.584 184 392 184C396.416 184 400 180.416 400 176V160H432C445.232 160 456 170.768 456 184V392C456 396.416 459.584 400 464 400C468.416 400 472 396.416 472 392V184C472 161.944 454.056 144 432 144H400V112H440C444.416 112 448 108.416 448 104V48C448 30.352 433.648 16 416 16H144C126.352 16 112 30.352 112 48V320H88ZM400 336H416V360H400V336ZM416 32C424.824 32 432 39.176 432 48V96H400V48C400 39.176 407.176 32 416 32ZM96 360V336H112V360H96Z" fill="#0055CC"/>
<path d="M289.376 335.992C295.52 335.992 301.664 333.656 306.344 328.976L320.304 315.016C321.8 326.808 331.792 336 344 336C357.232 336 368 325.232 368 312V280C368 266.768 357.232 256 344 256C335.016 256 327.264 261.016 323.152 268.336C314.12 263.76 302.384 265.04 295.032 272.4L272.4 295.024C267.864 299.56 265.368 305.584 265.368 312C265.368 318.416 267.864 324.44 272.4 328.968C277.08 333.648 283.224 335.992 289.376 335.992ZM352 312C352 316.408 348.408 320 344 320C339.592 320 336 316.408 336 312V304H352V312ZM336 280C336 275.592 339.592 272 344 272C348.408 272 352 275.592 352 280V288H336V280ZM306.344 283.712C309.36 280.688 314.632 280.688 317.656 283.712C320.776 286.832 320.776 291.904 317.656 295.032L312 300.688L300.688 289.368L306.344 283.712ZM283.712 306.344L289.368 300.688L300.688 312L295.032 317.656C291.904 320.776 286.824 320.768 283.712 317.656C282.2 316.152 281.368 314.144 281.368 312C281.368 309.856 282.2 307.856 283.712 306.344Z" fill="#0055CC"/>
<path d="M250.344 125.656C251.904 127.216 253.952 128 256 128C258.048 128 260.096 127.216 261.656 125.656L268 119.312L274.344 125.656C275.904 127.216 277.952 128 280 128C282.048 128 284.096 127.216 285.656 125.656C288.784 122.528 288.784 117.472 285.656 114.344L279.312 108L285.656 101.656C288.784 98.528 288.784 93.472 285.656 90.344C282.528 87.216 277.472 87.216 274.344 90.344L268 96.688L258.464 87.152C261.872 83 264 77.776 264 72C264 58.768 253.232 48 240 48H224C219.584 48 216 51.584 216 56V112C216 116.416 219.584 120 224 120C228.416 120 232 116.416 232 112V96H240C241.456 96 242.872 95.816 244.256 95.568L256.688 108L250.344 114.344C247.216 117.472 247.216 122.528 250.344 125.656ZM232 80V64H240C244.408 64 248 67.592 248 72C248 76.408 244.408 80 240 80H232Z" fill="#0055CC"/>
<path d="M176 136C162.768 136 152 146.768 152 160C152 173.232 162.768 184 176 184C189.232 184 200 173.232 200 160C200 146.768 189.232 136 176 136ZM176 168C171.592 168 168 164.408 168 160C168 155.592 171.592 152 176 152C180.408 152 184 155.592 184 160C184 164.408 180.408 168 176 168Z" fill="#0055CC"/>
<path d="M176 200C162.768 200 152 210.768 152 224C152 237.232 162.768 248 176 248C189.232 248 200 237.232 200 224C200 210.768 189.232 200 176 200ZM176 232C171.592 232 168 228.408 168 224C168 219.592 171.592 216 176 216C180.408 216 184 219.592 184 224C184 228.408 180.408 232 176 232Z" fill="#0055CC"/>
<path d="M176 272C162.768 272 152 282.768 152 296C152 309.232 162.768 320 176 320C189.232 320 200 309.232 200 296C200 282.768 189.232 272 176 272ZM176 304C171.592 304 168 300.408 168 296C168 291.592 171.592 288 176 288C180.408 288 184 291.592 184 296C184 300.408 180.408 304 176 304Z" fill="#0055CC"/>
<path d="M240 160H216C211.584 160 208 163.584 208 168C208 172.416 211.584 176 216 176H240C244.416 176 248 172.416 248 168C248 163.584 244.416 160 240 160Z" fill="#0055CC"/>
<path d="M216 248H232C236.416 248 240 244.416 240 240C240 235.584 236.416 232 232 232H216C211.584 232 208 235.584 208 240C208 244.416 211.584 248 216 248Z" fill="#0055CC"/>
<path d="M216 320H240C244.416 320 248 316.416 248 312C248 307.584 244.416 304 240 304H216C211.584 304 208 307.584 208 312C208 316.416 211.584 320 216 320Z" fill="#0055CC"/>
<path d="M264 248H312C316.416 248 320 244.416 320 240C320 235.584 316.416 232 312 232H264C259.584 232 256 235.584 256 240C256 244.416 259.584 248 264 248Z" fill="#0055CC"/>
<path d="M264 168C264 172.416 267.584 176 272 176H304C308.416 176 312 172.416 312 168C312 163.584 308.416 160 304 160H272C267.584 160 264 163.584 264 168Z" fill="#0055CC"/>
<path d="M360 160H336C331.584 160 328 163.584 328 168C328 172.416 331.584 176 336 176H360C364.416 176 368 172.416 368 168C368 163.584 364.416 160 360 160Z" fill="#0055CC"/>
</svg>
