<svg width="512" height="512" viewBox="0 0 512 512" fill="none" xmlns="http://www.w3.org/2000/svg">
<path d="M112 472V40C112.002 37.879 112.846 35.8456 114.346 34.3458C115.846 32.8461 117.879 32.0024 120 32H176V40C176.007 46.363 178.538 52.4633 183.037 56.9626C187.537 61.4619 193.637 63.9928 200 64H312C318.363 63.9928 324.463 61.4619 328.963 56.9626C333.462 52.4633 335.993 46.363 336 40V32H392C394.121 32.0024 396.154 32.8461 397.654 34.3458C399.154 35.8456 399.998 37.879 400 40V96H416V40C415.993 33.637 413.462 27.5368 408.963 23.0375C404.463 18.5382 398.363 16.0073 392 16H120C113.637 16.0073 107.537 18.5382 103.037 23.0375C98.5382 27.5368 96.0073 33.637 96 40V472C96.0073 478.363 98.5382 484.463 103.037 488.963C107.537 493.462 113.637 495.993 120 496H248V480H120C117.879 479.998 115.846 479.154 114.346 477.654C112.846 476.154 112.002 474.121 112 472Z" fill="#0055CC"/>
<path d="M423.707 183.582C422.472 187.284 422.136 191.227 422.724 195.085C423.313 198.943 424.809 202.605 427.091 205.771C429.373 208.937 432.375 211.516 435.848 213.294C439.322 215.072 443.169 216 447.071 216H448.929C452.831 216 456.678 215.072 460.152 213.294C463.626 211.516 466.627 208.937 468.909 205.771C471.191 202.605 472.687 198.943 473.276 195.085C473.864 191.227 473.528 187.284 472.293 183.582C471.601 181.506 470.635 179.531 469.421 177.71L454.656 155.562C453.926 154.467 452.936 153.568 451.775 152.947C450.614 152.325 449.317 152 448 152C446.683 152 445.386 152.325 444.225 152.947C443.064 153.568 442.074 154.467 441.344 155.562L426.579 177.71C425.365 179.531 424.399 181.506 423.707 183.582ZM438.885 188.643C439.128 187.915 439.466 187.224 439.891 186.586L439.892 186.585L448 174.423L456.109 186.586C456.534 187.224 456.872 187.915 457.115 188.643C457.547 189.94 457.665 191.321 457.459 192.672C457.252 194.024 456.728 195.307 455.928 196.416C455.129 197.526 454.078 198.429 452.861 199.052C451.644 199.675 450.296 200 448.929 200H447.071C445.704 200 444.356 199.675 443.14 199.052C441.923 198.429 440.871 197.525 440.072 196.416C439.272 195.307 438.748 194.024 438.541 192.672C438.335 191.321 438.453 189.94 438.885 188.643Z" fill="#0055CC"/>
<path d="M376 144V96C376 93.8783 375.157 91.8435 373.657 90.3432C372.157 88.8429 370.122 88 368 88H144C141.878 88 139.843 88.8429 138.343 90.3432C136.843 91.8435 136 93.8783 136 96V144C136 146.122 136.843 148.157 138.343 149.657C139.843 151.157 141.878 152 144 152H368C370.122 152 372.157 151.157 373.657 149.657C375.157 148.157 376 146.122 376 144ZM360 136H152V104H360V136Z" fill="#0055CC"/>
<path d="M368 192V176H144C141.878 176 139.843 176.843 138.343 178.343C136.843 179.843 136 181.878 136 184V232C136 234.122 136.843 236.157 138.343 237.657C139.843 239.157 141.878 240 144 240H328V224H152V192H368Z" fill="#0055CC"/>
<path d="M312 280V264H144C141.878 264 139.843 264.843 138.343 266.343C136.843 267.843 136 269.878 136 272V320C136 322.122 136.843 324.157 138.343 325.657C139.843 327.157 141.878 328 144 328H296V312H152V280H312Z" fill="#0055CC"/>
<path d="M475.885 314.538L466.058 310.606C463.083 309.428 460.532 307.38 458.738 304.73C456.944 302.08 455.99 298.951 456 295.751V288H464C466.122 288 468.157 287.157 469.657 285.657C471.157 284.157 472 282.122 472 280V264C471.993 257.637 469.462 251.537 464.963 247.037C460.463 242.538 454.363 240.007 448 240H416C412.411 240 408.869 240.806 405.633 242.359C402.398 243.912 399.553 246.171 397.308 248.971L389.509 231.879L433.117 115.067L418.128 109.472L374.519 226.283L352.685 236.246C349.813 237.547 347.227 239.405 345.078 241.712C342.929 244.019 341.259 246.73 340.164 249.687L275.331 423.352C274.589 425.339 274.667 427.54 275.547 429.471C276.428 431.401 278.04 432.902 280.027 433.645L295.017 439.241L283.825 469.219L268.835 463.623L263.239 478.613L308.208 495.401L313.804 480.411L298.814 474.815L310.006 444.836L324.996 450.433C325.98 450.8 327.027 450.97 328.077 450.933C329.127 450.896 330.159 450.652 331.115 450.216C332.071 449.78 332.931 449.159 333.647 448.391C334.363 447.622 334.921 446.72 335.288 445.735L368 358.113V464C368.01 472.484 371.384 480.618 377.383 486.617C383.382 492.616 391.516 495.99 400 496H464C472.484 495.99 480.618 492.616 486.617 486.617C492.616 480.618 495.99 472.484 496 464V344.249C496.021 337.849 494.113 331.591 490.525 326.291C486.937 320.992 481.835 316.896 475.885 314.538ZM323.097 432.645L293.118 421.453L301.512 398.969L316.501 404.564L322.097 389.574L307.108 383.979L312.703 368.99L327.693 374.586L333.289 359.596L318.3 354L323.896 339.011L338.885 344.606L344.481 329.616L329.492 324.021L335.087 309.032L350.077 314.628L355.673 299.638L340.683 294.042L346.279 279.053L361.269 284.648L366.865 269.658L351.876 264.062L355.153 255.282C355.518 254.297 356.075 253.393 356.791 252.624C357.508 251.856 358.369 251.236 359.327 250.803L376.898 242.784L384.916 260.355C385.355 261.31 385.6 262.343 385.637 263.393C385.675 264.444 385.503 265.491 385.133 266.475L323.097 432.645ZM394.871 286.137C396.308 287.342 398.124 288.002 400 288H408V295.751C408.01 298.951 407.056 302.08 405.262 304.73C403.468 307.38 400.917 309.428 397.942 310.606L388.115 314.538C386.476 315.198 384.894 315.99 383.384 316.907L394.871 286.137ZM464 480H400C395.758 479.995 391.691 478.308 388.692 475.308C385.692 472.309 384.005 468.242 384 464H480C479.995 468.242 478.308 472.309 475.308 475.308C472.309 478.308 468.242 479.995 464 480ZM400 400V384H464V400H400ZM448 416V432H416V416H448ZM480 352H384V344.249C383.99 341.049 384.944 337.92 386.738 335.27C388.532 332.62 391.083 330.572 394.058 329.394L403.885 325.462C409.835 323.104 414.937 319.009 418.525 313.709C422.113 308.409 424.021 302.151 424 295.751V288H440V295.751C439.979 302.151 441.887 308.409 445.475 313.709C449.063 319.008 454.165 323.104 460.115 325.462L469.942 329.394C472.917 330.572 475.468 332.62 477.262 335.27C479.056 337.92 480.01 341.049 480 344.249V352Z" fill="#0055CC"/>
<path d="M281.903 360H160C153.637 360.007 147.537 362.538 143.037 367.037C138.538 371.537 136.007 377.637 136 384V432C136.007 438.363 138.538 444.463 143.037 448.963C147.537 453.462 153.637 455.993 160 456H272V447.567C266.729 444.903 262.626 440.389 260.475 434.889C258.324 429.389 258.276 423.289 260.341 417.756L281.903 360ZM248 416H200V400H248V416Z" fill="#0055CC"/>
</svg>
