<svg width="510" height="510" viewBox="0 0 510 510" fill="none" xmlns="http://www.w3.org/2000/svg">
<path fill-rule="evenodd" clip-rule="evenodd" d="M316.847 456.037H44.235C37.099 456.037 30.955 449.983 30.955 442.103V21.934C30.955 14.054 37.099 8 44.235 8H357.975C365.111 8 371.255 14.054 371.255 21.934V332.676C378.2 330.865 385.486 329.901 392.995 329.901C440.487 329.901 479.045 368.458 479.045 415.95C479.045 463.442 440.487 502 392.995 502C359.974 502 331.272 483.36 316.847 456.037ZM357.255 337.663V22H44.955V442.037H310.977C308.359 433.808 306.946 425.043 306.946 415.95C306.946 381.207 327.581 351.244 357.255 337.663ZM392.995 343.901C353.23 343.901 320.946 376.185 320.946 415.95C320.946 455.716 353.23 488 392.995 488C432.76 488 465.045 455.716 465.045 415.95C465.045 376.185 432.76 343.901 392.995 343.901ZM394.724 465.324L397.947 468.55C400.678 471.283 400.676 475.719 397.942 478.449C395.209 481.18 390.773 481.178 388.043 478.445L372.907 463.293C370.175 460.559 370.176 456.129 372.909 453.396L388.045 438.26C390.777 435.528 395.213 435.528 397.945 438.26C400.677 440.992 400.677 445.427 397.945 448.159C397.945 448.159 396.552 449.552 394.796 451.308C413.5 450.369 428.398 434.886 428.398 415.95C428.398 409.586 426.716 403.61 423.77 398.448C421.855 395.092 423.024 390.813 426.38 388.898C429.735 386.983 434.014 388.153 435.929 391.508C440.044 398.718 442.398 407.062 442.398 415.95C442.398 442.638 421.191 464.411 394.724 465.324ZM391.191 380.593C372.489 381.533 357.592 397.016 357.592 415.95C357.592 423.444 359.925 430.398 363.905 436.122C366.111 439.294 365.326 443.66 362.154 445.865C358.983 448.071 354.617 447.286 352.411 444.115C346.853 436.122 343.592 426.414 343.592 415.95C343.592 389.262 364.801 367.488 391.269 366.577L388.045 363.353C385.314 360.622 385.314 356.186 388.045 353.454C390.777 350.722 395.213 350.722 397.945 353.454L413.081 368.59C415.814 371.323 415.815 375.753 413.084 378.487L397.947 393.639C395.217 396.372 390.781 396.374 388.048 393.644C385.315 390.913 385.312 386.477 388.043 383.744L391.191 380.593ZM216.105 70.851C212.242 70.851 209.105 67.715 209.105 63.851C209.105 59.988 212.242 56.851 216.105 56.851H316.449C320.312 56.851 323.449 59.988 323.449 63.851C323.449 67.715 320.312 70.851 316.449 70.851H216.105ZM216.105 108.634C212.242 108.634 209.105 105.498 209.105 101.634C209.105 97.771 212.242 94.634 216.105 94.634H316.449C320.312 94.634 323.449 97.771 323.449 101.634C323.449 105.498 320.312 108.634 316.449 108.634H216.105ZM84.787 360.789C80.924 360.789 77.787 357.653 77.787 353.789C77.787 349.926 80.924 346.789 84.787 346.789H130.527L148.14 292.703C149.104 289.741 151.911 287.772 155.025 287.874C158.139 287.976 160.811 290.124 161.579 293.144L177.156 354.345L192.35 317.311C193.385 314.789 195.791 313.097 198.514 312.975C201.238 312.854 203.785 314.325 205.04 316.745L219.464 344.547L232.36 296.419C233.18 293.359 235.953 291.231 239.121 291.231C242.29 291.231 245.063 293.359 245.883 296.419L264.07 364.292L267.928 349.893C268.748 346.833 271.521 344.705 274.689 344.705H317.423C321.286 344.705 324.423 347.842 324.423 351.705C324.423 355.568 321.286 358.705 317.423 358.705H280.061L270.831 393.15C270.011 396.21 267.238 398.338 264.07 398.338C260.901 398.338 258.128 396.21 257.308 393.15L239.121 325.277L228.319 365.594C227.571 368.384 225.186 370.429 222.314 370.741C219.442 371.054 216.674 369.57 215.343 367.006L199.569 336.6L182.071 379.249C180.925 382.042 178.117 383.786 175.105 383.575C172.093 383.363 169.556 381.245 168.811 378.318L153.971 320.011L142.266 355.957C141.327 358.839 138.641 360.789 135.61 360.789H84.787ZM83.335 235.06C79.471 235.06 76.335 231.923 76.335 228.06C76.335 224.196 79.471 221.06 83.335 221.06H313.946C317.809 221.06 320.946 224.196 320.946 228.06C320.946 231.923 317.809 235.06 313.946 235.06H83.335ZM180.761 46.896C189.073 46.896 195.812 53.635 195.812 61.947V151.321C195.812 159.634 189.073 166.373 180.761 166.373H91.387C83.074 166.373 76.335 159.634 76.335 151.321V61.947C76.335 53.635 83.074 46.896 91.387 46.896H180.761ZM180.761 60.896H91.386C90.806 60.896 90.335 61.366 90.335 61.947V151.322C90.335 151.902 90.806 152.373 91.387 152.373H180.761C181.342 152.373 181.812 151.902 181.812 151.321V61.947C181.812 61.366 181.341 60.896 180.761 60.896ZM118.303 88.864V79.365C118.303 72.737 123.675 67.365 130.303 67.365H141.845C148.472 67.365 153.845 72.737 153.844 79.365V88.864H163.343C169.971 88.864 175.343 94.236 175.343 100.864V112.405C175.343 119.033 169.971 124.405 163.343 124.405H153.844V133.904C153.845 140.531 148.472 145.904 141.844 145.904H130.303C123.675 145.904 118.303 140.531 118.303 133.904V124.405H108.804C102.177 124.405 96.804 119.033 96.804 112.405V100.864C96.804 94.236 102.177 88.864 108.804 88.864H118.303ZM110.804 102.864V110.405H125.303C129.169 110.405 132.303 113.539 132.303 117.405V131.904H139.844V117.405C139.844 113.539 142.979 110.405 146.844 110.405H161.343V102.864H146.844C142.979 102.864 139.844 99.73 139.844 95.864V81.365H132.303V95.864C132.303 99.73 129.169 102.864 125.303 102.864H110.804ZM216.105 146.417C212.242 146.417 209.105 143.281 209.105 139.417C209.105 135.554 212.242 132.417 216.105 132.417H316.449C320.312 132.417 323.449 135.554 323.449 139.417C323.449 143.281 320.312 146.417 316.449 146.417H216.105ZM83.335 197.56C79.471 197.56 76.335 194.424 76.335 190.56C76.335 186.697 79.471 183.56 83.335 183.56H313.946C317.809 183.56 320.946 186.697 320.946 190.56C320.946 194.424 317.809 197.56 313.946 197.56H83.335ZM84.787 422.698C80.924 422.698 77.787 419.562 77.787 415.698C77.787 411.835 80.924 408.698 84.787 408.698H142.191C146.055 408.698 149.191 411.835 149.191 415.698C149.191 419.562 146.055 422.698 142.191 422.698H84.787ZM83.335 272.559C79.471 272.559 76.335 269.423 76.335 265.559C76.335 261.696 79.471 258.559 83.335 258.559H313.946C317.809 258.559 320.946 261.696 320.946 265.559C320.946 269.423 317.809 272.559 313.946 272.559H83.335Z" fill="#0055CC"/>
</svg>
