<svg width="64" height="64" viewBox="0 0 64 64" fill="none" xmlns="http://www.w3.org/2000/svg">
<path d="M56.43 50.53H47.51L50.34 47.7C51.291 46.7453 51.825 45.4526 51.825 44.105C51.825 42.7574 51.291 41.4647 50.34 40.51L49.774 39.944V7.633C49.7724 6.22121 49.2109 4.8677 48.2126 3.86941C47.2143 2.87112 45.8608 2.30959 44.449 2.308H7.325C5.91321 2.30959 4.5597 2.87112 3.56141 3.86941C2.56312 4.8677 2.00159 6.22121 2 7.633V56.367C2.00159 57.7788 2.56312 59.1323 3.56141 60.1306C4.5597 61.1289 5.91321 61.6904 7.325 61.692H44.449C44.521 61.692 44.589 61.684 44.656 61.68H48.45C48.516 61.6935 48.584 61.6935 48.65 61.68H56.43C57.9048 61.6721 59.317 61.0828 60.3599 60.0399C61.4028 58.997 61.9921 57.5848 62 56.11C62 54.6318 61.4135 53.214 60.3692 52.1679C59.3249 51.1217 57.9082 50.5326 56.43 50.53ZM47.55 52.53V59.68H44.63C44.603 59.68 44.581 59.695 44.555 59.698C44.5198 59.694 44.4844 59.692 44.449 59.692H38.328C38.388 59.642 38.458 59.582 38.518 59.522L45.508 52.532L47.55 52.53ZM48.93 46.28L44.39 50.82L43.72 51.49L38.66 46.43L43.87 41.22C44.4087 40.7109 45.1084 40.4062 45.8481 40.3588C46.5877 40.3113 47.3207 40.524 47.92 40.96C47.935 40.971 47.948 40.985 47.963 40.996C48.0599 41.1448 48.1949 41.265 48.354 41.344L48.93 41.92C49.5065 42.4991 49.8301 43.2829 49.8301 44.1C49.8301 44.9171 49.5065 45.7009 48.93 46.28ZM4 56.367V7.633C4.00106 6.75148 4.35171 5.90637 4.97504 5.28304C5.59837 4.65971 6.44348 4.30906 7.325 4.308H44.449C45.3305 4.30906 46.1756 4.65971 46.799 5.28304C47.4223 5.90637 47.7729 6.75148 47.774 7.633V38.622C47.223 38.4207 46.6406 38.3191 46.054 38.322C45.3852 38.3201 44.7228 38.4509 44.1048 38.7066C43.4869 38.9624 42.9258 39.3381 42.454 39.812L36.544 45.732L30.634 51.632C30.1616 52.104 29.7869 52.6644 29.5313 53.2812C29.2756 53.8981 29.144 54.5593 29.144 55.227C29.144 55.8947 29.2756 56.5559 29.5313 57.1728C29.7869 57.7896 30.1616 58.35 30.634 58.822L31.334 59.522C31.394 59.582 31.464 59.642 31.524 59.692H7.325C6.44348 59.6909 5.59837 59.3403 4.97504 58.717C4.35171 58.0936 4.00106 57.2485 4 56.367Z" fill="#0055CC"/>
<path d="M21.864 28.031C22.0231 28.2432 22.26 28.3834 22.5226 28.4209C22.7851 28.4585 23.0518 28.3901 23.264 28.231C23.4762 28.0719 23.6164 27.835 23.6539 27.5724C23.6915 27.3099 23.6231 27.0432 23.464 26.831L19.506 21.59L23.475 16.068C23.6299 15.8525 23.6928 15.5843 23.65 15.3224C23.6071 15.0605 23.462 14.8264 23.2465 14.6715C23.031 14.5166 22.7628 14.4537 22.5009 14.4965C22.239 14.5394 22.0049 14.6845 21.85 14.9L18.244 19.918L15.144 15.818C15.9109 15.5282 16.5716 15.0122 17.0386 14.3384C17.5056 13.6646 17.7568 12.8648 17.759 12.045V11.31C17.7582 10.2368 17.3318 9.20774 16.5733 8.4485C15.8148 7.68927 14.7862 7.26185 13.713 7.25999H9.931C9.66578 7.25999 9.41143 7.36535 9.22389 7.55289C9.03636 7.74042 8.931 7.99478 8.931 8.25999V19.56C8.931 19.8252 9.03636 20.0796 9.22389 20.2671C9.41143 20.4546 9.66578 20.56 9.931 20.56C10.1962 20.56 10.4506 20.4546 10.6381 20.2671C10.8256 20.0796 10.931 19.8252 10.931 19.56V16.09H12.848L17.022 21.618L13.267 26.844C13.1904 26.9507 13.1355 27.0714 13.1056 27.1993C13.0756 27.3272 13.0711 27.4598 13.0924 27.5894C13.1353 27.8512 13.2805 28.0852 13.496 28.24C13.7115 28.3947 13.9796 28.4576 14.2414 28.4146C14.5032 28.3717 14.7372 28.2265 14.892 28.011L18.285 23.29L21.864 28.031ZM10.931 9.25999H13.713C14.2559 9.26079 14.7764 9.47681 15.1603 9.86072C15.5442 10.2446 15.7602 10.7651 15.761 11.308V12.043C15.7602 12.5859 15.5442 13.1064 15.1603 13.4903C14.7764 13.8742 14.2559 14.0902 13.713 14.091H10.931V9.25999Z" fill="#0055CC"/>
<path d="M12.633 32.034H8.34201C8.07679 32.034 7.82244 32.1394 7.6349 32.3269C7.44737 32.5144 7.34201 32.7688 7.34201 33.034C7.34201 33.2992 7.44737 33.5536 7.6349 33.7411C7.82244 33.9286 8.07679 34.034 8.34201 34.034H12.633C12.8982 34.034 13.1526 33.9286 13.3401 33.7411C13.5277 33.5536 13.633 33.2992 13.633 33.034C13.633 32.7688 13.5277 32.5144 13.3401 32.3269C13.1526 32.1394 12.8982 32.034 12.633 32.034Z" fill="#0055CC"/>
<path d="M16.631 33.034C16.631 33.2992 16.7364 33.5536 16.9239 33.7411C17.1114 33.9286 17.3658 34.034 17.631 34.034H43.437C43.7022 34.034 43.9566 33.9286 44.1441 33.7411C44.3317 33.5536 44.437 33.2992 44.437 33.034C44.437 32.7688 44.3317 32.5144 44.1441 32.3269C43.9566 32.1394 43.7022 32.034 43.437 32.034H17.631C17.3658 32.034 17.1114 32.1394 16.9239 32.3269C16.7364 32.5144 16.631 32.7688 16.631 33.034Z" fill="#0055CC"/>
<path d="M12.633 38.042H8.34201C8.07679 38.042 7.82244 38.1473 7.6349 38.3349C7.44737 38.5224 7.34201 38.7768 7.34201 39.042C7.34201 39.3072 7.44737 39.5616 7.6349 39.7491C7.82244 39.9366 8.07679 40.042 8.34201 40.042H12.633C12.8982 40.042 13.1526 39.9366 13.3401 39.7491C13.5277 39.5616 13.633 39.3072 13.633 39.042C13.633 38.7768 13.5277 38.5224 13.3401 38.3349C13.1526 38.1473 12.8982 38.042 12.633 38.042Z" fill="#0055CC"/>
<path d="M17.631 40.042H38.136C38.4012 40.042 38.6556 39.9366 38.8431 39.7491C39.0307 39.5616 39.136 39.3072 39.136 39.042C39.136 38.7768 39.0307 38.5224 38.8431 38.3349C38.6556 38.1473 38.4012 38.042 38.136 38.042H17.631C17.3658 38.042 17.1114 38.1473 16.9239 38.3349C16.7364 38.5224 16.631 38.7768 16.631 39.042C16.631 39.3072 16.7364 39.5616 16.9239 39.7491C17.1114 39.9366 17.3658 40.042 17.631 40.042Z" fill="#0055CC"/>
<path d="M12.633 44.05H8.34201C8.07679 44.05 7.82244 44.1554 7.6349 44.3429C7.44737 44.5304 7.34201 44.7848 7.34201 45.05C7.34201 45.3152 7.44737 45.5696 7.6349 45.7571C7.82244 45.9446 8.07679 46.05 8.34201 46.05H12.633C12.8982 46.05 13.1526 45.9446 13.3401 45.7571C13.5277 45.5696 13.633 45.3152 13.633 45.05C13.633 44.7848 13.5277 44.5304 13.3401 44.3429C13.1526 44.1554 12.8982 44.05 12.633 44.05Z" fill="#0055CC"/>
<path d="M32.557 44.049H17.635C17.3698 44.049 17.1154 44.1544 16.9279 44.3419C16.7404 44.5294 16.635 44.7838 16.635 45.049C16.635 45.3142 16.7404 45.5686 16.9279 45.7561C17.1154 45.9436 17.3698 46.049 17.635 46.049H32.557C32.8222 46.049 33.0766 45.9436 33.2641 45.7561C33.4517 45.5686 33.557 45.3142 33.557 45.049C33.557 44.7838 33.4517 44.5294 33.2641 44.3419C33.0766 44.1544 32.8222 44.049 32.557 44.049Z" fill="#0055CC"/>
<path d="M12.633 50.058H8.34201C8.07679 50.058 7.82244 50.1634 7.6349 50.3509C7.44737 50.5384 7.34201 50.7928 7.34201 51.058C7.34201 51.3232 7.44737 51.5776 7.6349 51.7651C7.82244 51.9526 8.07679 52.058 8.34201 52.058H12.633C12.8982 52.058 13.1526 51.9526 13.3401 51.7651C13.5277 51.5776 13.633 51.3232 13.633 51.058C13.633 50.7928 13.5277 50.5384 13.3401 50.3509C13.1526 50.1634 12.8982 50.058 12.633 50.058Z" fill="#0055CC"/>
<path d="M27.884 50.055H17.635C17.3698 50.055 17.1154 50.1603 16.9279 50.3479C16.7404 50.5354 16.635 50.7898 16.635 51.055C16.635 51.3202 16.7404 51.5746 16.9279 51.7621C17.1154 51.9496 17.3698 52.055 17.635 52.055H27.884C28.1492 52.055 28.4036 51.9496 28.5911 51.7621C28.7787 51.5746 28.884 51.3202 28.884 51.055C28.884 50.7898 28.7787 50.5354 28.5911 50.3479C28.4036 50.1603 28.1492 50.055 27.884 50.055Z" fill="#0055CC"/>
<path d="M31.25 25.17H42.12C42.3852 25.17 42.6396 25.0646 42.8271 24.8771C43.0146 24.6896 43.12 24.4352 43.12 24.17V11.68C43.12 11.4148 43.0146 11.1604 42.8271 10.9729C42.6396 10.7854 42.3852 10.68 42.12 10.68H31.25C31.1183 10.6787 30.9877 10.7036 30.8657 10.7534C30.7438 10.8032 30.633 10.8768 30.5399 10.9699C30.4468 11.063 30.3732 11.1738 30.3234 11.2957C30.2736 11.4177 30.2487 11.5483 30.25 11.68V24.17C30.25 24.4352 30.3553 24.6896 30.5429 24.8771C30.7304 25.0646 30.9848 25.17 31.25 25.17Z" fill="#0055CC"/>
</svg>
